%FSLAX23Y23*%
%MOIN*%
G70*
G01*
G75*
G04 Layer_Color=65535*
%ADD10C,0.006*%
G04:AMPARAMS|DCode=11|XSize=71mil|YSize=94mil|CornerRadius=0mil|HoleSize=0mil|Usage=FLASHONLY|Rotation=45.000|XOffset=0mil|YOffset=0mil|HoleType=Round|Shape=Rectangle|*
%AMROTATEDRECTD11*
4,1,4,0.008,-0.058,-0.058,0.008,-0.008,0.058,0.058,-0.008,0.008,-0.058,0.0*
%
%ADD11ROTATEDRECTD11*%

%ADD12O,0.087X0.024*%
%ADD13R,0.039X0.028*%
G04:AMPARAMS|DCode=14|XSize=22mil|YSize=69mil|CornerRadius=0mil|HoleSize=0mil|Usage=FLASHONLY|Rotation=45.000|XOffset=0mil|YOffset=0mil|HoleType=Round|Shape=Round|*
%AMOVALD14*
21,1,0.047,0.022,0.000,0.000,135.0*
1,1,0.022,0.017,-0.017*
1,1,0.022,-0.017,0.017*
%
%ADD14OVALD14*%

G04:AMPARAMS|DCode=15|XSize=22mil|YSize=69mil|CornerRadius=0mil|HoleSize=0mil|Usage=FLASHONLY|Rotation=135.000|XOffset=0mil|YOffset=0mil|HoleType=Round|Shape=Round|*
%AMOVALD15*
21,1,0.047,0.022,0.000,0.000,225.0*
1,1,0.022,0.017,0.017*
1,1,0.022,-0.017,-0.017*
%
%ADD15OVALD15*%

%ADD16R,0.067X0.031*%
%ADD17R,0.033X0.030*%
%ADD18R,0.030X0.033*%
%ADD19R,0.024X0.035*%
%ADD20C,0.031*%
%ADD21R,0.031X0.035*%
%ADD22R,0.016X0.069*%
%ADD23R,0.035X0.031*%
G04:AMPARAMS|DCode=24|XSize=35mil|YSize=31mil|CornerRadius=0mil|HoleSize=0mil|Usage=FLASHONLY|Rotation=135.000|XOffset=0mil|YOffset=0mil|HoleType=Round|Shape=Rectangle|*
%AMROTATEDRECTD24*
4,1,4,0.024,-0.001,0.001,-0.024,-0.024,0.001,-0.001,0.024,0.024,-0.001,0.0*
%
%ADD24ROTATEDRECTD24*%

G04:AMPARAMS|DCode=25|XSize=35mil|YSize=31mil|CornerRadius=0mil|HoleSize=0mil|Usage=FLASHONLY|Rotation=225.000|XOffset=0mil|YOffset=0mil|HoleType=Round|Shape=Rectangle|*
%AMROTATEDRECTD25*
4,1,4,0.001,0.024,0.024,0.001,-0.001,-0.024,-0.024,-0.001,0.001,0.024,0.0*
%
%ADD25ROTATEDRECTD25*%

%ADD26C,0.006*%
%ADD27C,0.067*%
%ADD28C,0.061*%
%ADD29C,0.157*%
%ADD30C,0.024*%
G04:AMPARAMS|DCode=31|XSize=47mil|YSize=55mil|CornerRadius=12mil|HoleSize=0mil|Usage=FLASHONLY|Rotation=0.000|XOffset=0mil|YOffset=0mil|HoleType=Round|Shape=RoundedRectangle|*
%AMROUNDEDRECTD31*
21,1,0.047,0.031,0,0,0.0*
21,1,0.024,0.055,0,0,0.0*
1,1,0.024,0.012,-0.016*
1,1,0.024,-0.012,-0.016*
1,1,0.024,-0.012,0.016*
1,1,0.024,0.012,0.016*
%
%ADD31ROUNDEDRECTD31*%
%ADD32C,0.063*%
%ADD33C,0.025*%
%ADD34C,0.010*%
%ADD35C,0.024*%
%ADD36C,0.010*%
%ADD37C,0.008*%
%ADD38C,0.006*%
%ADD39C,0.002*%
%ADD40C,0.006*%
D26*
X1776Y1652D02*
X1769Y1660D01*
X1772Y1656D01*
X1750Y1633D01*
X1757D01*
X2476Y1545D02*
Y1577D01*
X2487Y1567D01*
X2497Y1577D01*
Y1545D01*
X2508D02*
Y1567D01*
X2519Y1577D01*
X2529Y1567D01*
Y1545D01*
Y1561D01*
X2508D01*
X2540Y1577D02*
X2561Y1545D01*
Y1577D02*
X2540Y1545D01*
X2593Y1577D02*
X2583Y1572D01*
X2572Y1561D01*
Y1551D01*
X2577Y1545D01*
X2588D01*
X2593Y1551D01*
Y1556D01*
X2588Y1561D01*
X2572D01*
X2625Y1577D02*
X2615Y1572D01*
X2604Y1561D01*
Y1551D01*
X2609Y1545D01*
X2620D01*
X2625Y1551D01*
Y1556D01*
X2620Y1561D01*
X2604D01*
X2636Y1577D02*
X2657D01*
Y1572D01*
X2636Y1551D01*
Y1545D01*
X2689Y1577D02*
X2668D01*
Y1561D01*
X2679Y1567D01*
X2684D01*
X2689Y1561D01*
Y1551D01*
X2684Y1545D01*
X2673D01*
X2668Y1551D01*
X2792Y1567D02*
Y1535D01*
X2808D01*
X2813Y1541D01*
Y1562D01*
X2808Y1567D01*
X2792D01*
X2840D02*
X2829D01*
X2824Y1562D01*
Y1541D01*
X2829Y1535D01*
X2840D01*
X2845Y1541D01*
Y1562D01*
X2840Y1567D01*
X2856D02*
Y1535D01*
X2866Y1546D01*
X2877Y1535D01*
Y1567D01*
X2888Y1535D02*
Y1567D01*
X2909Y1535D01*
Y1567D01*
X2797Y2160D02*
X2776D01*
Y2128D01*
X2797D01*
X2776Y2144D02*
X2786D01*
X2808Y2128D02*
Y2160D01*
X2829Y2128D01*
Y2160D01*
X2840D02*
X2861D01*
X2850D01*
Y2128D01*
X2893Y2160D02*
X2872D01*
Y2128D01*
X2893D01*
X2872Y2144D02*
X2882D01*
X2904Y2128D02*
Y2160D01*
X2920D01*
X2925Y2155D01*
Y2144D01*
X2920Y2139D01*
X2904D01*
X2914D02*
X2925Y2128D01*
X2824Y2749D02*
Y2722D01*
X2829Y2717D01*
X2840D01*
X2845Y2722D01*
Y2749D01*
X2856Y2717D02*
Y2749D01*
X2872D01*
X2877Y2743D01*
Y2733D01*
X2872Y2727D01*
X2856D01*
X1574Y1651D02*
X1581Y1643D01*
X1578Y1647D01*
X1555Y1624D01*
X1551Y1628D01*
X1559Y1620D01*
X1604Y1613D02*
X1604Y1620D01*
X1596Y1628D01*
X1589Y1628D01*
X1574Y1613D01*
Y1605D01*
X1581Y1598D01*
X1589D01*
X1627Y1590D02*
X1627Y1598D01*
X1619Y1605D01*
X1612D01*
X1608Y1602D01*
Y1594D01*
X1615Y1586D01*
Y1579D01*
X1612Y1575D01*
X1604D01*
X1596Y1583D01*
Y1590D01*
X1615Y1564D02*
X1638Y1586D01*
X1649Y1575D01*
X1649Y1568D01*
X1642Y1560D01*
X1634D01*
X1623Y1571D01*
X1925Y1091D02*
Y1064D01*
X1931Y1059D01*
X1941D01*
X1947Y1064D01*
Y1091D01*
X1979Y1086D02*
X1973Y1091D01*
X1963D01*
X1957Y1086D01*
Y1080D01*
X1963Y1075D01*
X1973D01*
X1979Y1070D01*
Y1064D01*
X1973Y1059D01*
X1963D01*
X1957Y1064D01*
X1989Y1091D02*
Y1059D01*
X2005D01*
X2011Y1064D01*
Y1070D01*
X2005Y1075D01*
X1989D01*
X2005D01*
X2011Y1080D01*
Y1086D01*
X2005Y1091D01*
X1989D01*
X1017Y2071D02*
Y2103D01*
X1033D01*
X1039Y2098D01*
Y2087D01*
X1033Y2082D01*
X1017D01*
X1028D02*
X1039Y2071D01*
X1065D02*
X1055D01*
X1049Y2076D01*
Y2087D01*
X1055Y2092D01*
X1065D01*
X1071Y2087D01*
Y2082D01*
X1049D01*
X1081Y2071D02*
X1097D01*
X1103Y2076D01*
X1097Y2082D01*
X1087D01*
X1081Y2087D01*
X1087Y2092D01*
X1103D01*
X1129Y2071D02*
X1119D01*
X1113Y2076D01*
Y2087D01*
X1119Y2092D01*
X1129D01*
X1135Y2087D01*
Y2082D01*
X1113D01*
X1151Y2098D02*
Y2092D01*
X1145D01*
X1156D01*
X1151D01*
Y2076D01*
X1156Y2071D01*
X1235Y2729D02*
Y2708D01*
Y2719D01*
X1203D01*
X1235Y2697D02*
X1203Y2676D01*
X1235D02*
X1203Y2697D01*
X1262Y2729D02*
X1294D01*
Y2713D01*
X1288Y2708D01*
X1278D01*
X1272Y2713D01*
Y2729D01*
Y2719D02*
X1262Y2708D01*
X1294Y2697D02*
X1262Y2676D01*
X1294D02*
X1262Y2697D01*
X1347Y2708D02*
Y2729D01*
X1331D01*
X1336Y2719D01*
Y2713D01*
X1331Y2708D01*
X1320D01*
X1315Y2713D01*
Y2724D01*
X1320Y2729D01*
X1336Y2697D02*
X1315Y2687D01*
X1336Y2676D01*
X1823Y1961D02*
Y1982D01*
X1833Y1993D01*
X1844Y1982D01*
Y1961D01*
Y1977D01*
X1823D01*
X1860Y1987D02*
Y1982D01*
X1855D01*
X1865D01*
X1860D01*
Y1966D01*
X1865Y1961D01*
X1881D02*
Y1982D01*
X1887D01*
X1892Y1977D01*
Y1961D01*
Y1977D01*
X1897Y1982D01*
X1903Y1977D01*
Y1961D01*
X1929D02*
X1919D01*
X1913Y1966D01*
Y1977D01*
X1919Y1982D01*
X1929D01*
X1935Y1977D01*
Y1971D01*
X1913D01*
X1956Y1950D02*
X1961D01*
X1967Y1955D01*
Y1982D01*
X1951D01*
X1945Y1977D01*
Y1966D01*
X1951Y1961D01*
X1967D01*
X1983Y1982D02*
X1993D01*
X1999Y1977D01*
Y1961D01*
X1983D01*
X1977Y1966D01*
X1983Y1971D01*
X1999D01*
X2009Y1987D02*
X2015Y1993D01*
X2025D01*
X2031Y1987D01*
Y1982D01*
X2025Y1977D01*
X2020D01*
X2025D01*
X2031Y1971D01*
Y1966D01*
X2025Y1961D01*
X2015D01*
X2009Y1966D01*
X2063Y1961D02*
X2041D01*
X2063Y1982D01*
Y1987D01*
X2057Y1993D01*
X2047D01*
X2041Y1987D01*
X2073Y1982D02*
Y1966D01*
X2079Y1961D01*
X2095D01*
Y1982D01*
X2121Y1961D02*
Y1993D01*
X2105Y1977D01*
X2127D01*
X1071Y1125D02*
X1049D01*
Y1094D01*
X1071D01*
X1049Y1109D02*
X1060D01*
X1081Y1125D02*
X1103Y1094D01*
Y1125D02*
X1081Y1094D01*
X1113Y1125D02*
X1135D01*
X1124D01*
Y1094D01*
X2043Y1377D02*
Y1345D01*
X2059D01*
X2065Y1351D01*
Y1372D01*
X2059Y1377D01*
X2043D01*
X2075Y1361D02*
X2097D01*
X2086Y1372D02*
Y1351D01*
X1844Y1377D02*
Y1345D01*
X1860D01*
X1866Y1351D01*
Y1372D01*
X1860Y1377D01*
X1844D01*
X1876Y1361D02*
X1898D01*
X1457Y1349D02*
X1462Y1354D01*
X1473D01*
X1478Y1349D01*
Y1343D01*
X1473Y1338D01*
X1467D01*
X1473D01*
X1478Y1333D01*
Y1327D01*
X1473Y1322D01*
X1462D01*
X1457Y1327D01*
X1489Y1343D02*
X1499Y1322D01*
X1510Y1343D01*
X1521Y1349D02*
X1526Y1354D01*
X1537D01*
X1542Y1349D01*
Y1343D01*
X1537Y1338D01*
X1531D01*
X1537D01*
X1542Y1333D01*
Y1327D01*
X1537Y1322D01*
X1526D01*
X1521Y1327D01*
X1506Y1196D02*
X1484D01*
Y1180D01*
X1495Y1186D01*
X1500D01*
X1506Y1180D01*
Y1170D01*
X1500Y1164D01*
X1490D01*
X1484Y1170D01*
X1516Y1186D02*
X1527Y1164D01*
X1538Y1186D01*
X2566Y2568D02*
X2560Y2573D01*
X2550D01*
X2544Y2568D01*
Y2563D01*
X2550Y2557D01*
X2560D01*
X2566Y2552D01*
Y2547D01*
X2560Y2541D01*
X2550D01*
X2544Y2547D01*
X2582Y2568D02*
Y2563D01*
X2576D01*
X2587D01*
X2582D01*
Y2547D01*
X2587Y2541D01*
X2608Y2563D02*
X2619D01*
X2624Y2557D01*
Y2541D01*
X2608D01*
X2603Y2547D01*
X2608Y2552D01*
X2624D01*
X2640Y2568D02*
Y2563D01*
X2635D01*
X2646D01*
X2640D01*
Y2547D01*
X2646Y2541D01*
X2678D02*
X2667D01*
X2662Y2547D01*
Y2557D01*
X2667Y2563D01*
X2678D01*
X2683Y2557D01*
Y2552D01*
X2662D01*
X2544Y2441D02*
Y2473D01*
X2560D01*
X2566Y2467D01*
Y2457D01*
X2560Y2451D01*
X2544D01*
X2555D02*
X2566Y2441D01*
X2576Y2473D02*
X2598Y2441D01*
Y2473D02*
X2576Y2441D01*
X2544Y2372D02*
X2566D01*
X2555D01*
Y2340D01*
X2576Y2372D02*
X2598Y2340D01*
Y2372D02*
X2576Y2340D01*
X2566Y2266D02*
X2560Y2271D01*
X2550D01*
X2544Y2266D01*
Y2244D01*
X2550Y2239D01*
X2560D01*
X2566Y2244D01*
Y2255D01*
X2555D01*
X2576Y2239D02*
Y2271D01*
X2598Y2239D01*
Y2271D01*
X2608D02*
Y2239D01*
X2624D01*
X2630Y2244D01*
Y2266D01*
X2624Y2271D01*
X2608D01*
X2544Y2170D02*
Y2149D01*
X2555Y2138D01*
X2566Y2149D01*
Y2170D01*
X2598Y2160D02*
X2582D01*
X2576Y2154D01*
Y2144D01*
X2582Y2138D01*
X2598D01*
X2630Y2160D02*
X2614D01*
X2608Y2154D01*
Y2144D01*
X2614Y2138D01*
X2630D01*
X2544Y2069D02*
Y2037D01*
Y2048D01*
X2566Y2069D01*
X2550Y2053D01*
X2566Y2037D01*
X2592D02*
X2582D01*
X2576Y2043D01*
Y2053D01*
X2582Y2059D01*
X2592D01*
X2598Y2053D01*
Y2048D01*
X2576D01*
X2608Y2059D02*
Y2043D01*
X2614Y2037D01*
X2630D01*
Y2032D01*
X2624Y2027D01*
X2619D01*
X2630Y2037D02*
Y2059D01*
X2392Y2182D02*
X2424D01*
Y2198D01*
X2419Y2203D01*
X2414D01*
X2408Y2198D01*
Y2182D01*
Y2198D01*
X2403Y2203D01*
X2398D01*
X2392Y2198D01*
Y2182D01*
X2424Y2214D02*
Y2225D01*
Y2219D01*
X2392D01*
Y2214D01*
X2403Y2241D02*
X2419D01*
X2424Y2246D01*
Y2262D01*
X2403D01*
X2424Y2289D02*
Y2278D01*
X2419Y2273D01*
X2408D01*
X2403Y2278D01*
Y2289D01*
X2408Y2294D01*
X2414D01*
Y2273D01*
X2398Y2310D02*
X2403D01*
Y2305D01*
Y2315D01*
Y2310D01*
X2419D01*
X2424Y2315D01*
Y2337D02*
Y2347D01*
X2419Y2353D01*
X2408D01*
X2403Y2347D01*
Y2337D01*
X2408Y2331D01*
X2419D01*
X2424Y2337D01*
Y2369D02*
Y2379D01*
X2419Y2385D01*
X2408D01*
X2403Y2379D01*
Y2369D01*
X2408Y2363D01*
X2419D01*
X2424Y2369D01*
X2398Y2401D02*
X2403D01*
Y2395D01*
Y2406D01*
Y2401D01*
X2419D01*
X2424Y2406D01*
X2392Y2422D02*
X2424D01*
X2408D01*
X2403Y2427D01*
Y2438D01*
X2408Y2443D01*
X2424D01*
X2897Y2817D02*
X2918Y2828D01*
X2897Y2838D01*
X2918Y2849D02*
Y2860D01*
Y2854D01*
X2886D01*
X2892Y2849D01*
X2918Y2876D02*
X2913D01*
Y2881D01*
X2918D01*
Y2876D01*
Y2902D02*
Y2913D01*
Y2908D01*
X2886D01*
X2892Y2902D01*
X2295Y1164D02*
Y1196D01*
X2311D01*
X2317Y1191D01*
Y1180D01*
X2311Y1175D01*
X2295D01*
X2306D02*
X2317Y1164D01*
X2343D02*
X2333D01*
X2327Y1170D01*
Y1180D01*
X2333Y1186D01*
X2343D01*
X2349Y1180D01*
Y1175D01*
X2327D01*
X2365Y1164D02*
Y1191D01*
Y1180D01*
X2359D01*
X2370D01*
X2365D01*
Y1191D01*
X2370Y1196D01*
X2386Y1164D02*
X2397D01*
X2391D01*
Y1196D01*
X2386D01*
X2418Y1164D02*
X2429D01*
X2434Y1170D01*
Y1180D01*
X2429Y1186D01*
X2418D01*
X2413Y1180D01*
Y1170D01*
X2418Y1164D01*
X2445Y1186D02*
Y1170D01*
X2450Y1164D01*
X2455Y1170D01*
X2461Y1164D01*
X2466Y1170D01*
Y1186D01*
X2514Y1164D02*
X2525D01*
X2530Y1170D01*
Y1180D01*
X2525Y1186D01*
X2514D01*
X2509Y1180D01*
Y1170D01*
X2514Y1164D01*
X2541Y1186D02*
Y1170D01*
X2546Y1164D01*
X2551Y1170D01*
X2557Y1164D01*
X2562Y1170D01*
Y1186D01*
X2589Y1164D02*
X2578D01*
X2573Y1170D01*
Y1180D01*
X2578Y1186D01*
X2589D01*
X2594Y1180D01*
Y1175D01*
X2573D01*
X2605Y1164D02*
Y1186D01*
X2621D01*
X2626Y1180D01*
Y1164D01*
X2338Y1125D02*
X2322D01*
X2317Y1119D01*
Y1109D01*
X2322Y1103D01*
X2338D01*
X2354D02*
X2365D01*
X2370Y1109D01*
Y1119D01*
X2365Y1125D01*
X2354D01*
X2349Y1119D01*
Y1109D01*
X2354Y1103D01*
X2381D02*
Y1125D01*
X2397D01*
X2402Y1119D01*
Y1103D01*
X2418Y1130D02*
Y1125D01*
X2413D01*
X2423D01*
X2418D01*
Y1109D01*
X2423Y1103D01*
X2439Y1125D02*
Y1103D01*
Y1114D01*
X2445Y1119D01*
X2450Y1125D01*
X2455D01*
X2477Y1103D02*
X2487D01*
X2493Y1109D01*
Y1119D01*
X2487Y1125D01*
X2477D01*
X2471Y1119D01*
Y1109D01*
X2477Y1103D01*
X2503D02*
X2514D01*
X2509D01*
Y1135D01*
X2503D01*
X2530Y1103D02*
X2541D01*
X2535D01*
Y1135D01*
X2530D01*
X2573Y1103D02*
X2562D01*
X2557Y1109D01*
Y1119D01*
X2562Y1125D01*
X2573D01*
X2578Y1119D01*
Y1114D01*
X2557D01*
X2589Y1125D02*
Y1103D01*
Y1114D01*
X2594Y1119D01*
X2599Y1125D01*
X2605D01*
X2791Y1126D02*
Y1094D01*
Y1110D01*
X2813D01*
Y1126D01*
Y1094D01*
X2845Y1126D02*
X2823D01*
Y1094D01*
X2845D01*
X2823Y1110D02*
X2834D01*
X2855Y1094D02*
Y1116D01*
X2866Y1126D01*
X2877Y1116D01*
Y1094D01*
Y1110D01*
X2855D01*
X2887Y1126D02*
X2909D01*
X2898D01*
Y1094D01*
X1225Y1051D02*
Y1029D01*
X1236Y1019D01*
X1247Y1029D01*
Y1051D01*
X1273Y1019D02*
X1263D01*
X1257Y1024D01*
Y1035D01*
X1263Y1040D01*
X1273D01*
X1279Y1035D01*
Y1029D01*
X1257D01*
X1289Y1040D02*
X1311Y1019D01*
X1300Y1029D01*
X1311Y1040D01*
X1289Y1019D01*
X1327Y1045D02*
Y1040D01*
X1321D01*
X1332D01*
X1327D01*
Y1024D01*
X1332Y1019D01*
X1595Y1398D02*
Y1377D01*
X1606Y1366D01*
X1617Y1377D01*
Y1398D01*
X1627Y1387D02*
Y1371D01*
X1633Y1366D01*
X1649D01*
Y1387D01*
X1659Y1366D02*
X1675D01*
X1681Y1371D01*
X1675Y1377D01*
X1665D01*
X1659Y1382D01*
X1665Y1387D01*
X1681D01*
X1691Y1398D02*
Y1366D01*
X1707D01*
X1713Y1371D01*
Y1377D01*
Y1382D01*
X1707Y1387D01*
X1691D01*
D34*
X2493Y1807D02*
G03*
X2493Y1807I-5J0D01*
G01*
X1724Y1183D02*
G03*
X1724Y1183I-5J0D01*
G01*
X1724Y1026D02*
G03*
X1724Y1026I-5J0D01*
G01*
X1682Y1946D02*
G03*
X1682Y1946I-5J0D01*
G01*
X1292Y1219D02*
G03*
X1292Y1219I-5J0D01*
G01*
X1434Y1167D02*
G03*
X1434Y1167I-5J0D01*
G01*
D35*
X1794Y1969D02*
G03*
X1794Y1969I-12J0D01*
G01*
D36*
X2231Y1700D02*
X2247Y1715D01*
X2208Y1724D02*
X2255Y1676D01*
X2194Y1710D02*
X2241Y1662D01*
X2202Y1671D02*
X2217Y1686D01*
X2850Y1339D02*
Y1364D01*
X2833Y1388D02*
X2850Y1364D01*
Y1388D02*
Y1417D01*
X2805Y1309D02*
Y1447D01*
X2896Y1309D02*
Y1447D01*
X2850Y1929D02*
Y1955D01*
X2833Y1978D02*
X2850Y1955D01*
Y1978D02*
Y2008D01*
X2805Y1900D02*
Y2037D01*
X2896Y1900D02*
Y2037D01*
X2850Y2520D02*
Y2545D01*
X2833Y2569D02*
X2850Y2545D01*
Y2569D02*
Y2598D01*
X2805Y2490D02*
Y2628D01*
X2896Y2490D02*
Y2628D01*
X2761Y2908D02*
Y2948D01*
X2721D02*
X2761D01*
X2721Y1176D02*
X2761D01*
Y1216D01*
X989Y1176D02*
X1019D01*
X989D02*
Y1206D01*
Y2908D02*
Y2948D01*
X1029D01*
X1087Y1929D02*
Y1955D01*
X1069Y1978D02*
X1087Y1955D01*
Y1978D02*
Y2008D01*
X1041Y1900D02*
Y2037D01*
X1132Y1900D02*
Y2037D01*
X1823Y995D02*
Y1153D01*
X2114Y995D02*
Y1153D01*
X2161Y1271D02*
Y1290D01*
X2761Y1271D02*
Y1290D01*
X2161D02*
X2761D01*
X1949Y1254D02*
X1988D01*
D37*
X2547Y1600D02*
Y1797D01*
X2618Y1600D02*
Y1797D01*
X2547D02*
X2618D01*
X2547Y1600D02*
X2618D01*
X1646Y1195D02*
X1685D01*
X1646Y1317D02*
X1685D01*
Y1195D02*
Y1317D01*
X1646Y1195D02*
Y1317D01*
X1646Y1037D02*
X1685D01*
X1646Y1159D02*
X1685D01*
Y1037D02*
Y1159D01*
X1646Y1037D02*
Y1159D01*
X1969Y1726D02*
X2211Y1969D01*
X1726D02*
X1969Y2211D01*
X2211Y1969D01*
X1726D02*
X1969Y1726D01*
X1299Y1252D02*
Y1291D01*
X1331D01*
X1417Y1252D02*
Y1291D01*
X1386D02*
X1417D01*
Y1094D02*
Y1134D01*
X1386Y1094D02*
X1417D01*
X1299D02*
Y1134D01*
Y1094D02*
X1331D01*
D38*
X1220Y2904D02*
X1228Y2898D01*
X1212D02*
X1220Y2904D01*
X1212Y2898D02*
X1228D01*
X2866Y1039D02*
X2874Y1033D01*
X2882Y1039D01*
X2866D02*
X2882D01*
X1276Y2904D02*
X1283Y2898D01*
X1268D02*
X1276Y2904D01*
X1268Y2898D02*
X1283D01*
X1055Y1039D02*
X1063Y1033D01*
X1071Y1039D01*
X1055D02*
X1071D01*
X1331Y2904D02*
X1339Y2898D01*
X1323D02*
X1331Y2904D01*
X1323Y2898D02*
X1339D01*
X2022Y1536D02*
Y1546D01*
Y1517D02*
Y1527D01*
X1477Y1152D02*
X1507D01*
X1477Y1305D02*
X1507D01*
X1599Y1915D02*
X1629D01*
X2241Y2777D02*
X2209D01*
Y2755D01*
X2241Y2723D02*
Y2745D01*
X2209D01*
Y2723D01*
X2225Y2745D02*
Y2734D01*
X2241Y2713D02*
X2209D01*
Y2697D01*
X2214Y2691D01*
X2236D01*
X2241Y2697D01*
Y2713D01*
X2136Y2755D02*
X2141Y2761D01*
Y2771D01*
X2136Y2777D01*
X2130D01*
X2125Y2771D01*
Y2761D01*
X2120Y2755D01*
X2114D01*
X2109Y2761D01*
Y2771D01*
X2114Y2777D01*
X2136Y2723D02*
X2141Y2729D01*
Y2739D01*
X2136Y2745D01*
X2114D01*
X2109Y2739D01*
Y2729D01*
X2114Y2723D01*
X2141Y2713D02*
X2109D01*
Y2691D01*
X2141Y2681D02*
X2109D01*
X2120D01*
X2141Y2659D01*
X2125Y2675D01*
X2109Y2659D01*
X2041Y2777D02*
X2009D01*
Y2761D01*
X2014Y2755D01*
X2036D01*
X2041Y2761D01*
Y2777D01*
X2009Y2745D02*
X2041D01*
X2009Y2723D01*
X2041D01*
Y2713D02*
X2009D01*
X2020D01*
X2041Y2691D01*
X2025Y2707D01*
X2009Y2691D01*
Y2670D02*
X2020Y2681D01*
X2030D01*
X2041Y2670D01*
X2009Y2654D02*
X2041D01*
X2030Y2643D01*
X2041Y2633D01*
X2009D01*
X2041Y2606D02*
Y2617D01*
X2036Y2622D01*
X2014D01*
X2009Y2617D01*
Y2606D01*
X2014Y2601D01*
X2036D01*
X2041Y2606D01*
X2036Y2569D02*
X2041Y2574D01*
Y2585D01*
X2036Y2590D01*
X2030D01*
X2025Y2585D01*
Y2574D01*
X2020Y2569D01*
X2014D01*
X2009Y2574D01*
Y2585D01*
X2014Y2590D01*
X2041Y2558D02*
Y2547D01*
Y2553D01*
X2009D01*
Y2558D01*
Y2547D01*
Y2531D02*
X2020Y2521D01*
X2030D01*
X2041Y2531D01*
X1941Y2777D02*
X1909D01*
Y2761D01*
X1914Y2755D01*
X1936D01*
X1941Y2761D01*
Y2777D01*
X1909Y2745D02*
X1930Y2723D01*
X1936Y2691D02*
X1941Y2697D01*
Y2707D01*
X1936Y2713D01*
X1914D01*
X1909Y2707D01*
Y2697D01*
X1914Y2691D01*
X1809Y2777D02*
X1841D01*
Y2761D01*
X1836Y2755D01*
X1825D01*
X1820Y2761D01*
Y2777D01*
Y2766D02*
X1809Y2755D01*
X1836Y2723D02*
X1841Y2729D01*
Y2739D01*
X1836Y2745D01*
X1830D01*
X1825Y2739D01*
Y2729D01*
X1820Y2723D01*
X1814D01*
X1809Y2729D01*
Y2739D01*
X1814Y2745D01*
X1841Y2713D02*
Y2691D01*
Y2702D01*
X1809D01*
X1736Y2755D02*
X1741Y2761D01*
Y2771D01*
X1736Y2777D01*
X1730D01*
X1725Y2771D01*
Y2761D01*
X1720Y2755D01*
X1714D01*
X1709Y2761D01*
Y2771D01*
X1714Y2777D01*
X1736Y2723D02*
X1741Y2729D01*
Y2739D01*
X1736Y2745D01*
X1714D01*
X1709Y2739D01*
Y2729D01*
X1714Y2723D01*
X1741Y2691D02*
Y2713D01*
X1709D01*
Y2691D01*
X1725Y2713D02*
Y2702D01*
X1636Y2755D02*
X1641Y2761D01*
Y2771D01*
X1636Y2777D01*
X1614D01*
X1609Y2771D01*
Y2761D01*
X1614Y2755D01*
X1625D01*
Y2766D01*
X1609Y2745D02*
X1641D01*
X1609Y2723D01*
X1641D01*
Y2713D02*
X1609D01*
Y2697D01*
X1614Y2691D01*
X1636D01*
X1641Y2697D01*
Y2713D01*
X1541Y2777D02*
X1520D01*
X1509Y2766D01*
X1520Y2755D01*
X1541D01*
X1536Y2723D02*
X1541Y2729D01*
Y2739D01*
X1536Y2745D01*
X1514D01*
X1509Y2739D01*
Y2729D01*
X1514Y2723D01*
X1536Y2691D02*
X1541Y2697D01*
Y2707D01*
X1536Y2713D01*
X1514D01*
X1509Y2707D01*
Y2697D01*
X1514Y2691D01*
D39*
X1227Y2103D02*
X1509D01*
X1227Y2104D02*
X1511D01*
X1229Y2106D02*
X1512D01*
X1230Y2107D02*
X1514D01*
X1232Y2109D02*
X1515D01*
X1233Y2110D02*
X1517D01*
X1235Y2112D02*
X1518D01*
X1236Y2113D02*
X1520D01*
X1238Y2115D02*
X1521D01*
X1239Y2116D02*
X1523D01*
X1241Y2118D02*
X1524D01*
X1242Y2119D02*
X1526D01*
X1244Y2121D02*
X1527D01*
X1245Y2122D02*
X1529D01*
X1247Y2124D02*
X1530D01*
X1248Y2125D02*
X1532D01*
X1250Y2127D02*
X1533D01*
X1251Y2128D02*
X1535D01*
X1253Y2130D02*
X1536D01*
X1254Y2131D02*
X1538D01*
X1256Y2133D02*
X1539D01*
X1257Y2134D02*
X1541D01*
X1259Y2136D02*
X1542D01*
X1260Y2137D02*
X1544D01*
X1262Y2139D02*
X1545D01*
X1263Y2140D02*
X1547D01*
X1265Y2142D02*
X1548D01*
X1266Y2143D02*
X1550D01*
X1268Y2145D02*
X1551D01*
X1269Y2146D02*
X1553D01*
X1271Y2148D02*
X1554D01*
X1272Y2149D02*
X1556D01*
X1274Y2151D02*
X1557D01*
X1275Y2152D02*
X1559D01*
X1277Y2154D02*
X1560D01*
X1278Y2155D02*
X1562D01*
X1280Y2157D02*
X1563D01*
X1281Y2158D02*
X1565D01*
X1283Y2160D02*
X1566D01*
X1284Y2161D02*
X1568D01*
X1286Y2163D02*
X1569D01*
X1287Y2164D02*
X1571D01*
X1289Y2166D02*
X1572D01*
X1290Y2167D02*
X1574D01*
X1292Y2169D02*
X1575D01*
X1293Y2170D02*
X1577D01*
X1295Y2172D02*
X1578D01*
X1296Y2173D02*
X1580D01*
X1298Y2175D02*
X1581D01*
X1299Y2176D02*
X1583D01*
X1301Y2178D02*
X1584D01*
X1302Y2179D02*
X1586D01*
X1304Y2181D02*
X1587D01*
X1305Y2182D02*
X1589D01*
X1307Y2184D02*
X1590D01*
X1308Y2185D02*
X1592D01*
X1310Y2187D02*
X1593D01*
X1311Y2188D02*
X1595D01*
X1313Y2190D02*
X1596D01*
X1314Y2191D02*
X1598D01*
X1316Y2193D02*
X1599D01*
X1473Y2194D02*
X1601D01*
X1475Y2196D02*
X1602D01*
X1476Y2197D02*
X1604D01*
X1478Y2199D02*
X1605D01*
X1479Y2200D02*
X1607D01*
X1481Y2202D02*
X1608D01*
X1482Y2203D02*
X1610D01*
X1484Y2205D02*
X1611D01*
X1485Y2206D02*
X1613D01*
X1487Y2208D02*
X1614D01*
X1488Y2209D02*
X1616D01*
X1490Y2211D02*
X1617D01*
X1491Y2212D02*
X1619D01*
X1493Y2214D02*
X1620D01*
X1494Y2215D02*
X1622D01*
X1496Y2217D02*
X1623D01*
X1497Y2218D02*
X1625D01*
X1499Y2220D02*
X1626D01*
X1500Y2221D02*
X1628D01*
X1502Y2223D02*
X1629D01*
X1503Y2224D02*
X1631D01*
X1505Y2226D02*
X1632D01*
X1506Y2227D02*
X1634D01*
X1508Y2229D02*
X1635D01*
X1509Y2230D02*
X1637D01*
X1511Y2232D02*
X1638D01*
X1512Y2233D02*
X1640D01*
X1514Y2235D02*
X1641D01*
X1515Y2236D02*
X1643D01*
X1517Y2238D02*
X1644D01*
X1518Y2239D02*
X1646D01*
X1520Y2241D02*
X1647D01*
X1521Y2242D02*
X1649D01*
X1523Y2244D02*
X1650D01*
X1524Y2245D02*
X1652D01*
X1526Y2247D02*
X1653D01*
X1527Y2248D02*
X1655D01*
X1529Y2250D02*
X1656D01*
X1530Y2251D02*
X1658D01*
X1532Y2253D02*
X1659D01*
X1533Y2254D02*
X1661D01*
X1535Y2256D02*
X1662D01*
X1536Y2257D02*
X1664D01*
X1538Y2259D02*
X1665D01*
X1539Y2260D02*
X1667D01*
X1541Y2262D02*
X1668D01*
X1542Y2263D02*
X1670D01*
X1544Y2265D02*
X1671D01*
X1545Y2266D02*
X1673D01*
X1547Y2268D02*
X1674D01*
X1548Y2269D02*
X1676D01*
X1550Y2271D02*
X1677D01*
X1551Y2272D02*
X1679D01*
X1553Y2274D02*
X1680D01*
X1554Y2275D02*
X1682D01*
X1556Y2277D02*
X1683D01*
X1557Y2278D02*
X1685D01*
X1559Y2280D02*
X1686D01*
X1560Y2281D02*
X1688D01*
X1239Y2283D02*
X1688D01*
X1239Y2284D02*
X1688D01*
X1239Y2286D02*
X1688D01*
X1239Y2287D02*
X1688D01*
X1239Y2289D02*
X1688D01*
X1239Y2290D02*
X1688D01*
X1239Y2292D02*
X1688D01*
X1239Y2293D02*
X1688D01*
X1239Y2295D02*
X1688D01*
X1239Y2296D02*
X1688D01*
X1239Y2298D02*
X1688D01*
X1239Y2299D02*
X1688D01*
X1239Y2301D02*
X1688D01*
X1239Y2302D02*
X1688D01*
X1239Y2304D02*
X1688D01*
X1239Y2305D02*
X1688D01*
X1239Y2307D02*
X1688D01*
X1239Y2308D02*
X1688D01*
X1239Y2310D02*
X1688D01*
X1239Y2311D02*
X1688D01*
X1239Y2313D02*
X1688D01*
X1239Y2314D02*
X1688D01*
X1239Y2316D02*
X1688D01*
X1239Y2317D02*
X1688D01*
X1239Y2319D02*
X1688D01*
X1239Y2320D02*
X1688D01*
X1239Y2322D02*
X1688D01*
X1239Y2323D02*
X1688D01*
X1239Y2325D02*
X1688D01*
X1239Y2326D02*
X1688D01*
X1239Y2328D02*
X1688D01*
X1239Y2329D02*
X1688D01*
X1239Y2331D02*
X1688D01*
X1239Y2332D02*
X1688D01*
X1239Y2334D02*
X1688D01*
X1239Y2335D02*
X1688D01*
X1239Y2337D02*
X1688D01*
X1239Y2338D02*
X1688D01*
X1239Y2340D02*
X1688D01*
X1239Y2341D02*
X1688D01*
X1239Y2343D02*
X1688D01*
X1239Y2344D02*
X1688D01*
X1239Y2346D02*
X1688D01*
X1239Y2347D02*
X1688D01*
X1239Y2349D02*
X1688D01*
X1239Y2350D02*
X1688D01*
X1239Y2352D02*
X1688D01*
X1239Y2353D02*
X1688D01*
X1239Y2355D02*
X1688D01*
X1239Y2356D02*
X1688D01*
X1239Y2358D02*
X1688D01*
X1239Y2359D02*
X1688D01*
X1239Y2361D02*
X1688D01*
X1239Y2362D02*
X1688D01*
X1239Y2364D02*
X1688D01*
X1239Y2365D02*
X1688D01*
X1239Y2367D02*
X1688D01*
X1239Y2368D02*
X1688D01*
X1239Y2370D02*
X1688D01*
X1239Y2371D02*
X1688D01*
X1239Y2373D02*
X1367D01*
X1241Y2374D02*
X1368D01*
X1242Y2376D02*
X1370D01*
X1244Y2377D02*
X1371D01*
X1245Y2379D02*
X1373D01*
X1247Y2380D02*
X1374D01*
X1248Y2382D02*
X1376D01*
X1250Y2383D02*
X1377D01*
X1251Y2385D02*
X1379D01*
X1253Y2386D02*
X1380D01*
X1254Y2388D02*
X1382D01*
X1256Y2389D02*
X1383D01*
X1257Y2391D02*
X1385D01*
X1259Y2392D02*
X1386D01*
X1260Y2394D02*
X1388D01*
X1262Y2395D02*
X1389D01*
X1263Y2397D02*
X1391D01*
X1265Y2398D02*
X1392D01*
X1266Y2400D02*
X1394D01*
X1268Y2401D02*
X1395D01*
X1269Y2403D02*
X1397D01*
X1271Y2404D02*
X1398D01*
X1272Y2406D02*
X1400D01*
X1274Y2407D02*
X1401D01*
X1275Y2409D02*
X1403D01*
X1277Y2410D02*
X1404D01*
X1278Y2412D02*
X1406D01*
X1280Y2413D02*
X1407D01*
X1281Y2415D02*
X1409D01*
X1283Y2416D02*
X1410D01*
X1284Y2418D02*
X1412D01*
X1286Y2419D02*
X1413D01*
X1287Y2421D02*
X1415D01*
X1289Y2422D02*
X1416D01*
X1290Y2424D02*
X1418D01*
X1292Y2425D02*
X1419D01*
X1293Y2427D02*
X1421D01*
X1295Y2428D02*
X1422D01*
X1296Y2430D02*
X1424D01*
X1298Y2431D02*
X1425D01*
X1299Y2433D02*
X1427D01*
X1301Y2434D02*
X1428D01*
X1302Y2436D02*
X1430D01*
X1304Y2437D02*
X1431D01*
X1305Y2439D02*
X1433D01*
X1307Y2440D02*
X1434D01*
X1308Y2442D02*
X1436D01*
X1310Y2443D02*
X1437D01*
X1311Y2445D02*
X1439D01*
X1313Y2446D02*
X1440D01*
X1314Y2448D02*
X1442D01*
X1316Y2449D02*
X1443D01*
X1317Y2451D02*
X1445D01*
X1319Y2452D02*
X1446D01*
X1320Y2454D02*
X1448D01*
X1322Y2455D02*
X1449D01*
X1323Y2457D02*
X1451D01*
X1325Y2458D02*
X1452D01*
X1326Y2460D02*
X1454D01*
X1524Y2461D02*
X1653D01*
X1328D02*
X1455D01*
X1526Y2463D02*
X1655D01*
X1329D02*
X1457D01*
X1527Y2464D02*
X1656D01*
X1331D02*
X1458D01*
X1529Y2466D02*
X1658D01*
X1332D02*
X1460D01*
X1530Y2467D02*
X1659D01*
X1334D02*
X1461D01*
X1532Y2469D02*
X1661D01*
X1335D02*
X1463D01*
X1533Y2470D02*
X1662D01*
X1337D02*
X1464D01*
X1535Y2472D02*
X1664D01*
X1338D02*
X1466D01*
X1536Y2473D02*
X1665D01*
X1340D02*
X1467D01*
X1538Y2475D02*
X1667D01*
X1341D02*
X1469D01*
X1539Y2476D02*
X1668D01*
X1343D02*
X1470D01*
X1541Y2478D02*
X1670D01*
X1344D02*
X1472D01*
X1542Y2479D02*
X1671D01*
X1346D02*
X1473D01*
X1544Y2481D02*
X1673D01*
X1347D02*
X1475D01*
X1545Y2482D02*
X1674D01*
X1349D02*
X1476D01*
X1547Y2484D02*
X1676D01*
X1350D02*
X1478D01*
X1548Y2485D02*
X1677D01*
X1352D02*
X1479D01*
X1550Y2487D02*
X1679D01*
X1353D02*
X1481D01*
X1551Y2488D02*
X1680D01*
X1355D02*
X1482D01*
X1553Y2490D02*
X1682D01*
X1356D02*
X1484D01*
X1554Y2491D02*
X1683D01*
X1358D02*
X1485D01*
X1556Y2493D02*
X1685D01*
X1359D02*
X1487D01*
X1557Y2494D02*
X1686D01*
X1361D02*
X1488D01*
X1559Y2496D02*
X1688D01*
X1362D02*
X1490D01*
X1560Y2497D02*
X1689D01*
X1364D02*
X1491D01*
X1562Y2499D02*
X1691D01*
X1365D02*
X1493D01*
X1563Y2500D02*
X1692D01*
X1367D02*
X1494D01*
X1565Y2502D02*
X1694D01*
X1368D02*
X1496D01*
X1566Y2503D02*
X1695D01*
X1370D02*
X1497D01*
X1568Y2505D02*
X1697D01*
X1371D02*
X1499D01*
X1569Y2506D02*
X1698D01*
X1373D02*
X1500D01*
X1571Y2508D02*
X1700D01*
X1374D02*
X1502D01*
X1572Y2509D02*
X1701D01*
X1376D02*
X1503D01*
X1574Y2511D02*
X1703D01*
X1377D02*
X1505D01*
X1575Y2512D02*
X1704D01*
X1379D02*
X1506D01*
X1577Y2514D02*
X1706D01*
X1380D02*
X1508D01*
X1578Y2515D02*
X1707D01*
X1382D02*
X1509D01*
X1580Y2517D02*
X1709D01*
X1383D02*
X1511D01*
X1581Y2518D02*
X1710D01*
X1385D02*
X1512D01*
X1583Y2520D02*
X1712D01*
X1386D02*
X1514D01*
X1584Y2521D02*
X1713D01*
X1388D02*
X1515D01*
X1586Y2523D02*
X1715D01*
X1389D02*
X1517D01*
X1587Y2524D02*
X1716D01*
X1391D02*
X1518D01*
X1589Y2526D02*
X1718D01*
X1392D02*
X1520D01*
X1590Y2527D02*
X1719D01*
X1394D02*
X1521D01*
X1592Y2529D02*
X1721D01*
X1395D02*
X1523D01*
X1593Y2530D02*
X1722D01*
X1397D02*
X1524D01*
X1595Y2532D02*
X1724D01*
X1398D02*
X1526D01*
X1596Y2533D02*
X1725D01*
X1400D02*
X1527D01*
X1598Y2535D02*
X1727D01*
X1401D02*
X1529D01*
X1599Y2536D02*
X1728D01*
X1403D02*
X1530D01*
X1601Y2538D02*
X1730D01*
X1404D02*
X1532D01*
X1602Y2539D02*
X1731D01*
X1406D02*
X1533D01*
X1604Y2541D02*
X1733D01*
X1407D02*
X1535D01*
X1605Y2542D02*
X1734D01*
X1409D02*
X1536D01*
X1607Y2544D02*
X1736D01*
X1410D02*
X1538D01*
X1608Y2545D02*
X1737D01*
X1412D02*
X1539D01*
X1610Y2547D02*
X1739D01*
X1413D02*
X1541D01*
X1611Y2548D02*
X1740D01*
X1415D02*
X1542D01*
X1613Y2550D02*
X1742D01*
X1416D02*
X1544D01*
X1614Y2551D02*
X1742D01*
X1418D02*
X1545D01*
D40*
X2283Y1329D02*
X2296Y1336D01*
X2309Y1349D01*
Y1362D01*
X2302Y1368D01*
X2289D01*
X2283Y1362D01*
Y1355D01*
X2289Y1349D01*
X2309D01*
X2283Y1429D02*
X2309D01*
Y1449D01*
X2296Y1442D01*
X2289D01*
X2283Y1449D01*
Y1462D01*
X2289Y1468D01*
X2302D01*
X2309Y1462D01*
X2612Y1368D02*
X2638D01*
X2612Y1342D01*
Y1336D01*
X2618Y1329D01*
X2631D01*
X2638Y1336D01*
X2631Y1468D02*
X2618D01*
X2625D01*
Y1429D01*
X2631Y1436D01*
M02*
