M48
;Layer_Color=9474304
;FILE_FORMAT=2:3
INCH,LZ
;TYPE=PLATED
T1F00S00C0.012
T3F00S00C0.040
T4F00S00C0.041
T5F00S00C0.043
T6F00S00C0.106
;TYPE=NON_PLATED
T7F00S00C0.039
%
T01
X01197Y01094
X0135Y01189
X01446Y01223
X01447Y0128
Y01339
X01567Y01323
X01638Y01386
X01783Y01319
X01866Y01321
X01913Y01309
X01969Y01321
X02071Y01321
X01984Y01463
X01937Y01476
X0176Y01484
X01783Y01528
X01764Y01177
X01899Y01187
X01954
X01563Y01165
X02411Y01394
X0251Y01401
X02411Y0155
X02653Y01556
X02768Y01528
Y01472
X02571Y01606
Y01646
X02612Y01654
X02579Y01687
X02409Y01722
Y01774
X02317Y01833
X02281Y01854
X02228Y01819
X0216Y01935
X02103Y01942
X0217Y01992
X02149Y02187
X02125Y02208
X02033Y02108
X01992Y0213
X01959Y02138
X01923Y02132
Y02075
X01935Y02037
X01898Y01992
X01854Y02083
X01967Y02094
X01992Y02075
X01967Y01848
X01921Y01829
X01886Y01823
X01835Y01879
X01866Y01659
X0184Y01614
X01801Y01565
X01959Y01675
X02122Y01728
X0226Y01657
X02331Y01602
X02363Y01625
Y01881
X02367Y01936
X02373Y02143
X02304Y02139
X02297Y02186
X02274Y0239
X02274Y02435
X02086Y02411
X0199Y02411
X01941Y02352
X01898Y0235
X01839Y02242
X01799Y0223
X01776Y02201
X0174Y02197
X01654Y01978
X01579Y0185
Y01776
X01693Y01762
X01594Y01661
X02653Y01887
X02793Y01848
X0285
Y02411
X02791
X01671Y02892
X01465Y0289
X01527Y02276
X01463Y01978
X01384Y01567
T03
X02361Y01349
Y01449
X02461
X02561
Y01349
X02461
T04
X02486Y02061
Y02161
Y02261
Y02361
Y02461
Y02561
T05
X01625Y02843
X01725
X01825
X01925
X02025
X02125
X02225
X01525
T06
X01088Y01275
X02662Y02849
X01088
T07
X01578Y01716
X01636Y01771
X01748Y01603
M30
