%FSLAX23Y23*%
%MOIN*%
G70*
G01*
G75*
G04 Layer_Color=32896*
%ADD10C,0.006*%
%ADD11R,0.031X0.035*%
%ADD12R,0.030X0.033*%
G04:AMPARAMS|DCode=13|XSize=71mil|YSize=94mil|CornerRadius=0mil|HoleSize=0mil|Usage=FLASHONLY|Rotation=225.000|XOffset=0mil|YOffset=0mil|HoleType=Round|Shape=Rectangle|*
%AMROTATEDRECTD13*
4,1,4,-0.008,0.058,0.058,-0.008,0.008,-0.058,-0.058,0.008,-0.008,0.058,0.0*
%
%ADD13ROTATEDRECTD13*%

%ADD14O,0.087X0.024*%
%ADD15R,0.039X0.028*%
G04:AMPARAMS|DCode=16|XSize=22mil|YSize=69mil|CornerRadius=0mil|HoleSize=0mil|Usage=FLASHONLY|Rotation=45.000|XOffset=0mil|YOffset=0mil|HoleType=Round|Shape=Round|*
%AMOVALD16*
21,1,0.047,0.022,0.000,0.000,135.0*
1,1,0.022,0.017,-0.017*
1,1,0.022,-0.017,0.017*
%
%ADD16OVALD16*%

G04:AMPARAMS|DCode=17|XSize=22mil|YSize=69mil|CornerRadius=0mil|HoleSize=0mil|Usage=FLASHONLY|Rotation=135.000|XOffset=0mil|YOffset=0mil|HoleType=Round|Shape=Round|*
%AMOVALD17*
21,1,0.047,0.022,0.000,0.000,225.0*
1,1,0.022,0.017,0.017*
1,1,0.022,-0.017,-0.017*
%
%ADD17OVALD17*%

%ADD18R,0.067X0.031*%
G04:AMPARAMS|DCode=19|XSize=31mil|YSize=67mil|CornerRadius=0mil|HoleSize=0mil|Usage=FLASHONLY|Rotation=315.000|XOffset=0mil|YOffset=0mil|HoleType=Round|Shape=Rectangle|*
%AMROTATEDRECTD19*
4,1,4,-0.035,-0.013,0.013,0.035,0.035,0.013,-0.013,-0.035,-0.035,-0.013,0.0*
%
%ADD19ROTATEDRECTD19*%

%ADD20R,0.033X0.030*%
G04:AMPARAMS|DCode=21|XSize=33mil|YSize=30mil|CornerRadius=0mil|HoleSize=0mil|Usage=FLASHONLY|Rotation=45.000|XOffset=0mil|YOffset=0mil|HoleType=Round|Shape=Rectangle|*
%AMROTATEDRECTD21*
4,1,4,-0.001,-0.022,-0.022,-0.001,0.001,0.022,0.022,0.001,-0.001,-0.022,0.0*
%
%ADD21ROTATEDRECTD21*%

%ADD22R,0.024X0.035*%
%ADD23C,0.031*%
%ADD24R,0.016X0.069*%
G04:AMPARAMS|DCode=25|XSize=35mil|YSize=31mil|CornerRadius=0mil|HoleSize=0mil|Usage=FLASHONLY|Rotation=225.000|XOffset=0mil|YOffset=0mil|HoleType=Round|Shape=Rectangle|*
%AMROTATEDRECTD25*
4,1,4,0.001,0.024,0.024,0.001,-0.001,-0.024,-0.024,-0.001,0.001,0.024,0.0*
%
%ADD25ROTATEDRECTD25*%

%ADD26R,0.035X0.031*%
G04:AMPARAMS|DCode=27|XSize=35mil|YSize=31mil|CornerRadius=0mil|HoleSize=0mil|Usage=FLASHONLY|Rotation=135.000|XOffset=0mil|YOffset=0mil|HoleType=Round|Shape=Rectangle|*
%AMROTATEDRECTD27*
4,1,4,0.024,-0.001,0.001,-0.024,-0.024,0.001,-0.001,0.024,0.024,-0.001,0.0*
%
%ADD27ROTATEDRECTD27*%

%ADD28C,0.006*%
%ADD29C,0.067*%
%ADD30C,0.061*%
%ADD31C,0.157*%
%ADD32C,0.024*%
G04:AMPARAMS|DCode=33|XSize=47mil|YSize=55mil|CornerRadius=12mil|HoleSize=0mil|Usage=FLASHONLY|Rotation=180.000|XOffset=0mil|YOffset=0mil|HoleType=Round|Shape=RoundedRectangle|*
%AMROUNDEDRECTD33*
21,1,0.047,0.031,0,0,180.0*
21,1,0.024,0.055,0,0,180.0*
1,1,0.024,-0.012,0.016*
1,1,0.024,0.012,0.016*
1,1,0.024,0.012,-0.016*
1,1,0.024,-0.012,-0.016*
%
%ADD33ROUNDEDRECTD33*%
%ADD34C,0.063*%
%ADD35C,0.025*%
%ADD36C,0.004*%
%ADD37C,0.010*%
%ADD38C,0.024*%
%ADD39C,0.001*%
%ADD40C,0.002*%
%ADD41C,0.010*%
%ADD42C,0.008*%
%ADD43C,0.006*%
%ADD44C,0.006*%
%ADD45R,0.039X0.043*%
%ADD46R,0.038X0.041*%
G04:AMPARAMS|DCode=47|XSize=79mil|YSize=102mil|CornerRadius=0mil|HoleSize=0mil|Usage=FLASHONLY|Rotation=225.000|XOffset=0mil|YOffset=0mil|HoleType=Round|Shape=Rectangle|*
%AMROTATEDRECTD47*
4,1,4,-0.008,0.064,0.064,-0.008,0.008,-0.064,-0.064,0.008,-0.008,0.064,0.0*
%
%ADD47ROTATEDRECTD47*%

%ADD48O,0.095X0.032*%
%ADD49R,0.047X0.036*%
G04:AMPARAMS|DCode=50|XSize=30mil|YSize=77mil|CornerRadius=0mil|HoleSize=0mil|Usage=FLASHONLY|Rotation=45.000|XOffset=0mil|YOffset=0mil|HoleType=Round|Shape=Round|*
%AMOVALD50*
21,1,0.047,0.030,0.000,0.000,135.0*
1,1,0.030,0.017,-0.017*
1,1,0.030,-0.017,0.017*
%
%ADD50OVALD50*%

G04:AMPARAMS|DCode=51|XSize=30mil|YSize=77mil|CornerRadius=0mil|HoleSize=0mil|Usage=FLASHONLY|Rotation=135.000|XOffset=0mil|YOffset=0mil|HoleType=Round|Shape=Round|*
%AMOVALD51*
21,1,0.047,0.030,0.000,0.000,225.0*
1,1,0.030,0.017,0.017*
1,1,0.030,-0.017,-0.017*
%
%ADD51OVALD51*%

%ADD52R,0.075X0.039*%
G04:AMPARAMS|DCode=53|XSize=39mil|YSize=75mil|CornerRadius=0mil|HoleSize=0mil|Usage=FLASHONLY|Rotation=315.000|XOffset=0mil|YOffset=0mil|HoleType=Round|Shape=Rectangle|*
%AMROTATEDRECTD53*
4,1,4,-0.040,-0.013,0.013,0.040,0.040,0.013,-0.013,-0.040,-0.040,-0.013,0.0*
%
%ADD53ROTATEDRECTD53*%

%ADD54R,0.041X0.038*%
G04:AMPARAMS|DCode=55|XSize=41mil|YSize=38mil|CornerRadius=0mil|HoleSize=0mil|Usage=FLASHONLY|Rotation=45.000|XOffset=0mil|YOffset=0mil|HoleType=Round|Shape=Rectangle|*
%AMROTATEDRECTD55*
4,1,4,-0.001,-0.028,-0.028,-0.001,0.001,0.028,0.028,0.001,-0.001,-0.028,0.0*
%
%ADD55ROTATEDRECTD55*%

%ADD56R,0.032X0.043*%
%ADD57C,0.039*%
%ADD58R,0.024X0.077*%
G04:AMPARAMS|DCode=59|XSize=43mil|YSize=39mil|CornerRadius=0mil|HoleSize=0mil|Usage=FLASHONLY|Rotation=225.000|XOffset=0mil|YOffset=0mil|HoleType=Round|Shape=Rectangle|*
%AMROTATEDRECTD59*
4,1,4,0.001,0.029,0.029,0.001,-0.001,-0.029,-0.029,-0.001,0.001,0.029,0.0*
%
%ADD59ROTATEDRECTD59*%

%ADD60R,0.043X0.039*%
G04:AMPARAMS|DCode=61|XSize=43mil|YSize=39mil|CornerRadius=0mil|HoleSize=0mil|Usage=FLASHONLY|Rotation=135.000|XOffset=0mil|YOffset=0mil|HoleType=Round|Shape=Rectangle|*
%AMROTATEDRECTD61*
4,1,4,0.029,-0.001,0.001,-0.029,-0.029,0.001,-0.001,0.029,0.029,-0.001,0.0*
%
%ADD61ROTATEDRECTD61*%

%ADD62C,0.075*%
%ADD63C,0.069*%
%ADD64C,0.165*%
%ADD65C,0.032*%
%ADD66C,0.008*%
G04:AMPARAMS|DCode=67|XSize=55mil|YSize=63mil|CornerRadius=16mil|HoleSize=0mil|Usage=FLASHONLY|Rotation=180.000|XOffset=0mil|YOffset=0mil|HoleType=Round|Shape=RoundedRectangle|*
%AMROUNDEDRECTD67*
21,1,0.055,0.031,0,0,180.0*
21,1,0.024,0.063,0,0,180.0*
1,1,0.032,-0.012,0.016*
1,1,0.032,0.012,0.016*
1,1,0.032,0.012,-0.016*
1,1,0.032,-0.012,-0.016*
%
%ADD67ROUNDEDRECTD67*%
%ADD68C,0.071*%
%ADD69C,0.033*%
%ADD70C,0.006*%
D41*
X2553Y2006D02*
Y2616D01*
X1148D02*
X2553D01*
X1148Y2006D02*
X2553D01*
X1148D02*
Y2616D01*
D44*
X1012Y1657D02*
Y1677D01*
X1018Y1683D01*
X1025Y1677D01*
Y1663D01*
X1031Y1657D01*
X1038Y1663D01*
Y1683D01*
X1045Y1703D02*
X1038D01*
Y1696D01*
Y1709D01*
Y1703D01*
X1018D01*
X1012Y1709D01*
X1038Y1736D02*
Y1749D01*
X1031Y1755D01*
X1012D01*
Y1736D01*
X1018Y1729D01*
X1025Y1736D01*
Y1755D01*
X999Y1782D02*
Y1788D01*
X1005Y1795D01*
X1038D01*
Y1775D01*
X1031Y1768D01*
X1018D01*
X1012Y1775D01*
Y1795D01*
Y1808D02*
X1038D01*
Y1827D01*
X1031Y1834D01*
X1012D01*
X1038Y1854D02*
Y1867D01*
X1031Y1873D01*
X1012D01*
Y1854D01*
X1018Y1847D01*
X1025Y1854D01*
Y1873D01*
X1045Y1893D02*
X1038D01*
Y1887D01*
Y1900D01*
Y1893D01*
X1018D01*
X1012Y1900D01*
Y1919D02*
Y1932D01*
Y1926D01*
X1038D01*
Y1919D01*
X1012Y1959D02*
Y1972D01*
X1018Y1978D01*
X1031D01*
X1038Y1972D01*
Y1959D01*
X1031Y1952D01*
X1018D01*
X1012Y1959D01*
Y1991D02*
X1038D01*
Y2011D01*
X1031Y2018D01*
X1012D01*
Y2031D02*
Y2044D01*
Y2037D01*
X1051D01*
Y2031D01*
X1038Y2070D02*
Y2083D01*
X1031Y2090D01*
X1012D01*
Y2070D01*
X1018Y2064D01*
X1025Y2070D01*
Y2090D01*
X1051Y2103D02*
X1012D01*
Y2123D01*
X1018Y2129D01*
X1025D01*
X1031D01*
X1038Y2123D01*
Y2103D01*
X1012Y2142D02*
X1018D01*
Y2149D01*
X1012D01*
Y2142D01*
X1038Y2201D02*
Y2182D01*
X1031Y2175D01*
X1018D01*
X1012Y2182D01*
Y2201D01*
Y2221D02*
Y2234D01*
X1018Y2241D01*
X1031D01*
X1038Y2234D01*
Y2221D01*
X1031Y2214D01*
X1018D01*
X1012Y2221D01*
Y2254D02*
X1038D01*
Y2260D01*
X1031Y2267D01*
X1012D01*
X1031D01*
X1038Y2274D01*
X1031Y2280D01*
X1012D01*
X2925Y2720D02*
X2886D01*
Y2700D01*
X2892Y2693D01*
X2906D01*
X2912Y2700D01*
Y2720D01*
X2899Y2680D02*
X2925D01*
X2912D01*
X2906Y2674D01*
X2899Y2667D01*
Y2661D01*
X2925Y2641D02*
Y2628D01*
Y2634D01*
X2899D01*
Y2641D01*
X2925Y2608D02*
Y2595D01*
Y2602D01*
X2899D01*
Y2608D01*
X2892Y2569D02*
X2899D01*
Y2575D01*
Y2562D01*
Y2569D01*
X2919D01*
X2925Y2562D01*
X2886Y2503D02*
X2925D01*
X2912D01*
X2886Y2477D01*
X2906Y2497D01*
X2925Y2477D01*
X2899Y2457D02*
Y2444D01*
X2906Y2438D01*
X2925D01*
Y2457D01*
X2919Y2464D01*
X2912Y2457D01*
Y2438D01*
X2925Y2424D02*
Y2411D01*
Y2418D01*
X2886D01*
Y2424D01*
X2925Y2392D02*
Y2378D01*
Y2385D01*
X2886D01*
Y2392D01*
X2899Y2352D02*
Y2339D01*
X2906Y2333D01*
X2925D01*
Y2352D01*
X2919Y2359D01*
X2912Y2352D01*
Y2333D01*
X2925Y2319D02*
Y2300D01*
X2919Y2293D01*
X2912Y2300D01*
Y2313D01*
X2906Y2319D01*
X2899Y2313D01*
Y2293D01*
X2925Y2221D02*
X2906Y2241D01*
X2886Y2221D01*
X2925Y2201D02*
X2886D01*
X2912D02*
X2899Y2182D01*
X2912Y2201D02*
X2925Y2182D01*
X2899Y2155D02*
Y2142D01*
X2906Y2136D01*
X2925D01*
Y2155D01*
X2919Y2162D01*
X2912Y2155D01*
Y2136D01*
X2925Y2123D02*
Y2110D01*
Y2116D01*
X2886D01*
Y2123D01*
X2925Y2090D02*
Y2077D01*
Y2083D01*
X2886D01*
Y2090D01*
X2899Y2050D02*
Y2037D01*
X2906Y2031D01*
X2925D01*
Y2050D01*
X2919Y2057D01*
X2912Y2050D01*
Y2031D01*
X2925Y2018D02*
Y1998D01*
X2919Y1991D01*
X2912Y1998D01*
Y2011D01*
X2906Y2018D01*
X2899Y2011D01*
Y1991D01*
X2938Y1978D02*
X2899D01*
Y1959D01*
X2906Y1952D01*
X2919D01*
X2925Y1959D01*
Y1978D01*
X2899Y1939D02*
X2925D01*
X2912D01*
X2906Y1932D01*
X2899Y1926D01*
Y1919D01*
X2925Y1900D02*
Y1887D01*
Y1893D01*
X2899D01*
Y1900D01*
X2925Y1867D02*
Y1854D01*
Y1860D01*
X2899D01*
Y1867D01*
X2892Y1827D02*
X2899D01*
Y1834D01*
Y1821D01*
Y1827D01*
X2919D01*
X2925Y1821D01*
X2912Y1782D02*
X2906D01*
Y1788D01*
X2912D01*
Y1782D01*
X2906Y1775D01*
X2892D01*
X2886Y1782D01*
Y1795D01*
X2892Y1801D01*
X2919D01*
X2925Y1795D01*
Y1775D01*
X2938Y1749D02*
Y1742D01*
X2932Y1736D01*
X2899D01*
Y1755D01*
X2906Y1762D01*
X2919D01*
X2925Y1755D01*
Y1736D01*
Y1723D02*
X2899D01*
Y1716D01*
X2906Y1709D01*
X2925D01*
X2906D01*
X2899Y1703D01*
X2906Y1696D01*
X2925D01*
X2899Y1677D02*
Y1663D01*
X2906Y1657D01*
X2925D01*
Y1677D01*
X2919Y1683D01*
X2912Y1677D01*
Y1657D01*
X2925Y1644D02*
Y1631D01*
Y1637D01*
X2899D01*
Y1644D01*
X2925Y1611D02*
Y1598D01*
Y1604D01*
X2886D01*
Y1611D01*
X2925Y1578D02*
X2919D01*
Y1572D01*
X2925D01*
Y1578D01*
X2899Y1519D02*
Y1539D01*
X2906Y1545D01*
X2919D01*
X2925Y1539D01*
Y1519D01*
Y1499D02*
Y1486D01*
X2919Y1480D01*
X2906D01*
X2899Y1486D01*
Y1499D01*
X2906Y1506D01*
X2919D01*
X2925Y1499D01*
Y1467D02*
X2899D01*
Y1460D01*
X2906Y1454D01*
X2925D01*
X2906D01*
X2899Y1447D01*
X2906Y1440D01*
X2925D01*
Y1427D02*
X2906Y1408D01*
X2886Y1427D01*
X2925Y1329D02*
Y1355D01*
X2899Y1329D01*
X2892D01*
X2886Y1336D01*
Y1349D01*
X2892Y1355D01*
Y1316D02*
X2886Y1309D01*
Y1296D01*
X2892Y1290D01*
X2919D01*
X2925Y1296D01*
Y1309D01*
X2919Y1316D01*
X2892D01*
X2925Y1276D02*
Y1263D01*
Y1270D01*
X2886D01*
X2892Y1276D01*
X2886Y1217D02*
Y1244D01*
X2906D01*
X2899Y1231D01*
Y1224D01*
X2906Y1217D01*
X2919D01*
X2925Y1224D01*
Y1237D01*
X2919Y1244D01*
D70*
X2146Y2323D02*
Y2291D01*
X2130D01*
X2124Y2297D01*
Y2302D01*
X2130Y2307D01*
X2146D01*
X2130D01*
X2124Y2313D01*
Y2318D01*
X2130Y2323D01*
X2146D01*
X2114Y2291D02*
X2103D01*
X2108D01*
Y2323D01*
X2114D01*
X2087Y2313D02*
Y2297D01*
X2082Y2291D01*
X2066D01*
Y2313D01*
X2039Y2291D02*
X2050D01*
X2055Y2297D01*
Y2307D01*
X2050Y2313D01*
X2039D01*
X2034Y2307D01*
Y2302D01*
X2055D01*
X2018Y2318D02*
Y2313D01*
X2023D01*
X2012D01*
X2018D01*
Y2297D01*
X2012Y2291D01*
X1991D02*
X1980D01*
X1975Y2297D01*
Y2307D01*
X1980Y2313D01*
X1991D01*
X1996Y2307D01*
Y2297D01*
X1991Y2291D01*
X1959D02*
X1948D01*
X1943Y2297D01*
Y2307D01*
X1948Y2313D01*
X1959D01*
X1964Y2307D01*
Y2297D01*
X1959Y2291D01*
X1927Y2318D02*
Y2313D01*
X1932D01*
X1922D01*
X1927D01*
Y2297D01*
X1922Y2291D01*
X1906Y2323D02*
Y2291D01*
Y2307D01*
X1900Y2313D01*
X1890D01*
X1884Y2307D01*
Y2291D01*
X1842D02*
Y2313D01*
X1836D01*
X1831Y2307D01*
Y2291D01*
Y2307D01*
X1826Y2313D01*
X1820Y2307D01*
Y2291D01*
X1804D02*
X1794D01*
X1788Y2297D01*
Y2307D01*
X1794Y2313D01*
X1804D01*
X1810Y2307D01*
Y2297D01*
X1804Y2291D01*
X1756Y2323D02*
Y2291D01*
X1772D01*
X1778Y2297D01*
Y2307D01*
X1772Y2313D01*
X1756D01*
X1746D02*
Y2297D01*
X1740Y2291D01*
X1724D01*
Y2313D01*
X1714Y2291D02*
X1703D01*
X1708D01*
Y2323D01*
X1714D01*
X1671Y2291D02*
X1682D01*
X1687Y2297D01*
Y2307D01*
X1682Y2313D01*
X1671D01*
X1666Y2307D01*
Y2302D01*
X1687D01*
X2699Y2568D02*
X2705Y2573D01*
X2715D01*
X2721Y2568D01*
Y2563D01*
X2715Y2557D01*
X2705D01*
X2699Y2552D01*
Y2547D01*
X2705Y2541D01*
X2715D01*
X2721Y2547D01*
X2683Y2568D02*
Y2563D01*
X2689D01*
X2678D01*
X2683D01*
Y2547D01*
X2678Y2541D01*
X2657Y2563D02*
X2646D01*
X2641Y2557D01*
Y2541D01*
X2657D01*
X2662Y2547D01*
X2657Y2552D01*
X2641D01*
X2625Y2568D02*
Y2563D01*
X2630D01*
X2619D01*
X2625D01*
Y2547D01*
X2619Y2541D01*
X2587D02*
X2598D01*
X2603Y2547D01*
Y2557D01*
X2598Y2563D01*
X2587D01*
X2582Y2557D01*
Y2552D01*
X2603D01*
X2635Y2443D02*
Y2475D01*
X2619D01*
X2614Y2469D01*
Y2459D01*
X2619Y2453D01*
X2635D01*
X2625D02*
X2614Y2443D01*
X2603Y2475D02*
X2582Y2443D01*
Y2475D02*
X2603Y2443D01*
X2635Y2376D02*
X2614D01*
X2625D01*
Y2344D01*
X2603Y2376D02*
X2582Y2344D01*
Y2376D02*
X2603Y2344D01*
X2646Y2272D02*
X2651Y2277D01*
X2662D01*
X2667Y2272D01*
Y2251D01*
X2662Y2245D01*
X2651D01*
X2646Y2251D01*
Y2261D01*
X2657D01*
X2635Y2245D02*
Y2277D01*
X2614Y2245D01*
Y2277D01*
X2603D02*
Y2245D01*
X2587D01*
X2582Y2251D01*
Y2272D01*
X2587Y2277D01*
X2603D01*
X2667Y2179D02*
Y2157D01*
X2657Y2147D01*
X2646Y2157D01*
Y2179D01*
X2614Y2168D02*
X2630D01*
X2635Y2163D01*
Y2152D01*
X2630Y2147D01*
X2614D01*
X2582Y2168D02*
X2598D01*
X2603Y2163D01*
Y2152D01*
X2598Y2147D01*
X2582D01*
X2667Y2080D02*
Y2048D01*
Y2059D01*
X2646Y2080D01*
X2662Y2064D01*
X2646Y2048D01*
X2619D02*
X2630D01*
X2635Y2053D01*
Y2064D01*
X2630Y2069D01*
X2619D01*
X2614Y2064D01*
Y2059D01*
X2635D01*
X2603Y2069D02*
Y2053D01*
X2598Y2048D01*
X2582D01*
Y2043D01*
X2587Y2037D01*
X2593D01*
X2582Y2048D02*
Y2069D01*
M02*
