%FSLAX23Y23*%
%MOIN*%
G70*
G01*
G75*
G04 Layer_Color=8388736*
%ADD10C,0.006*%
G04:AMPARAMS|DCode=11|XSize=35mil|YSize=31mil|CornerRadius=0mil|HoleSize=0mil|Usage=FLASHONLY|Rotation=315.000|XOffset=0mil|YOffset=0mil|HoleType=Round|Shape=Rectangle|*
%AMROTATEDRECTD11*
4,1,4,-0.024,0.001,-0.001,0.024,0.024,-0.001,0.001,-0.024,-0.024,0.001,0.0*
%
%ADD11ROTATEDRECTD11*%

%ADD12R,0.035X0.031*%
G04:AMPARAMS|DCode=13|XSize=35mil|YSize=31mil|CornerRadius=0mil|HoleSize=0mil|Usage=FLASHONLY|Rotation=225.000|XOffset=0mil|YOffset=0mil|HoleType=Round|Shape=Rectangle|*
%AMROTATEDRECTD13*
4,1,4,0.001,0.024,0.024,0.001,-0.001,-0.024,-0.024,-0.001,0.001,0.024,0.0*
%
%ADD13ROTATEDRECTD13*%

%ADD14R,0.031X0.035*%
%ADD15R,0.039X0.028*%
%ADD16R,0.016X0.069*%
%ADD17C,0.031*%
%ADD18R,0.024X0.035*%
%ADD19R,0.030X0.033*%
%ADD20R,0.033X0.030*%
%ADD21R,0.067X0.031*%
G04:AMPARAMS|DCode=22|XSize=22mil|YSize=69mil|CornerRadius=0mil|HoleSize=0mil|Usage=FLASHONLY|Rotation=135.000|XOffset=0mil|YOffset=0mil|HoleType=Round|Shape=Round|*
%AMOVALD22*
21,1,0.047,0.022,0.000,0.000,225.0*
1,1,0.022,0.017,0.017*
1,1,0.022,-0.017,-0.017*
%
%ADD22OVALD22*%

G04:AMPARAMS|DCode=23|XSize=22mil|YSize=69mil|CornerRadius=0mil|HoleSize=0mil|Usage=FLASHONLY|Rotation=45.000|XOffset=0mil|YOffset=0mil|HoleType=Round|Shape=Round|*
%AMOVALD23*
21,1,0.047,0.022,0.000,0.000,135.0*
1,1,0.022,0.017,-0.017*
1,1,0.022,-0.017,0.017*
%
%ADD23OVALD23*%

%ADD24O,0.087X0.024*%
G04:AMPARAMS|DCode=25|XSize=71mil|YSize=94mil|CornerRadius=0mil|HoleSize=0mil|Usage=FLASHONLY|Rotation=225.000|XOffset=0mil|YOffset=0mil|HoleType=Round|Shape=Rectangle|*
%AMROTATEDRECTD25*
4,1,4,-0.008,0.058,0.058,-0.008,0.008,-0.058,-0.058,0.008,-0.008,0.058,0.0*
%
%ADD25ROTATEDRECTD25*%

%ADD26C,0.006*%
%ADD27C,0.063*%
G04:AMPARAMS|DCode=28|XSize=47mil|YSize=55mil|CornerRadius=12mil|HoleSize=0mil|Usage=FLASHONLY|Rotation=180.000|XOffset=0mil|YOffset=0mil|HoleType=Round|Shape=RoundedRectangle|*
%AMROUNDEDRECTD28*
21,1,0.047,0.031,0,0,180.0*
21,1,0.024,0.055,0,0,180.0*
1,1,0.024,-0.012,0.016*
1,1,0.024,0.012,0.016*
1,1,0.024,0.012,-0.016*
1,1,0.024,-0.012,-0.016*
%
%ADD28ROUNDEDRECTD28*%
%ADD29C,0.024*%
%ADD30C,0.157*%
%ADD31C,0.061*%
%ADD32C,0.067*%
%ADD33C,0.025*%
%ADD34C,0.010*%
%ADD35C,0.024*%
%ADD36C,0.002*%
%ADD37C,0.006*%
%ADD38C,0.010*%
%ADD39C,0.008*%
%ADD40C,0.006*%
G04:AMPARAMS|DCode=41|XSize=43mil|YSize=39mil|CornerRadius=0mil|HoleSize=0mil|Usage=FLASHONLY|Rotation=315.000|XOffset=0mil|YOffset=0mil|HoleType=Round|Shape=Rectangle|*
%AMROTATEDRECTD41*
4,1,4,-0.029,0.001,-0.001,0.029,0.029,-0.001,0.001,-0.029,-0.029,0.001,0.0*
%
%ADD41ROTATEDRECTD41*%

%ADD42R,0.043X0.039*%
G04:AMPARAMS|DCode=43|XSize=43mil|YSize=39mil|CornerRadius=0mil|HoleSize=0mil|Usage=FLASHONLY|Rotation=225.000|XOffset=0mil|YOffset=0mil|HoleType=Round|Shape=Rectangle|*
%AMROTATEDRECTD43*
4,1,4,0.001,0.029,0.029,0.001,-0.001,-0.029,-0.029,-0.001,0.001,0.029,0.0*
%
%ADD43ROTATEDRECTD43*%

%ADD44R,0.039X0.043*%
%ADD45R,0.047X0.036*%
%ADD46R,0.024X0.077*%
%ADD47C,0.039*%
%ADD48R,0.032X0.043*%
%ADD49R,0.038X0.041*%
%ADD50R,0.041X0.038*%
%ADD51R,0.075X0.039*%
G04:AMPARAMS|DCode=52|XSize=30mil|YSize=77mil|CornerRadius=0mil|HoleSize=0mil|Usage=FLASHONLY|Rotation=135.000|XOffset=0mil|YOffset=0mil|HoleType=Round|Shape=Round|*
%AMOVALD52*
21,1,0.047,0.030,0.000,0.000,225.0*
1,1,0.030,0.017,0.017*
1,1,0.030,-0.017,-0.017*
%
%ADD52OVALD52*%

G04:AMPARAMS|DCode=53|XSize=30mil|YSize=77mil|CornerRadius=0mil|HoleSize=0mil|Usage=FLASHONLY|Rotation=45.000|XOffset=0mil|YOffset=0mil|HoleType=Round|Shape=Round|*
%AMOVALD53*
21,1,0.047,0.030,0.000,0.000,135.0*
1,1,0.030,0.017,-0.017*
1,1,0.030,-0.017,0.017*
%
%ADD53OVALD53*%

%ADD54O,0.095X0.032*%
G04:AMPARAMS|DCode=55|XSize=79mil|YSize=102mil|CornerRadius=0mil|HoleSize=0mil|Usage=FLASHONLY|Rotation=225.000|XOffset=0mil|YOffset=0mil|HoleType=Round|Shape=Rectangle|*
%AMROTATEDRECTD55*
4,1,4,-0.008,0.064,0.064,-0.008,0.008,-0.064,-0.064,0.008,-0.008,0.064,0.0*
%
%ADD55ROTATEDRECTD55*%

%ADD56C,0.071*%
G04:AMPARAMS|DCode=57|XSize=55mil|YSize=63mil|CornerRadius=16mil|HoleSize=0mil|Usage=FLASHONLY|Rotation=180.000|XOffset=0mil|YOffset=0mil|HoleType=Round|Shape=RoundedRectangle|*
%AMROUNDEDRECTD57*
21,1,0.055,0.031,0,0,180.0*
21,1,0.024,0.063,0,0,180.0*
1,1,0.032,-0.012,0.016*
1,1,0.032,0.012,0.016*
1,1,0.032,0.012,-0.016*
1,1,0.032,-0.012,-0.016*
%
%ADD57ROUNDEDRECTD57*%
%ADD58C,0.008*%
%ADD59C,0.032*%
%ADD60C,0.165*%
%ADD61C,0.069*%
%ADD62C,0.075*%
D41*
X1693Y2111D02*
D03*
X1653Y2070D02*
D03*
X2347Y1686D02*
D03*
X2307Y1645D02*
D03*
X2232Y1570D02*
D03*
X2272Y1611D02*
D03*
D42*
X1614Y1997D02*
D03*
Y1940D02*
D03*
X2319Y1936D02*
D03*
Y1993D02*
D03*
X2409Y1682D02*
D03*
Y1625D02*
D03*
X1547Y1223D02*
D03*
Y1281D02*
D03*
X1492Y1223D02*
D03*
Y1281D02*
D03*
X1783Y1127D02*
D03*
Y1070D02*
D03*
X1547D02*
D03*
Y1127D02*
D03*
X1492Y1070D02*
D03*
Y1127D02*
D03*
X1783Y1227D02*
D03*
Y1284D02*
D03*
X1331Y2929D02*
D03*
Y2872D02*
D03*
X1063Y1008D02*
D03*
Y1065D02*
D03*
X1276Y2929D02*
D03*
Y2872D02*
D03*
X2874Y1008D02*
D03*
Y1065D02*
D03*
X1220Y2929D02*
D03*
Y2872D02*
D03*
D43*
X1768Y1751D02*
D03*
X1728Y1792D02*
D03*
D44*
X1940Y1531D02*
D03*
X1997D02*
D03*
X1940Y1630D02*
D03*
X1997D02*
D03*
D45*
X1969Y1220D02*
D03*
Y1287D02*
D03*
X1611Y1061D02*
D03*
Y1136D02*
D03*
X1719D02*
D03*
Y1098D02*
D03*
Y1061D02*
D03*
X1611Y1219D02*
D03*
Y1293D02*
D03*
X1719D02*
D03*
Y1256D02*
D03*
Y1219D02*
D03*
D46*
X2020Y1133D02*
D03*
X1994D02*
D03*
X1917D02*
D03*
X1943D02*
D03*
X1969D02*
D03*
D47*
X1695Y1620D02*
D03*
X1659Y1726D02*
D03*
Y1656D02*
D03*
X1695Y1691D02*
D03*
X1731Y1655D02*
D03*
X1624Y1691D02*
D03*
D48*
X1358Y1077D02*
D03*
X1321Y1167D02*
D03*
X1396D02*
D03*
X1358Y1309D02*
D03*
X1396Y1219D02*
D03*
X1321D02*
D03*
D49*
X1940Y1581D02*
D03*
X1997D02*
D03*
X1940Y2315D02*
D03*
X1997D02*
D03*
X2822Y2681D02*
D03*
X2879D02*
D03*
X2822Y2091D02*
D03*
X2879D02*
D03*
X2822Y1498D02*
D03*
X2879D02*
D03*
D50*
X1118Y1065D02*
D03*
Y1008D02*
D03*
X2295Y2843D02*
D03*
Y2900D02*
D03*
X1866Y1221D02*
D03*
Y1279D02*
D03*
X1913Y1221D02*
D03*
Y1279D02*
D03*
X1331Y2818D02*
D03*
Y2761D02*
D03*
X2024Y1221D02*
D03*
Y1279D02*
D03*
X1276Y2818D02*
D03*
Y2761D02*
D03*
X2071Y1221D02*
D03*
Y1279D02*
D03*
X1220Y2818D02*
D03*
Y2761D02*
D03*
X1261Y1094D02*
D03*
Y1151D02*
D03*
X2819Y1065D02*
D03*
Y1008D02*
D03*
D51*
X1087Y2035D02*
D03*
Y1902D02*
D03*
X2850Y2626D02*
D03*
Y2492D02*
D03*
Y2035D02*
D03*
Y1902D02*
D03*
Y1445D02*
D03*
Y1311D02*
D03*
D52*
X1700Y1923D02*
D03*
X1722Y1900D02*
D03*
X1744Y1878D02*
D03*
X1767Y1856D02*
D03*
X1789Y1833D02*
D03*
X1811Y1811D02*
D03*
X1833Y1789D02*
D03*
X1856Y1767D02*
D03*
X1878Y1744D02*
D03*
X1900Y1722D02*
D03*
X1923Y1700D02*
D03*
X2237Y2014D02*
D03*
X2215Y2037D02*
D03*
X2193Y2059D02*
D03*
X2170Y2081D02*
D03*
X2148Y2104D02*
D03*
X2126Y2126D02*
D03*
X2104Y2148D02*
D03*
X2081Y2170D02*
D03*
X2059Y2193D02*
D03*
X2037Y2215D02*
D03*
X2014Y2237D02*
D03*
D53*
Y1700D02*
D03*
X2037Y1722D02*
D03*
X2059Y1744D02*
D03*
X2081Y1767D02*
D03*
X2104Y1789D02*
D03*
X2126Y1811D02*
D03*
X2148Y1833D02*
D03*
X2170Y1856D02*
D03*
X2193Y1878D02*
D03*
X2215Y1900D02*
D03*
X2237Y1923D02*
D03*
X1923Y2237D02*
D03*
X1900Y2215D02*
D03*
X1878Y2193D02*
D03*
X1856Y2170D02*
D03*
X1833Y2148D02*
D03*
X1811Y2126D02*
D03*
X1789Y2104D02*
D03*
X1767Y2081D02*
D03*
X1744Y2059D02*
D03*
X1722Y2037D02*
D03*
X1700Y2014D02*
D03*
D54*
X2677Y1624D02*
D03*
Y1674D02*
D03*
Y1724D02*
D03*
Y1774D02*
D03*
X2488Y1624D02*
D03*
Y1674D02*
D03*
Y1724D02*
D03*
Y1774D02*
D03*
D55*
X2280Y1749D02*
D03*
X2169Y1637D02*
D03*
D56*
X2561Y1449D02*
D03*
X2461D02*
D03*
X2361D02*
D03*
X2561Y1349D02*
D03*
X2461D02*
D03*
X2361D02*
D03*
D57*
X2075Y1024D02*
D03*
X1873Y1141D02*
D03*
X2064D02*
D03*
X1862Y1021D02*
D03*
D58*
X1636Y1771D02*
D03*
X1578Y1716D02*
D03*
X1748Y1603D02*
D03*
D59*
X1563Y1165D02*
D03*
X1567Y1323D02*
D03*
X1358Y1031D02*
D03*
X1866Y1321D02*
D03*
X2071D02*
D03*
X1744Y1375D02*
D03*
D60*
X1088Y1275D02*
D03*
X2662Y2849D02*
D03*
X1088D02*
D03*
D61*
X2225Y2843D02*
D03*
X2125Y2842D02*
D03*
X2025D02*
D03*
X1925D02*
D03*
X1825D02*
D03*
X1725D02*
D03*
X1625D02*
D03*
X1525D02*
D03*
D62*
X2486Y2061D02*
D03*
Y2161D02*
D03*
Y2261D02*
D03*
Y2361D02*
D03*
Y2461D02*
D03*
Y2561D02*
D03*
M02*
