%FSLAX23Y23*%
%MOIN*%
G70*
G01*
G75*
G04 Layer_Physical_Order=2*
G04 Layer_Color=16711680*
%ADD10C,0.006*%
G04:AMPARAMS|DCode=11|XSize=35mil|YSize=31mil|CornerRadius=0mil|HoleSize=0mil|Usage=FLASHONLY|Rotation=315.000|XOffset=0mil|YOffset=0mil|HoleType=Round|Shape=Rectangle|*
%AMROTATEDRECTD11*
4,1,4,-0.024,0.001,-0.001,0.024,0.024,-0.001,0.001,-0.024,-0.024,0.001,0.0*
%
%ADD11ROTATEDRECTD11*%

%ADD12R,0.035X0.031*%
G04:AMPARAMS|DCode=13|XSize=35mil|YSize=31mil|CornerRadius=0mil|HoleSize=0mil|Usage=FLASHONLY|Rotation=225.000|XOffset=0mil|YOffset=0mil|HoleType=Round|Shape=Rectangle|*
%AMROTATEDRECTD13*
4,1,4,0.001,0.024,0.024,0.001,-0.001,-0.024,-0.024,-0.001,0.001,0.024,0.0*
%
%ADD13ROTATEDRECTD13*%

%ADD14R,0.031X0.035*%
%ADD15R,0.039X0.028*%
%ADD16R,0.016X0.069*%
%ADD17C,0.031*%
%ADD18R,0.024X0.035*%
%ADD19R,0.030X0.033*%
%ADD20R,0.033X0.030*%
%ADD21R,0.067X0.031*%
G04:AMPARAMS|DCode=22|XSize=22mil|YSize=69mil|CornerRadius=0mil|HoleSize=0mil|Usage=FLASHONLY|Rotation=135.000|XOffset=0mil|YOffset=0mil|HoleType=Round|Shape=Round|*
%AMOVALD22*
21,1,0.047,0.022,0.000,0.000,225.0*
1,1,0.022,0.017,0.017*
1,1,0.022,-0.017,-0.017*
%
%ADD22OVALD22*%

G04:AMPARAMS|DCode=23|XSize=22mil|YSize=69mil|CornerRadius=0mil|HoleSize=0mil|Usage=FLASHONLY|Rotation=45.000|XOffset=0mil|YOffset=0mil|HoleType=Round|Shape=Round|*
%AMOVALD23*
21,1,0.047,0.022,0.000,0.000,135.0*
1,1,0.022,0.017,-0.017*
1,1,0.022,-0.017,0.017*
%
%ADD23OVALD23*%

%ADD24O,0.087X0.024*%
G04:AMPARAMS|DCode=25|XSize=71mil|YSize=94mil|CornerRadius=0mil|HoleSize=0mil|Usage=FLASHONLY|Rotation=225.000|XOffset=0mil|YOffset=0mil|HoleType=Round|Shape=Rectangle|*
%AMROTATEDRECTD25*
4,1,4,-0.008,0.058,0.058,-0.008,0.008,-0.058,-0.058,0.008,-0.008,0.058,0.0*
%
%ADD25ROTATEDRECTD25*%

%ADD26C,0.006*%
%ADD27C,0.063*%
G04:AMPARAMS|DCode=28|XSize=47mil|YSize=55mil|CornerRadius=12mil|HoleSize=0mil|Usage=FLASHONLY|Rotation=180.000|XOffset=0mil|YOffset=0mil|HoleType=Round|Shape=RoundedRectangle|*
%AMROUNDEDRECTD28*
21,1,0.047,0.031,0,0,180.0*
21,1,0.024,0.055,0,0,180.0*
1,1,0.024,-0.012,0.016*
1,1,0.024,0.012,0.016*
1,1,0.024,0.012,-0.016*
1,1,0.024,-0.012,-0.016*
%
%ADD28ROUNDEDRECTD28*%
%ADD29C,0.024*%
%ADD30C,0.157*%
%ADD31C,0.061*%
%ADD32C,0.067*%
%ADD33C,0.025*%
G36*
X2945Y2941D02*
X2945Y992D01*
X2103D01*
X2101Y997D01*
X2104Y1001D01*
X2105Y1008D01*
Y1021D01*
X2045D01*
Y1008D01*
X2046Y1001D01*
X2049Y997D01*
X2047Y992D01*
X1892Y992D01*
X1890Y997D01*
X1891Y999D01*
X1892Y1006D01*
Y1018D01*
X1832D01*
Y1006D01*
X1833Y999D01*
X1835Y997D01*
X1832Y992D01*
X992D01*
X992Y2945D01*
X2941Y2945D01*
X2945Y2941D01*
D02*
G37*
%LPC*%
G36*
X2579Y1706D02*
X2572Y1704D01*
X2565Y1700D01*
X2561Y1694D01*
X2560Y1687D01*
X2561Y1680D01*
X2565Y1674D01*
X2572Y1670D01*
X2579Y1668D01*
X2584Y1669D01*
X2594Y1658D01*
X2593Y1654D01*
X2595Y1646D01*
X2599Y1640D01*
X2605Y1636D01*
X2612Y1635D01*
X2619Y1636D01*
X2626Y1640D01*
X2630Y1646D01*
X2631Y1654D01*
X2630Y1661D01*
X2626Y1667D01*
X2619Y1671D01*
X2612Y1672D01*
X2607Y1671D01*
X2597Y1682D01*
X2598Y1687D01*
X2596Y1694D01*
X2592Y1700D01*
X2586Y1704D01*
X2579Y1706D01*
D02*
G37*
G36*
X2257Y1654D02*
X2242D01*
X2242Y1650D01*
X2247Y1644D01*
X2253Y1640D01*
X2257Y1639D01*
Y1654D01*
D02*
G37*
G36*
X1178Y1593D02*
X1174Y1592D01*
X1168Y1588D01*
X1164Y1582D01*
X1163Y1578D01*
X1178D01*
Y1593D01*
D02*
G37*
G36*
X1184D02*
Y1578D01*
X1199D01*
X1199Y1582D01*
X1194Y1588D01*
X1188Y1592D01*
X1184Y1593D01*
D02*
G37*
G36*
X1613Y1658D02*
X1597D01*
Y1643D01*
X1602Y1644D01*
X1608Y1648D01*
X1612Y1654D01*
X1613Y1658D01*
D02*
G37*
G36*
X2257Y1676D02*
X2253Y1675D01*
X2247Y1671D01*
X2242Y1665D01*
X2242Y1660D01*
X2257D01*
Y1676D01*
D02*
G37*
G36*
X2278Y1654D02*
X2263D01*
Y1639D01*
X2267Y1640D01*
X2273Y1644D01*
X2277Y1650D01*
X2278Y1654D01*
D02*
G37*
G36*
X1591Y1658D02*
X1576D01*
X1577Y1654D01*
X1581Y1648D01*
X1587Y1644D01*
X1591Y1643D01*
Y1658D01*
D02*
G37*
G36*
X1748Y1629D02*
X1738Y1627D01*
X1729Y1621D01*
X1724Y1612D01*
X1722Y1603D01*
X1724Y1593D01*
X1729Y1584D01*
X1737Y1579D01*
X1736Y1574D01*
X1736Y1574D01*
X1401D01*
X1401Y1574D01*
X1397Y1580D01*
X1391Y1584D01*
X1384Y1586D01*
X1377Y1584D01*
X1371Y1580D01*
X1366Y1574D01*
X1365Y1567D01*
X1366Y1560D01*
X1371Y1554D01*
X1377Y1550D01*
X1384Y1548D01*
X1391Y1550D01*
X1397Y1554D01*
X1399Y1556D01*
X1785D01*
X1788Y1552D01*
X1790Y1550D01*
X1788Y1546D01*
X1783Y1546D01*
X1776Y1545D01*
X1770Y1541D01*
X1766Y1535D01*
X1765Y1528D01*
X1766Y1520D01*
X1770Y1514D01*
X1774Y1511D01*
Y1503D01*
X1769Y1500D01*
X1767Y1502D01*
X1760Y1503D01*
X1753Y1502D01*
X1747Y1498D01*
X1742Y1491D01*
X1741Y1484D01*
X1742Y1477D01*
X1747Y1471D01*
X1753Y1467D01*
X1760Y1465D01*
X1767Y1467D01*
X1769Y1468D01*
X1774Y1466D01*
Y1425D01*
X1774Y1425D01*
X1774Y1335D01*
X1770Y1332D01*
X1766Y1326D01*
X1765Y1319D01*
X1766Y1312D01*
X1770Y1306D01*
X1776Y1301D01*
X1783Y1300D01*
X1791Y1301D01*
X1797Y1306D01*
X1801Y1312D01*
X1802Y1319D01*
X1801Y1326D01*
X1797Y1332D01*
X1793Y1335D01*
X1793Y1425D01*
X1793Y1425D01*
Y1511D01*
X1797Y1514D01*
X1801Y1520D01*
X1802Y1528D01*
X1801Y1535D01*
X1797Y1541D01*
X1795Y1542D01*
X1797Y1547D01*
X1801Y1546D01*
X1808Y1548D01*
X1815Y1552D01*
X1819Y1558D01*
X1820Y1565D01*
X1819Y1572D01*
X1815Y1578D01*
X1808Y1582D01*
X1801Y1584D01*
X1794Y1582D01*
X1788Y1578D01*
X1785Y1574D01*
X1760D01*
X1760Y1574D01*
X1759Y1579D01*
X1766Y1584D01*
X1772Y1593D01*
X1774Y1603D01*
X1772Y1612D01*
X1766Y1621D01*
X1758Y1627D01*
X1748Y1629D01*
D02*
G37*
G36*
X1744Y1393D02*
X1737Y1392D01*
X1731Y1388D01*
X1727Y1382D01*
X1726Y1375D01*
X1727Y1368D01*
X1731Y1362D01*
X1737Y1358D01*
X1744Y1357D01*
X1751Y1358D01*
X1757Y1362D01*
X1761Y1368D01*
X1762Y1375D01*
X1761Y1382D01*
X1757Y1388D01*
X1751Y1392D01*
X1744Y1393D01*
D02*
G37*
G36*
X2358Y1446D02*
X2323D01*
X2324Y1439D01*
X2328Y1430D01*
X2334Y1422D01*
X2342Y1416D01*
X2351Y1412D01*
X2358Y1411D01*
Y1446D01*
D02*
G37*
G36*
X2558Y1386D02*
X2551Y1385D01*
X2542Y1381D01*
X2534Y1375D01*
X2528Y1368D01*
X2524Y1358D01*
X2523Y1352D01*
X2558D01*
Y1386D01*
D02*
G37*
G36*
X2564D02*
Y1352D01*
X2598D01*
X2597Y1358D01*
X2593Y1368D01*
X2587Y1375D01*
X2580Y1381D01*
X2570Y1385D01*
X2564Y1386D01*
D02*
G37*
G36*
X1178Y1572D02*
X1163D01*
X1164Y1568D01*
X1168Y1561D01*
X1174Y1557D01*
X1178Y1557D01*
Y1572D01*
D02*
G37*
G36*
X1199D02*
X1184D01*
Y1557D01*
X1188Y1557D01*
X1194Y1561D01*
X1199Y1568D01*
X1199Y1572D01*
D02*
G37*
G36*
X2358Y1486D02*
X2351Y1485D01*
X2342Y1481D01*
X2334Y1475D01*
X2328Y1468D01*
X2324Y1458D01*
X2323Y1452D01*
X2358D01*
Y1486D01*
D02*
G37*
G36*
X2653Y1906D02*
X2645Y1904D01*
X2639Y1900D01*
X2635Y1894D01*
X2634Y1887D01*
X2635Y1880D01*
X2639Y1873D01*
X2643Y1871D01*
Y1496D01*
X2639Y1493D01*
X2635Y1487D01*
X2634Y1480D01*
X2635Y1473D01*
X2639Y1467D01*
X2645Y1463D01*
X2653Y1461D01*
X2660Y1463D01*
X2666Y1467D01*
X2670Y1473D01*
X2671Y1480D01*
X2670Y1487D01*
X2666Y1493D01*
X2662Y1496D01*
Y1871D01*
X2666Y1873D01*
X2670Y1880D01*
X2671Y1887D01*
X2670Y1894D01*
X2666Y1900D01*
X2660Y1904D01*
X2653Y1906D01*
D02*
G37*
G36*
X1832Y1876D02*
X1816D01*
X1817Y1872D01*
X1821Y1866D01*
X1827Y1862D01*
X1832Y1861D01*
Y1876D01*
D02*
G37*
G36*
X1853D02*
X1838D01*
Y1861D01*
X1842Y1862D01*
X1848Y1866D01*
X1852Y1872D01*
X1853Y1876D01*
D02*
G37*
G36*
X2363Y1794D02*
X2359Y1793D01*
X2353Y1789D01*
X2349Y1783D01*
X2348Y1779D01*
X2363D01*
Y1794D01*
D02*
G37*
G36*
X2369D02*
Y1779D01*
X2384D01*
X2384Y1783D01*
X2379Y1789D01*
X2373Y1793D01*
X2369Y1794D01*
D02*
G37*
G36*
X1832Y1897D02*
X1827Y1897D01*
X1821Y1893D01*
X1817Y1886D01*
X1816Y1882D01*
X1832D01*
Y1897D01*
D02*
G37*
G36*
X1838D02*
Y1882D01*
X1853D01*
X1852Y1886D01*
X1848Y1893D01*
X1842Y1897D01*
X1838Y1897D01*
D02*
G37*
G36*
X2064Y1888D02*
X2060Y1888D01*
X2054Y1883D01*
X2050Y1877D01*
X2049Y1873D01*
X2064D01*
Y1888D01*
D02*
G37*
G36*
X2070D02*
Y1873D01*
X2085D01*
X2084Y1877D01*
X2080Y1883D01*
X2074Y1888D01*
X2070Y1888D01*
D02*
G37*
G36*
X2384Y1773D02*
X2369D01*
Y1757D01*
X2373Y1758D01*
X2379Y1762D01*
X2384Y1768D01*
X2384Y1773D01*
D02*
G37*
G36*
X1597Y1680D02*
Y1664D01*
X1613D01*
X1612Y1669D01*
X1608Y1675D01*
X1602Y1679D01*
X1597Y1680D01*
D02*
G37*
G36*
X2406Y1717D02*
X2391D01*
X2392Y1713D01*
X2396Y1707D01*
X2402Y1703D01*
X2406Y1702D01*
Y1717D01*
D02*
G37*
G36*
X2263Y1676D02*
Y1660D01*
X2278D01*
X2277Y1665D01*
X2273Y1671D01*
X2267Y1675D01*
X2263Y1676D01*
D02*
G37*
G36*
X1591Y1680D02*
X1587Y1679D01*
X1581Y1675D01*
X1577Y1669D01*
X1576Y1664D01*
X1591D01*
Y1680D01*
D02*
G37*
G36*
X2412Y1739D02*
Y1723D01*
X2428D01*
X2427Y1728D01*
X2423Y1734D01*
X2417Y1738D01*
X2412Y1739D01*
D02*
G37*
G36*
X2363Y1773D02*
X2348D01*
X2349Y1768D01*
X2353Y1762D01*
X2359Y1758D01*
X2363Y1757D01*
Y1773D01*
D02*
G37*
G36*
X2428Y1717D02*
X2412D01*
Y1702D01*
X2417Y1703D01*
X2423Y1707D01*
X2427Y1713D01*
X2428Y1717D01*
D02*
G37*
G36*
X2406Y1739D02*
X2402Y1738D01*
X2396Y1734D01*
X2392Y1728D01*
X2391Y1723D01*
X2406D01*
Y1739D01*
D02*
G37*
G36*
X1916Y1327D02*
Y1312D01*
X1932D01*
X1931Y1316D01*
X1927Y1322D01*
X1921Y1326D01*
X1916Y1327D01*
D02*
G37*
G36*
X2061Y1138D02*
X2034D01*
Y1125D01*
X2035Y1118D01*
X2039Y1112D01*
X2045Y1108D01*
X2052Y1107D01*
X2061D01*
Y1138D01*
D02*
G37*
G36*
X2094D02*
X2067D01*
Y1107D01*
X2076D01*
X2083Y1108D01*
X2089Y1112D01*
X2093Y1118D01*
X2094Y1125D01*
Y1138D01*
D02*
G37*
G36*
X1870D02*
X1843D01*
Y1125D01*
X1844Y1118D01*
X1848Y1112D01*
X1854Y1108D01*
X1861Y1107D01*
X1870D01*
Y1138D01*
D02*
G37*
G36*
X1903D02*
X1876D01*
Y1107D01*
X1885D01*
X1892Y1108D01*
X1898Y1112D01*
X1902Y1118D01*
X1903Y1125D01*
Y1138D01*
D02*
G37*
G36*
X2076Y1175D02*
X2067D01*
Y1144D01*
X2094D01*
Y1156D01*
X2093Y1163D01*
X2089Y1169D01*
X2083Y1173D01*
X2076Y1175D01*
D02*
G37*
G36*
X1350Y1208D02*
X1343Y1206D01*
X1337Y1202D01*
X1333Y1196D01*
X1332Y1189D01*
X1333Y1182D01*
X1337Y1176D01*
X1343Y1172D01*
X1350Y1170D01*
X1358Y1172D01*
X1364Y1176D01*
X1365Y1177D01*
X1544D01*
X1546Y1173D01*
X1546Y1172D01*
X1545Y1165D01*
X1546Y1158D01*
X1550Y1153D01*
X1556Y1149D01*
X1563Y1147D01*
X1570Y1149D01*
X1576Y1153D01*
X1580Y1158D01*
X1581Y1165D01*
X1580Y1172D01*
X1580Y1173D01*
X1582Y1177D01*
X1629D01*
X1635Y1171D01*
X1638Y1169D01*
X1642Y1168D01*
X1748D01*
X1750Y1164D01*
X1757Y1160D01*
X1764Y1158D01*
X1771Y1160D01*
X1777Y1164D01*
X1781Y1170D01*
X1783Y1177D01*
X1781Y1184D01*
X1777Y1191D01*
X1771Y1195D01*
X1764Y1196D01*
X1757Y1195D01*
X1750Y1191D01*
X1748Y1186D01*
X1646D01*
X1639Y1193D01*
X1636Y1195D01*
X1633Y1195D01*
X1368D01*
X1368Y1196D01*
X1364Y1202D01*
X1358Y1206D01*
X1350Y1208D01*
D02*
G37*
G36*
X1870Y1175D02*
X1861D01*
X1854Y1173D01*
X1848Y1169D01*
X1844Y1163D01*
X1843Y1156D01*
Y1144D01*
X1870D01*
Y1175D01*
D02*
G37*
G36*
X2061D02*
X2052D01*
X2045Y1173D01*
X2039Y1169D01*
X2035Y1163D01*
X2034Y1156D01*
Y1144D01*
X2061D01*
Y1175D01*
D02*
G37*
G36*
X2087Y1058D02*
X2078D01*
Y1027D01*
X2105D01*
Y1040D01*
X2104Y1047D01*
X2100Y1052D01*
X2094Y1056D01*
X2087Y1058D01*
D02*
G37*
G36*
X1358Y1050D02*
X1351Y1048D01*
X1345Y1044D01*
X1341Y1038D01*
X1340Y1031D01*
X1341Y1025D01*
X1345Y1019D01*
X1351Y1015D01*
X1358Y1013D01*
X1365Y1015D01*
X1371Y1019D01*
X1375Y1025D01*
X1376Y1031D01*
X1375Y1038D01*
X1371Y1044D01*
X1365Y1048D01*
X1358Y1050D01*
D02*
G37*
G36*
X1518Y1038D02*
X1513Y1037D01*
X1507Y1033D01*
X1503Y1027D01*
X1502Y1023D01*
X1518D01*
Y1038D01*
D02*
G37*
G36*
Y1017D02*
X1502D01*
X1503Y1012D01*
X1507Y1006D01*
X1513Y1002D01*
X1518Y1001D01*
Y1017D01*
D02*
G37*
G36*
X1539D02*
X1524D01*
Y1001D01*
X1528Y1002D01*
X1534Y1006D01*
X1538Y1012D01*
X1539Y1017D01*
D02*
G37*
G36*
X1874Y1055D02*
X1865D01*
Y1024D01*
X1892D01*
Y1037D01*
X1891Y1044D01*
X1887Y1050D01*
X1881Y1054D01*
X1874Y1055D01*
D02*
G37*
G36*
X2072Y1058D02*
X2063D01*
X2056Y1056D01*
X2050Y1052D01*
X2046Y1047D01*
X2045Y1040D01*
Y1027D01*
X2072D01*
Y1058D01*
D02*
G37*
G36*
X1524Y1038D02*
Y1023D01*
X1539D01*
X1538Y1027D01*
X1534Y1033D01*
X1528Y1037D01*
X1524Y1038D01*
D02*
G37*
G36*
X1859Y1055D02*
X1850D01*
X1843Y1054D01*
X1837Y1050D01*
X1833Y1044D01*
X1832Y1037D01*
Y1024D01*
X1859D01*
Y1055D01*
D02*
G37*
G36*
X1567Y1341D02*
X1560Y1340D01*
X1554Y1336D01*
X1550Y1330D01*
X1549Y1323D01*
X1550Y1316D01*
X1554Y1310D01*
X1560Y1306D01*
X1567Y1305D01*
X1574Y1306D01*
X1580Y1310D01*
X1584Y1316D01*
X1585Y1323D01*
X1584Y1330D01*
X1580Y1336D01*
X1574Y1340D01*
X1567Y1341D01*
D02*
G37*
G36*
X2361Y1386D02*
X2351Y1385D01*
X2342Y1381D01*
X2334Y1375D01*
X2328Y1368D01*
X2324Y1358D01*
X2323Y1349D01*
X2324Y1339D01*
X2328Y1330D01*
X2334Y1322D01*
X2342Y1316D01*
X2351Y1312D01*
X2361Y1311D01*
X2370Y1312D01*
X2380Y1316D01*
X2387Y1322D01*
X2393Y1330D01*
X2397Y1339D01*
X2398Y1349D01*
X2397Y1358D01*
X2393Y1368D01*
X2387Y1375D01*
X2380Y1381D01*
X2370Y1385D01*
X2361Y1386D01*
D02*
G37*
G36*
X1866Y1339D02*
X1859Y1338D01*
X1853Y1334D01*
X1849Y1328D01*
X1848Y1321D01*
X1849Y1314D01*
X1853Y1308D01*
X1859Y1304D01*
X1866Y1303D01*
X1873Y1304D01*
X1879Y1308D01*
X1883Y1314D01*
X1884Y1321D01*
X1883Y1328D01*
X1879Y1334D01*
X1873Y1338D01*
X1866Y1339D01*
D02*
G37*
G36*
X2071D02*
X2064Y1338D01*
X2058Y1334D01*
X2054Y1328D01*
X2053Y1321D01*
X2054Y1314D01*
X2058Y1308D01*
X2064Y1304D01*
X2071Y1303D01*
X2078Y1304D01*
X2084Y1308D01*
X2088Y1314D01*
X2089Y1321D01*
X2088Y1328D01*
X2084Y1334D01*
X2078Y1338D01*
X2071Y1339D01*
D02*
G37*
G36*
X2598Y1346D02*
X2564D01*
Y1311D01*
X2570Y1312D01*
X2580Y1316D01*
X2587Y1322D01*
X2593Y1330D01*
X2597Y1339D01*
X2598Y1346D01*
D02*
G37*
G36*
X1910Y1327D02*
X1906Y1326D01*
X1900Y1322D01*
X1896Y1316D01*
X1895Y1312D01*
X1910D01*
Y1327D01*
D02*
G37*
G36*
X2461Y1386D02*
X2451Y1385D01*
X2442Y1381D01*
X2434Y1375D01*
X2428Y1368D01*
X2424Y1358D01*
X2423Y1349D01*
X2424Y1339D01*
X2428Y1330D01*
X2434Y1322D01*
X2442Y1316D01*
X2451Y1312D01*
X2461Y1311D01*
X2470Y1312D01*
X2480Y1316D01*
X2487Y1322D01*
X2493Y1330D01*
X2497Y1339D01*
X2498Y1349D01*
X2497Y1358D01*
X2493Y1368D01*
X2487Y1375D01*
X2480Y1381D01*
X2470Y1385D01*
X2461Y1386D01*
D02*
G37*
G36*
X2558Y1346D02*
X2523D01*
X2524Y1339D01*
X2528Y1330D01*
X2534Y1322D01*
X2542Y1316D01*
X2551Y1312D01*
X2558Y1311D01*
Y1346D01*
D02*
G37*
G36*
X1932Y1306D02*
X1916D01*
Y1291D01*
X1921Y1292D01*
X1927Y1296D01*
X1931Y1302D01*
X1932Y1306D01*
D02*
G37*
G36*
X1437Y1219D02*
X1422D01*
X1423Y1215D01*
X1427Y1209D01*
X1433Y1205D01*
X1437Y1204D01*
Y1219D01*
D02*
G37*
G36*
X1458D02*
X1443D01*
Y1204D01*
X1447Y1205D01*
X1453Y1209D01*
X1457Y1215D01*
X1458Y1219D01*
D02*
G37*
G36*
X1088Y1360D02*
X1071Y1358D01*
X1055Y1353D01*
X1040Y1345D01*
X1027Y1335D01*
X1017Y1322D01*
X1009Y1307D01*
X1004Y1291D01*
X1002Y1275D01*
X1004Y1258D01*
X1009Y1242D01*
X1017Y1227D01*
X1027Y1214D01*
X1040Y1204D01*
X1055Y1196D01*
X1071Y1191D01*
X1088Y1189D01*
X1104Y1191D01*
X1120Y1196D01*
X1135Y1204D01*
X1148Y1214D01*
X1158Y1227D01*
X1166Y1242D01*
X1171Y1258D01*
X1173Y1275D01*
X1171Y1291D01*
X1166Y1307D01*
X1158Y1322D01*
X1148Y1335D01*
X1135Y1345D01*
X1120Y1353D01*
X1104Y1358D01*
X1088Y1360D01*
D02*
G37*
G36*
X1954Y1206D02*
X1947Y1204D01*
X1940Y1200D01*
X1938Y1196D01*
X1915D01*
X1912Y1200D01*
X1906Y1204D01*
X1899Y1206D01*
X1891Y1204D01*
X1885Y1200D01*
X1881Y1194D01*
X1880Y1187D01*
X1881Y1180D01*
X1882Y1179D01*
X1879Y1175D01*
X1876D01*
Y1144D01*
X1903D01*
Y1156D01*
X1902Y1163D01*
X1902Y1164D01*
X1904Y1169D01*
X1906Y1170D01*
X1912Y1174D01*
X1915Y1178D01*
X1938D01*
X1940Y1174D01*
X1947Y1170D01*
X1954Y1168D01*
X1961Y1170D01*
X1967Y1174D01*
X1971Y1180D01*
X1973Y1187D01*
X1971Y1194D01*
X1967Y1200D01*
X1961Y1204D01*
X1954Y1206D01*
D02*
G37*
G36*
X1447Y1386D02*
X1440Y1385D01*
X1434Y1380D01*
X1429Y1374D01*
X1428Y1367D01*
X1429Y1360D01*
X1434Y1354D01*
X1438Y1351D01*
Y1296D01*
X1434Y1293D01*
X1429Y1287D01*
X1428Y1280D01*
X1429Y1272D01*
X1434Y1266D01*
X1440Y1262D01*
X1447Y1261D01*
X1454Y1262D01*
X1460Y1266D01*
X1464Y1272D01*
X1466Y1280D01*
X1464Y1287D01*
X1460Y1293D01*
X1456Y1296D01*
Y1351D01*
X1460Y1354D01*
X1464Y1360D01*
X1466Y1367D01*
X1464Y1374D01*
X1460Y1380D01*
X1454Y1385D01*
X1447Y1386D01*
D02*
G37*
G36*
X1910Y1306D02*
X1895D01*
X1896Y1302D01*
X1900Y1296D01*
X1906Y1292D01*
X1910Y1291D01*
Y1306D01*
D02*
G37*
G36*
X1437Y1241D02*
X1433Y1240D01*
X1427Y1236D01*
X1423Y1230D01*
X1422Y1225D01*
X1437D01*
Y1241D01*
D02*
G37*
G36*
X1443D02*
Y1225D01*
X1458D01*
X1457Y1230D01*
X1453Y1236D01*
X1447Y1240D01*
X1443Y1241D01*
D02*
G37*
G36*
X2162Y2556D02*
X2147D01*
X2148Y2552D01*
X2152Y2546D01*
X2158Y2542D01*
X2162Y2541D01*
Y2556D01*
D02*
G37*
G36*
X2184D02*
X2168D01*
Y2541D01*
X2173Y2542D01*
X2179Y2546D01*
X2183Y2552D01*
X2184Y2556D01*
D02*
G37*
G36*
X1867D02*
X1852D01*
X1853Y2552D01*
X1857Y2546D01*
X1863Y2542D01*
X1867Y2541D01*
Y2556D01*
D02*
G37*
G36*
X1888D02*
X1873D01*
Y2541D01*
X1877Y2542D01*
X1883Y2546D01*
X1888Y2552D01*
X1888Y2556D01*
D02*
G37*
G36*
X1572Y2577D02*
X1568Y2576D01*
X1561Y2572D01*
X1557Y2566D01*
X1557Y2562D01*
X1572D01*
Y2577D01*
D02*
G37*
G36*
X1578D02*
Y2562D01*
X1593D01*
X1592Y2566D01*
X1588Y2572D01*
X1582Y2576D01*
X1578Y2577D01*
D02*
G37*
G36*
X2359Y2556D02*
X2344D01*
X2345Y2552D01*
X2349Y2546D01*
X2355Y2542D01*
X2359Y2541D01*
Y2556D01*
D02*
G37*
G36*
X2380D02*
X2365D01*
Y2541D01*
X2369Y2542D01*
X2376Y2546D01*
X2380Y2552D01*
X2380Y2556D01*
D02*
G37*
G36*
X1593D02*
X1578D01*
Y2541D01*
X1582Y2542D01*
X1588Y2546D01*
X1592Y2552D01*
X1593Y2556D01*
D02*
G37*
G36*
X1990Y2430D02*
X1983Y2429D01*
X1977Y2425D01*
X1973Y2419D01*
X1971Y2411D01*
X1973Y2404D01*
X1977Y2398D01*
X1983Y2394D01*
X1990Y2393D01*
X1997Y2394D01*
X2003Y2398D01*
X2006Y2402D01*
X2070D01*
X2073Y2398D01*
X2079Y2394D01*
X2086Y2392D01*
X2093Y2394D01*
X2100Y2398D01*
X2104Y2404D01*
X2105Y2411D01*
X2104Y2418D01*
X2100Y2424D01*
X2093Y2428D01*
X2086Y2430D01*
X2079Y2428D01*
X2073Y2424D01*
X2070Y2420D01*
X2007D01*
X2003Y2425D01*
X1997Y2429D01*
X1990Y2430D01*
D02*
G37*
G36*
X2486Y2501D02*
X2476Y2499D01*
X2466Y2495D01*
X2458Y2489D01*
X2452Y2481D01*
X2448Y2471D01*
X2446Y2461D01*
X2448Y2451D01*
X2452Y2441D01*
X2452Y2440D01*
X2396Y2384D01*
X2394Y2381D01*
X2393Y2377D01*
Y2225D01*
X2388Y2222D01*
X2387Y2223D01*
X2380Y2225D01*
X2375Y2224D01*
X2303Y2296D01*
X2300Y2298D01*
X2296Y2299D01*
X1886D01*
X1883Y2303D01*
X1877Y2307D01*
X1875Y2307D01*
X1873Y2313D01*
X1893Y2333D01*
X1898Y2332D01*
X1905Y2333D01*
X1911Y2337D01*
X1915Y2343D01*
X1916Y2350D01*
X1915Y2358D01*
X1911Y2364D01*
X1905Y2368D01*
X1898Y2369D01*
X1890Y2368D01*
X1884Y2364D01*
X1880Y2358D01*
X1879Y2350D01*
X1880Y2345D01*
X1793Y2258D01*
X1791Y2255D01*
X1790Y2252D01*
Y2246D01*
X1786Y2244D01*
X1782Y2238D01*
X1780Y2230D01*
X1782Y2224D01*
X1781Y2222D01*
X1778Y2219D01*
X1776Y2220D01*
X1768Y2218D01*
X1762Y2214D01*
X1760Y2211D01*
X1403D01*
X1400Y2215D01*
X1394Y2219D01*
X1387Y2221D01*
X1380Y2219D01*
X1373Y2215D01*
X1369Y2209D01*
X1368Y2202D01*
X1369Y2195D01*
X1373Y2188D01*
X1380Y2184D01*
X1387Y2183D01*
X1394Y2184D01*
X1400Y2188D01*
X1403Y2193D01*
X1759D01*
X1762Y2187D01*
X1762Y2187D01*
X1762Y2182D01*
X1757Y2179D01*
X1753Y2173D01*
X1752Y2165D01*
X1753Y2158D01*
X1757Y2152D01*
X1763Y2148D01*
X1771Y2146D01*
X1776Y2148D01*
X1836Y2088D01*
X1835Y2083D01*
X1837Y2075D01*
X1841Y2069D01*
X1847Y2065D01*
X1854Y2064D01*
X1862Y2065D01*
X1868Y2069D01*
X1872Y2075D01*
X1873Y2083D01*
X1873Y2083D01*
X1878Y2086D01*
X1895Y2068D01*
X1898Y2066D01*
X1902Y2066D01*
X1907D01*
X1910Y2061D01*
X1916Y2057D01*
X1921Y2056D01*
X1922Y2051D01*
X1922Y2051D01*
X1919Y2047D01*
X1913D01*
X1909Y2046D01*
X1906Y2044D01*
X1870Y2008D01*
X1868Y2005D01*
X1867Y2001D01*
Y1992D01*
X1864Y1989D01*
X1862Y1986D01*
X1861Y1982D01*
X1862Y1979D01*
X1864Y1976D01*
X1968Y1872D01*
X1965Y1867D01*
X1959Y1866D01*
X1953Y1862D01*
X1949Y1856D01*
X1948Y1848D01*
X1949Y1841D01*
X1953Y1835D01*
X1956Y1833D01*
X1955Y1828D01*
X1941D01*
X1940Y1829D01*
X1939Y1836D01*
X1935Y1842D01*
X1928Y1846D01*
X1921Y1848D01*
X1914Y1846D01*
X1908Y1842D01*
X1905Y1837D01*
X1899Y1836D01*
X1899Y1836D01*
X1893Y1840D01*
X1886Y1842D01*
X1879Y1840D01*
X1872Y1836D01*
X1868Y1830D01*
X1867Y1823D01*
X1868Y1816D01*
X1872Y1809D01*
X1879Y1805D01*
X1886Y1804D01*
X1891Y1805D01*
X1949Y1746D01*
Y1691D01*
X1945Y1689D01*
X1941Y1682D01*
X1940Y1675D01*
X1941Y1668D01*
X1942Y1667D01*
X1939Y1663D01*
X1921D01*
X1896Y1687D01*
X1893Y1689D01*
X1890Y1690D01*
X1857D01*
X1854Y1689D01*
X1851Y1687D01*
X1834Y1670D01*
X1832Y1667D01*
X1831Y1664D01*
Y1643D01*
X1826Y1641D01*
X1711Y1757D01*
X1712Y1762D01*
X1710Y1769D01*
X1706Y1775D01*
X1700Y1779D01*
X1693Y1781D01*
X1686Y1779D01*
X1679Y1775D01*
X1675Y1769D01*
X1674Y1762D01*
X1675Y1757D01*
X1670Y1752D01*
X1660D01*
X1657Y1757D01*
X1660Y1761D01*
X1662Y1771D01*
X1660Y1781D01*
X1654Y1789D01*
X1646Y1795D01*
X1636Y1797D01*
X1626Y1795D01*
X1617Y1789D01*
X1612Y1781D01*
X1610Y1771D01*
X1612Y1761D01*
X1615Y1757D01*
X1612Y1752D01*
X1595D01*
X1593Y1753D01*
X1590Y1753D01*
X1588D01*
X1586Y1758D01*
X1586Y1758D01*
X1592Y1762D01*
X1596Y1768D01*
X1598Y1776D01*
X1596Y1783D01*
X1592Y1789D01*
X1588Y1792D01*
Y1834D01*
X1592Y1837D01*
X1596Y1843D01*
X1598Y1850D01*
X1596Y1858D01*
X1592Y1864D01*
X1586Y1868D01*
X1579Y1869D01*
X1572Y1868D01*
X1565Y1864D01*
X1561Y1858D01*
X1560Y1850D01*
X1561Y1843D01*
X1565Y1837D01*
X1570Y1834D01*
Y1792D01*
X1565Y1789D01*
X1561Y1783D01*
X1560Y1776D01*
X1561Y1768D01*
X1565Y1762D01*
X1571Y1758D01*
X1571Y1758D01*
X1569Y1753D01*
X1566D01*
X1563Y1753D01*
X1562Y1752D01*
X1396D01*
X1395Y1753D01*
X1389Y1758D01*
X1382Y1759D01*
X1375Y1758D01*
X1369Y1753D01*
X1364Y1747D01*
X1363Y1740D01*
X1364Y1733D01*
X1369Y1727D01*
X1375Y1723D01*
X1382Y1721D01*
X1389Y1723D01*
X1395Y1727D01*
X1399Y1733D01*
X1399Y1733D01*
X1554D01*
X1556Y1729D01*
X1554Y1726D01*
X1552Y1716D01*
X1554Y1706D01*
X1560Y1697D01*
X1568Y1692D01*
X1578Y1690D01*
X1588Y1692D01*
X1597Y1697D01*
X1602Y1706D01*
X1604Y1716D01*
X1602Y1726D01*
X1600Y1729D01*
X1602Y1733D01*
X1674D01*
X1677Y1734D01*
X1680Y1736D01*
X1688Y1744D01*
X1693Y1743D01*
X1698Y1744D01*
X1822Y1619D01*
X1821Y1614D01*
X1823Y1607D01*
X1827Y1601D01*
X1833Y1597D01*
X1840Y1595D01*
X1847Y1597D01*
X1852Y1600D01*
X1857Y1598D01*
Y1581D01*
X1858Y1577D01*
X1860Y1574D01*
X1934Y1500D01*
X1932Y1494D01*
X1930Y1494D01*
X1924Y1490D01*
X1920Y1484D01*
X1918Y1476D01*
X1920Y1469D01*
X1924Y1463D01*
X1928Y1460D01*
Y1348D01*
X1929Y1345D01*
X1931Y1342D01*
X1950Y1322D01*
X1950Y1321D01*
X1951Y1314D01*
X1955Y1308D01*
X1961Y1303D01*
X1969Y1302D01*
X1976Y1303D01*
X1982Y1308D01*
X1986Y1314D01*
X1987Y1321D01*
X1986Y1328D01*
X1982Y1334D01*
X1976Y1338D01*
X1969Y1340D01*
X1961Y1338D01*
X1961Y1338D01*
X1946Y1352D01*
Y1460D01*
X1950Y1463D01*
X1954Y1469D01*
X1955Y1472D01*
X1960Y1473D01*
X1966Y1468D01*
X1965Y1463D01*
X1967Y1455D01*
X1971Y1449D01*
X1977Y1445D01*
X1984Y1444D01*
X1991Y1445D01*
X1998Y1449D01*
X2002Y1455D01*
X2003Y1463D01*
X2002Y1470D01*
X1998Y1476D01*
X1991Y1480D01*
X1984Y1481D01*
X1979Y1480D01*
X1875Y1585D01*
Y1643D01*
X1879Y1646D01*
X1884Y1652D01*
X1885Y1659D01*
X1884Y1667D01*
X1883Y1667D01*
X1883Y1668D01*
X1887Y1671D01*
X1911Y1647D01*
X1914Y1645D01*
X1914Y1645D01*
X1917Y1644D01*
X2067D01*
X2070Y1645D01*
X2073Y1647D01*
X2078Y1651D01*
X2083Y1650D01*
X2090Y1652D01*
X2096Y1656D01*
X2100Y1662D01*
X2102Y1669D01*
X2101Y1674D01*
X2104Y1678D01*
X2104Y1678D01*
X2106Y1678D01*
X2111Y1679D01*
X2173Y1617D01*
X2176Y1615D01*
X2176Y1615D01*
X2179Y1615D01*
X2311D01*
X2314Y1610D01*
X2313Y1610D01*
X2312Y1602D01*
X2313Y1595D01*
X2317Y1589D01*
X2323Y1585D01*
X2331Y1584D01*
X2336Y1584D01*
X2376Y1544D01*
X2379Y1542D01*
X2383Y1541D01*
X2395D01*
X2398Y1537D01*
X2404Y1533D01*
X2411Y1531D01*
X2412Y1530D01*
X2413Y1527D01*
X2405Y1518D01*
X2403Y1515D01*
X2402Y1512D01*
Y1458D01*
X2397Y1458D01*
X2397Y1458D01*
X2393Y1468D01*
X2387Y1475D01*
X2380Y1481D01*
X2370Y1485D01*
X2364Y1486D01*
Y1449D01*
Y1411D01*
X2370Y1412D01*
X2380Y1416D01*
X2387Y1422D01*
X2393Y1430D01*
X2397Y1439D01*
X2397Y1439D01*
X2402Y1439D01*
Y1410D01*
X2398Y1407D01*
X2394Y1401D01*
X2393Y1394D01*
X2394Y1386D01*
X2398Y1380D01*
X2404Y1376D01*
X2411Y1375D01*
X2419Y1376D01*
X2425Y1380D01*
X2429Y1386D01*
X2430Y1394D01*
X2429Y1401D01*
X2425Y1407D01*
X2421Y1410D01*
Y1434D01*
X2426Y1435D01*
X2428Y1430D01*
X2434Y1422D01*
X2442Y1416D01*
X2451Y1412D01*
X2461Y1411D01*
X2470Y1412D01*
X2480Y1416D01*
X2487Y1422D01*
X2493Y1430D01*
X2496Y1435D01*
X2501Y1434D01*
Y1417D01*
X2497Y1414D01*
X2492Y1408D01*
X2491Y1401D01*
X2492Y1393D01*
X2497Y1387D01*
X2503Y1383D01*
X2510Y1382D01*
X2517Y1383D01*
X2523Y1387D01*
X2527Y1393D01*
X2529Y1401D01*
X2527Y1408D01*
X2523Y1414D01*
X2519Y1417D01*
Y1439D01*
X2524Y1439D01*
X2524Y1439D01*
X2528Y1430D01*
X2534Y1422D01*
X2542Y1416D01*
X2551Y1412D01*
X2561Y1411D01*
X2570Y1412D01*
X2580Y1416D01*
X2587Y1422D01*
X2593Y1430D01*
X2597Y1439D01*
X2598Y1449D01*
X2597Y1458D01*
X2593Y1468D01*
X2587Y1475D01*
X2580Y1481D01*
X2570Y1485D01*
X2561Y1486D01*
X2551Y1485D01*
X2542Y1481D01*
X2534Y1475D01*
X2528Y1468D01*
X2524Y1458D01*
X2524Y1458D01*
X2519Y1458D01*
Y1541D01*
X2566Y1588D01*
X2571Y1587D01*
X2578Y1589D01*
X2584Y1593D01*
X2588Y1599D01*
X2590Y1606D01*
X2588Y1614D01*
X2584Y1620D01*
X2579Y1623D01*
X2578Y1626D01*
X2579Y1629D01*
X2584Y1632D01*
X2588Y1638D01*
X2590Y1646D01*
X2588Y1653D01*
X2584Y1659D01*
X2578Y1663D01*
X2571Y1665D01*
X2564Y1663D01*
X2558Y1659D01*
X2555Y1655D01*
X2545D01*
X2542Y1654D01*
X2539Y1652D01*
X2435Y1548D01*
X2432Y1550D01*
X2430Y1551D01*
X2429Y1557D01*
X2425Y1564D01*
X2419Y1568D01*
X2411Y1569D01*
X2404Y1568D01*
X2398Y1564D01*
X2395Y1559D01*
X2387D01*
X2349Y1597D01*
X2350Y1602D01*
X2349Y1606D01*
X2353Y1609D01*
X2357Y1606D01*
X2364Y1605D01*
X2371Y1606D01*
X2377Y1610D01*
X2381Y1617D01*
X2383Y1624D01*
X2381Y1631D01*
X2377Y1637D01*
X2371Y1641D01*
X2364Y1643D01*
X2357Y1641D01*
X2351Y1637D01*
X2348Y1633D01*
X2322D01*
X2322Y1633D01*
X2183D01*
X2124Y1692D01*
X2125Y1697D01*
X2124Y1704D01*
X2120Y1710D01*
X2114Y1714D01*
X2106Y1716D01*
X2099Y1714D01*
X2093Y1710D01*
X2089Y1704D01*
X2087Y1697D01*
X2088Y1692D01*
X2085Y1688D01*
X2085Y1688D01*
X2083Y1688D01*
X2075Y1687D01*
X2069Y1683D01*
X2065Y1677D01*
X2064Y1669D01*
X2064Y1667D01*
X2060Y1663D01*
X1978D01*
X1976Y1667D01*
X1976Y1668D01*
X1978Y1675D01*
X1976Y1682D01*
X1972Y1689D01*
X1968Y1691D01*
Y1750D01*
X1967Y1754D01*
X1965Y1756D01*
X1916Y1806D01*
X1918Y1810D01*
X1921Y1810D01*
X1927Y1811D01*
X1928Y1810D01*
X1928Y1810D01*
X1931Y1810D01*
X2212D01*
X2215Y1806D01*
X2221Y1801D01*
X2228Y1800D01*
X2236Y1801D01*
X2242Y1806D01*
X2246Y1812D01*
X2247Y1819D01*
X2247Y1820D01*
X2250Y1824D01*
X2301D01*
X2304Y1819D01*
X2310Y1815D01*
X2317Y1814D01*
X2324Y1815D01*
X2330Y1819D01*
X2334Y1825D01*
X2336Y1833D01*
X2334Y1840D01*
X2330Y1846D01*
X2324Y1850D01*
X2317Y1852D01*
X2310Y1850D01*
X2304Y1846D01*
X2303Y1846D01*
X2299Y1848D01*
X2300Y1854D01*
X2299Y1862D01*
X2295Y1868D01*
X2289Y1872D01*
X2281Y1873D01*
X2274Y1872D01*
X2268Y1868D01*
X2265Y1864D01*
X2088D01*
X2085Y1867D01*
X2048D01*
X2045Y1864D01*
X2002D01*
X1897Y1969D01*
X1899Y1974D01*
X1905Y1975D01*
X1911Y1979D01*
X1914Y1983D01*
X2150D01*
X2151Y1982D01*
X2148Y1977D01*
X2129D01*
X2125Y1976D01*
X2122Y1974D01*
X2108Y1960D01*
X2103Y1961D01*
X2096Y1959D01*
X2090Y1955D01*
X2086Y1949D01*
X2084Y1942D01*
X2086Y1935D01*
X2090Y1929D01*
X2096Y1925D01*
X2103Y1923D01*
X2111Y1925D01*
X2117Y1929D01*
X2121Y1935D01*
X2122Y1942D01*
X2121Y1947D01*
X2133Y1958D01*
X2158D01*
X2158Y1953D01*
X2153Y1952D01*
X2147Y1948D01*
X2143Y1942D01*
X2142Y1935D01*
X2143Y1928D01*
X2147Y1922D01*
X2153Y1917D01*
X2160Y1916D01*
X2168Y1917D01*
X2174Y1922D01*
X2178Y1928D01*
X2179Y1935D01*
X2178Y1940D01*
X2348Y2110D01*
X2393D01*
X2396Y2111D01*
X2399Y2113D01*
X2409Y2122D01*
X2411Y2125D01*
X2411Y2126D01*
X2412Y2129D01*
Y2374D01*
X2465Y2427D01*
X2466Y2427D01*
X2476Y2423D01*
X2486Y2421D01*
X2497Y2423D01*
X2506Y2427D01*
X2514Y2433D01*
X2521Y2441D01*
X2525Y2451D01*
X2526Y2461D01*
X2525Y2471D01*
X2521Y2481D01*
X2514Y2489D01*
X2506Y2495D01*
X2497Y2499D01*
X2486Y2501D01*
D02*
G37*
G36*
X2359Y2380D02*
X2355Y2380D01*
X2349Y2376D01*
X2345Y2369D01*
X2344Y2365D01*
X2359D01*
Y2380D01*
D02*
G37*
G36*
X2365D02*
Y2365D01*
X2380D01*
X2380Y2369D01*
X2376Y2376D01*
X2369Y2380D01*
X2365Y2380D01*
D02*
G37*
G36*
X2486Y2601D02*
X2476Y2599D01*
X2466Y2595D01*
X2458Y2589D01*
X2452Y2581D01*
X2448Y2571D01*
X2446Y2561D01*
X2448Y2551D01*
X2452Y2541D01*
X2458Y2533D01*
X2466Y2527D01*
X2476Y2523D01*
X2486Y2521D01*
X2497Y2523D01*
X2506Y2527D01*
X2514Y2533D01*
X2521Y2541D01*
X2525Y2551D01*
X2526Y2561D01*
X2525Y2571D01*
X2521Y2581D01*
X2514Y2589D01*
X2506Y2595D01*
X2497Y2599D01*
X2486Y2601D01*
D02*
G37*
G36*
X1572Y2556D02*
X1557D01*
X1557Y2552D01*
X1561Y2546D01*
X1568Y2542D01*
X1572Y2541D01*
Y2556D01*
D02*
G37*
G36*
X1925Y2879D02*
X1916Y2878D01*
X1907Y2874D01*
X1899Y2868D01*
X1893Y2861D01*
X1890Y2852D01*
X1888Y2842D01*
X1890Y2833D01*
X1893Y2824D01*
X1899Y2816D01*
X1907Y2811D01*
X1916Y2807D01*
X1916Y2807D01*
Y2468D01*
X1917Y2464D01*
X1919Y2461D01*
X1938Y2442D01*
X1937Y2437D01*
X1938Y2430D01*
X1942Y2424D01*
X1948Y2420D01*
X1956Y2418D01*
X1963Y2420D01*
X1969Y2424D01*
X1973Y2430D01*
X1975Y2437D01*
X1973Y2444D01*
X1969Y2450D01*
X1963Y2454D01*
X1956Y2456D01*
X1951Y2455D01*
X1934Y2472D01*
Y2511D01*
X1939Y2514D01*
X1941Y2513D01*
Y2505D01*
X1941Y2501D01*
X1943Y2498D01*
X1970Y2471D01*
X1969Y2467D01*
X1971Y2459D01*
X1975Y2453D01*
X1981Y2449D01*
X1988Y2448D01*
X1995Y2449D01*
X2002Y2453D01*
X2006Y2459D01*
X2007Y2467D01*
X2006Y2474D01*
X2002Y2480D01*
X1995Y2484D01*
X1988Y2485D01*
X1983Y2484D01*
X1959Y2509D01*
Y2517D01*
X1963Y2520D01*
X1967Y2526D01*
X1969Y2533D01*
X1967Y2541D01*
X1963Y2547D01*
X1957Y2551D01*
X1950Y2552D01*
X1943Y2551D01*
X1939Y2549D01*
X1934Y2551D01*
Y2807D01*
X1934Y2807D01*
X1943Y2811D01*
X1951Y2816D01*
X1957Y2824D01*
X1960Y2833D01*
X1962Y2842D01*
X1960Y2852D01*
X1957Y2861D01*
X1951Y2868D01*
X1943Y2874D01*
X1934Y2878D01*
X1925Y2879D01*
D02*
G37*
G36*
X1488Y2506D02*
X1481Y2505D01*
X1475Y2501D01*
X1472Y2496D01*
X1400D01*
X1397Y2501D01*
X1391Y2505D01*
X1384Y2506D01*
X1377Y2505D01*
X1371Y2501D01*
X1366Y2494D01*
X1365Y2487D01*
X1366Y2480D01*
X1371Y2474D01*
X1376Y2470D01*
X1376Y2468D01*
Y2468D01*
X1376Y2465D01*
X1371Y2461D01*
X1366Y2455D01*
X1365Y2448D01*
X1366Y2441D01*
X1371Y2435D01*
X1377Y2431D01*
X1384Y2429D01*
X1391Y2431D01*
X1397Y2435D01*
X1400Y2439D01*
X1474D01*
X1477Y2434D01*
X1483Y2430D01*
X1490Y2429D01*
X1497Y2430D01*
X1503Y2434D01*
X1508Y2441D01*
X1509Y2448D01*
X1508Y2455D01*
X1503Y2461D01*
X1497Y2465D01*
X1497Y2465D01*
X1497Y2466D01*
X1497Y2471D01*
X1502Y2474D01*
X1506Y2480D01*
X1507Y2487D01*
X1506Y2494D01*
X1502Y2501D01*
X1495Y2505D01*
X1488Y2506D01*
D02*
G37*
G36*
X1867Y2577D02*
X1863Y2576D01*
X1857Y2572D01*
X1853Y2566D01*
X1852Y2562D01*
X1867D01*
Y2577D01*
D02*
G37*
G36*
X2125Y2879D02*
X2116Y2878D01*
X2107Y2874D01*
X2099Y2868D01*
X2093Y2861D01*
X2090Y2852D01*
X2088Y2842D01*
X2090Y2833D01*
X2093Y2824D01*
X2099Y2816D01*
X2107Y2811D01*
X2116Y2807D01*
X2125Y2806D01*
X2134Y2807D01*
X2143Y2811D01*
X2151Y2816D01*
X2157Y2824D01*
X2160Y2833D01*
X2162Y2842D01*
X2160Y2852D01*
X2157Y2861D01*
X2151Y2868D01*
X2143Y2874D01*
X2134Y2878D01*
X2125Y2879D01*
D02*
G37*
G36*
X2225Y2879D02*
X2216Y2878D01*
X2207Y2874D01*
X2199Y2869D01*
X2193Y2861D01*
X2190Y2852D01*
X2188Y2843D01*
X2190Y2833D01*
X2193Y2824D01*
X2199Y2817D01*
X2207Y2811D01*
X2216Y2807D01*
X2225Y2806D01*
X2234Y2807D01*
X2243Y2811D01*
X2251Y2817D01*
X2257Y2824D01*
X2260Y2833D01*
X2262Y2843D01*
X2260Y2852D01*
X2257Y2861D01*
X2251Y2869D01*
X2243Y2874D01*
X2234Y2878D01*
X2225Y2879D01*
D02*
G37*
G36*
X1825Y2879D02*
X1816Y2878D01*
X1807Y2874D01*
X1799Y2868D01*
X1793Y2861D01*
X1790Y2852D01*
X1788Y2842D01*
X1790Y2833D01*
X1793Y2824D01*
X1799Y2816D01*
X1807Y2811D01*
X1816Y2807D01*
X1825Y2806D01*
X1834Y2807D01*
X1843Y2811D01*
X1851Y2816D01*
X1857Y2824D01*
X1860Y2833D01*
X1862Y2842D01*
X1860Y2852D01*
X1857Y2861D01*
X1851Y2868D01*
X1843Y2874D01*
X1834Y2878D01*
X1825Y2879D01*
D02*
G37*
G36*
X2025D02*
X2016Y2878D01*
X2007Y2874D01*
X1999Y2868D01*
X1993Y2861D01*
X1990Y2852D01*
X1988Y2842D01*
X1990Y2833D01*
X1993Y2824D01*
X1999Y2816D01*
X2007Y2811D01*
X2016Y2807D01*
X2025Y2806D01*
X2034Y2807D01*
X2043Y2811D01*
X2051Y2816D01*
X2057Y2824D01*
X2060Y2833D01*
X2062Y2842D01*
X2060Y2852D01*
X2057Y2861D01*
X2051Y2868D01*
X2043Y2874D01*
X2034Y2878D01*
X2025Y2879D01*
D02*
G37*
G36*
X1622Y2879D02*
X1616Y2878D01*
X1607Y2874D01*
X1599Y2868D01*
X1593Y2861D01*
X1590Y2852D01*
X1589Y2845D01*
X1622D01*
Y2879D01*
D02*
G37*
G36*
X1628D02*
Y2845D01*
X1661D01*
X1660Y2852D01*
X1657Y2861D01*
X1651Y2868D01*
X1643Y2874D01*
X1634Y2878D01*
X1628Y2879D01*
D02*
G37*
G36*
X1622Y2839D02*
X1589D01*
X1590Y2833D01*
X1593Y2824D01*
X1599Y2816D01*
X1607Y2811D01*
X1616Y2807D01*
X1622Y2806D01*
Y2839D01*
D02*
G37*
G36*
X1661D02*
X1628D01*
Y2806D01*
X1634Y2807D01*
X1643Y2811D01*
X1651Y2816D01*
X1657Y2824D01*
X1660Y2833D01*
X1661Y2839D01*
D02*
G37*
G36*
X1725Y2879D02*
X1716Y2878D01*
X1707Y2874D01*
X1699Y2868D01*
X1693Y2861D01*
X1690Y2852D01*
X1688Y2842D01*
X1690Y2833D01*
X1693Y2824D01*
X1699Y2816D01*
X1707Y2811D01*
X1716Y2807D01*
X1725Y2806D01*
X1734Y2807D01*
X1743Y2811D01*
X1751Y2816D01*
X1757Y2824D01*
X1760Y2833D01*
X1762Y2842D01*
X1760Y2852D01*
X1757Y2861D01*
X1751Y2868D01*
X1743Y2874D01*
X1734Y2878D01*
X1725Y2879D01*
D02*
G37*
G36*
X2168Y2577D02*
Y2562D01*
X2184D01*
X2183Y2566D01*
X2179Y2572D01*
X2173Y2576D01*
X2168Y2577D01*
D02*
G37*
G36*
X2359D02*
X2355Y2576D01*
X2349Y2572D01*
X2345Y2566D01*
X2344Y2562D01*
X2359D01*
Y2577D01*
D02*
G37*
G36*
X1873D02*
Y2562D01*
X1888D01*
X1888Y2566D01*
X1883Y2572D01*
X1877Y2576D01*
X1873Y2577D01*
D02*
G37*
G36*
X2162D02*
X2158Y2576D01*
X2152Y2572D01*
X2148Y2566D01*
X2147Y2562D01*
X2162D01*
Y2577D01*
D02*
G37*
G36*
X2662Y2935D02*
X2646Y2933D01*
X2630Y2928D01*
X2615Y2920D01*
X2602Y2910D01*
X2592Y2897D01*
X2584Y2882D01*
X2579Y2866D01*
X2577Y2849D01*
X2579Y2833D01*
X2584Y2817D01*
X2592Y2802D01*
X2602Y2789D01*
X2615Y2779D01*
X2630Y2771D01*
X2646Y2766D01*
X2662Y2764D01*
X2679Y2766D01*
X2695Y2771D01*
X2710Y2779D01*
X2723Y2789D01*
X2733Y2802D01*
X2741Y2817D01*
X2746Y2833D01*
X2748Y2849D01*
X2746Y2866D01*
X2741Y2882D01*
X2733Y2897D01*
X2723Y2910D01*
X2710Y2920D01*
X2695Y2928D01*
X2679Y2933D01*
X2662Y2935D01*
D02*
G37*
G36*
X1525Y2879D02*
X1516Y2878D01*
X1507Y2874D01*
X1499Y2868D01*
X1493Y2861D01*
X1490Y2852D01*
X1488Y2842D01*
X1490Y2833D01*
X1493Y2824D01*
X1499Y2816D01*
X1507Y2811D01*
X1516Y2807D01*
X1525Y2806D01*
X1534Y2807D01*
X1543Y2811D01*
X1551Y2816D01*
X1557Y2824D01*
X1560Y2833D01*
X1562Y2842D01*
X1560Y2852D01*
X1557Y2861D01*
X1551Y2868D01*
X1543Y2874D01*
X1534Y2878D01*
X1525Y2879D01*
D02*
G37*
G36*
X2365Y2577D02*
Y2562D01*
X2380D01*
X2380Y2566D01*
X2376Y2572D01*
X2369Y2576D01*
X2365Y2577D01*
D02*
G37*
G36*
X1088Y2935D02*
X1071Y2933D01*
X1055Y2928D01*
X1040Y2920D01*
X1027Y2910D01*
X1017Y2897D01*
X1009Y2882D01*
X1004Y2866D01*
X1002Y2849D01*
X1004Y2833D01*
X1009Y2817D01*
X1017Y2802D01*
X1027Y2789D01*
X1040Y2779D01*
X1055Y2771D01*
X1071Y2766D01*
X1088Y2764D01*
X1104Y2766D01*
X1120Y2771D01*
X1135Y2779D01*
X1148Y2789D01*
X1158Y2802D01*
X1166Y2817D01*
X1171Y2833D01*
X1173Y2849D01*
X1171Y2866D01*
X1166Y2882D01*
X1158Y2897D01*
X1148Y2910D01*
X1135Y2920D01*
X1120Y2928D01*
X1104Y2933D01*
X1088Y2935D01*
D02*
G37*
G36*
X2526Y2258D02*
X2489D01*
Y2222D01*
X2497Y2223D01*
X2506Y2227D01*
X2514Y2233D01*
X2521Y2241D01*
X2525Y2251D01*
X2526Y2258D01*
D02*
G37*
G36*
X2483D02*
X2447D01*
X2448Y2251D01*
X2452Y2241D01*
X2458Y2233D01*
X2466Y2227D01*
X2476Y2223D01*
X2483Y2222D01*
Y2258D01*
D02*
G37*
G36*
X2486Y2201D02*
X2476Y2199D01*
X2466Y2195D01*
X2458Y2189D01*
X2452Y2181D01*
X2448Y2171D01*
X2446Y2161D01*
X2448Y2151D01*
X2452Y2141D01*
X2458Y2133D01*
X2466Y2127D01*
X2476Y2123D01*
X2486Y2121D01*
X2497Y2123D01*
X2506Y2127D01*
X2514Y2133D01*
X2521Y2141D01*
X2525Y2151D01*
X2526Y2161D01*
X2525Y2171D01*
X2521Y2181D01*
X2514Y2189D01*
X2506Y2195D01*
X2497Y2199D01*
X2486Y2201D01*
D02*
G37*
G36*
X2489Y2300D02*
Y2264D01*
X2526D01*
X2525Y2271D01*
X2521Y2281D01*
X2514Y2289D01*
X2506Y2295D01*
X2497Y2299D01*
X2489Y2300D01*
D02*
G37*
G36*
X2483D02*
X2476Y2299D01*
X2466Y2295D01*
X2458Y2289D01*
X2452Y2281D01*
X2448Y2271D01*
X2447Y2264D01*
X2483D01*
Y2300D01*
D02*
G37*
G36*
X1698Y2296D02*
X1691Y2295D01*
X1684Y2291D01*
X1680Y2285D01*
X1679Y2278D01*
X1680Y2273D01*
X1664Y2257D01*
X1659Y2258D01*
X1652Y2257D01*
X1646Y2253D01*
X1642Y2246D01*
X1641Y2239D01*
X1642Y2232D01*
X1646Y2226D01*
X1652Y2222D01*
X1659Y2220D01*
X1667Y2222D01*
X1673Y2226D01*
X1677Y2232D01*
X1678Y2239D01*
X1677Y2244D01*
X1693Y2260D01*
X1698Y2259D01*
X1705Y2260D01*
X1711Y2264D01*
X1715Y2270D01*
X1717Y2278D01*
X1715Y2285D01*
X1711Y2291D01*
X1705Y2295D01*
X1698Y2296D01*
D02*
G37*
G36*
X2286Y1985D02*
X2271D01*
Y1970D01*
X2275Y1971D01*
X2281Y1975D01*
X2285Y1981D01*
X2286Y1985D01*
D02*
G37*
G36*
X2265D02*
X2249D01*
X2250Y1981D01*
X2254Y1975D01*
X2260Y1971D01*
X2265Y1970D01*
Y1985D01*
D02*
G37*
G36*
X1465Y2089D02*
X1457Y2087D01*
X1451Y2083D01*
X1447Y2077D01*
X1446Y2070D01*
X1447Y2063D01*
X1451Y2057D01*
X1457Y2052D01*
X1465Y2051D01*
X1472Y2052D01*
X1478Y2057D01*
X1481Y2061D01*
X1558D01*
X1636Y1983D01*
X1635Y1978D01*
X1636Y1971D01*
X1640Y1965D01*
X1646Y1961D01*
X1654Y1959D01*
X1661Y1961D01*
X1667Y1965D01*
X1671Y1971D01*
X1672Y1978D01*
X1671Y1986D01*
X1667Y1992D01*
X1661Y1996D01*
X1654Y1997D01*
X1649Y1996D01*
X1568Y2076D01*
X1566Y2078D01*
X1562Y2079D01*
X1481D01*
X1478Y2083D01*
X1472Y2087D01*
X1465Y2089D01*
D02*
G37*
G36*
X2486Y2101D02*
X2476Y2099D01*
X2466Y2095D01*
X2458Y2089D01*
X2452Y2081D01*
X2448Y2071D01*
X2446Y2061D01*
X2448Y2051D01*
X2452Y2041D01*
X2458Y2033D01*
X2466Y2027D01*
X2476Y2023D01*
X2486Y2021D01*
X2497Y2023D01*
X2506Y2027D01*
X2514Y2033D01*
X2521Y2041D01*
X2525Y2051D01*
X2526Y2061D01*
X2525Y2071D01*
X2521Y2081D01*
X2514Y2089D01*
X2506Y2095D01*
X2497Y2099D01*
X2486Y2101D01*
D02*
G37*
G36*
X2271Y2006D02*
Y1991D01*
X2286D01*
X2285Y1995D01*
X2281Y2002D01*
X2275Y2006D01*
X2271Y2006D01*
D02*
G37*
G36*
X2265D02*
X2260Y2006D01*
X2254Y2002D01*
X2250Y1995D01*
X2249Y1991D01*
X2265D01*
Y2006D01*
D02*
G37*
G36*
X2486Y2401D02*
X2476Y2399D01*
X2466Y2395D01*
X2458Y2389D01*
X2452Y2381D01*
X2448Y2371D01*
X2446Y2361D01*
X2448Y2351D01*
X2452Y2341D01*
X2458Y2333D01*
X2466Y2327D01*
X2476Y2323D01*
X2486Y2321D01*
X2497Y2323D01*
X2506Y2327D01*
X2514Y2333D01*
X2521Y2341D01*
X2525Y2351D01*
X2526Y2361D01*
X2525Y2371D01*
X2521Y2381D01*
X2514Y2389D01*
X2506Y2395D01*
X2497Y2399D01*
X2486Y2401D01*
D02*
G37*
G36*
X2380Y2359D02*
X2365D01*
Y2344D01*
X2369Y2345D01*
X2376Y2349D01*
X2380Y2355D01*
X2380Y2359D01*
D02*
G37*
G36*
X2359D02*
X2344D01*
X2345Y2355D01*
X2349Y2349D01*
X2355Y2345D01*
X2359Y2344D01*
Y2359D01*
D02*
G37*
G36*
X2184D02*
X2168D01*
Y2344D01*
X2173Y2345D01*
X2179Y2349D01*
X2183Y2355D01*
X2184Y2359D01*
D02*
G37*
G36*
X1966Y2380D02*
X1961Y2380D01*
X1955Y2376D01*
X1951Y2369D01*
X1950Y2365D01*
X1966D01*
Y2380D01*
D02*
G37*
G36*
X2168D02*
Y2365D01*
X2184D01*
X2183Y2369D01*
X2179Y2376D01*
X2173Y2380D01*
X2168Y2380D01*
D02*
G37*
G36*
X2162D02*
X2158Y2380D01*
X2152Y2376D01*
X2148Y2369D01*
X2147Y2365D01*
X2162D01*
Y2380D01*
D02*
G37*
G36*
X1972D02*
Y2365D01*
X1987D01*
X1986Y2369D01*
X1982Y2376D01*
X1976Y2380D01*
X1972Y2380D01*
D02*
G37*
G36*
X2162Y2359D02*
X2147D01*
X2148Y2355D01*
X2152Y2349D01*
X2158Y2345D01*
X2162Y2344D01*
Y2359D01*
D02*
G37*
G36*
X1987D02*
X1972D01*
Y2344D01*
X1976Y2345D01*
X1982Y2349D01*
X1986Y2355D01*
X1987Y2359D01*
D02*
G37*
G36*
X1966D02*
X1950D01*
X1951Y2355D01*
X1955Y2349D01*
X1961Y2345D01*
X1966Y2344D01*
Y2359D01*
D02*
G37*
%LPD*%
G36*
X1852Y2285D02*
X1853Y2282D01*
X1857Y2276D01*
X1863Y2272D01*
X1870Y2271D01*
X1877Y2272D01*
X1883Y2276D01*
X1886Y2280D01*
X2292D01*
X2362Y2211D01*
X2361Y2206D01*
X2362Y2198D01*
X2367Y2192D01*
X2373Y2188D01*
X2380Y2187D01*
X2387Y2188D01*
X2388Y2189D01*
X2393Y2186D01*
Y2155D01*
X2388Y2153D01*
X2386Y2156D01*
X2380Y2160D01*
X2373Y2162D01*
X2366Y2160D01*
X2360Y2156D01*
X2357Y2152D01*
X2351D01*
X2348Y2151D01*
X2345Y2149D01*
X2327Y2131D01*
X2322Y2133D01*
X2323Y2139D01*
X2322Y2146D01*
X2317Y2152D01*
X2311Y2156D01*
X2304Y2158D01*
X2297Y2156D01*
X2291Y2152D01*
X2288Y2148D01*
X2170D01*
X2154Y2165D01*
X2155Y2169D01*
X2156Y2170D01*
X2162Y2174D01*
X2164Y2177D01*
X2281D01*
X2284Y2173D01*
X2290Y2169D01*
X2297Y2167D01*
X2304Y2169D01*
X2311Y2173D01*
X2315Y2179D01*
X2316Y2186D01*
X2315Y2193D01*
X2311Y2199D01*
X2304Y2203D01*
X2297Y2205D01*
X2290Y2203D01*
X2284Y2199D01*
X2281Y2195D01*
X2165D01*
X2162Y2200D01*
X2156Y2204D01*
X2149Y2206D01*
X2146Y2205D01*
X2144Y2208D01*
X2143Y2215D01*
X2138Y2221D01*
X2132Y2225D01*
X2125Y2227D01*
X2118Y2225D01*
X2112Y2221D01*
X2108Y2215D01*
X2106Y2208D01*
X2108Y2201D01*
X2112Y2194D01*
X2118Y2190D01*
X2118Y2190D01*
Y2178D01*
X2119Y2175D01*
X2121Y2172D01*
X2160Y2132D01*
X2163Y2130D01*
X2166Y2130D01*
X2288D01*
X2291Y2125D01*
X2297Y2121D01*
X2304Y2120D01*
X2310Y2121D01*
X2312Y2116D01*
X2193Y1997D01*
X2188Y1999D01*
X2188Y1999D01*
X2184Y2005D01*
X2178Y2010D01*
X2170Y2011D01*
X2163Y2010D01*
X2157Y2005D01*
X2154Y2001D01*
X1914D01*
X1911Y2005D01*
X1905Y2010D01*
X1904Y2010D01*
X1903Y2015D01*
X1915Y2026D01*
X1920Y2026D01*
X1922Y2024D01*
X1928Y2020D01*
X1935Y2019D01*
X1942Y2020D01*
X1948Y2024D01*
X1952Y2030D01*
X1954Y2037D01*
X1952Y2045D01*
X1948Y2051D01*
X1942Y2055D01*
X1937Y2056D01*
X1936Y2061D01*
X1937Y2061D01*
X1941Y2068D01*
X1942Y2075D01*
X1941Y2082D01*
X1937Y2088D01*
X1930Y2092D01*
X1923Y2094D01*
X1916Y2092D01*
X1910Y2088D01*
X1909Y2087D01*
X1903Y2086D01*
X1793Y2196D01*
X1794Y2201D01*
X1793Y2208D01*
X1794Y2209D01*
X1796Y2212D01*
X1799Y2211D01*
X1806Y2213D01*
X1813Y2217D01*
X1817Y2223D01*
X1818Y2230D01*
X1817Y2238D01*
X1813Y2244D01*
X1811Y2244D01*
X1811Y2251D01*
X1847Y2286D01*
X1852Y2285D01*
D02*
G37*
G36*
X1857Y2106D02*
X1855Y2101D01*
X1854Y2102D01*
X1849Y2101D01*
X1789Y2161D01*
X1790Y2165D01*
X1789Y2167D01*
X1794Y2170D01*
X1857Y2106D01*
D02*
G37*
G36*
X1475Y2474D02*
X1481Y2470D01*
X1481Y2470D01*
X1482Y2469D01*
X1482Y2465D01*
X1477Y2461D01*
X1474Y2457D01*
X1400D01*
X1397Y2461D01*
X1392Y2465D01*
X1391Y2468D01*
Y2468D01*
X1392Y2470D01*
X1397Y2474D01*
X1400Y2478D01*
X1472D01*
X1475Y2474D01*
D02*
G37*
G36*
X2558Y1632D02*
X2563Y1629D01*
X2563Y1626D01*
X2563Y1623D01*
X2558Y1620D01*
X2553Y1614D01*
X2552Y1606D01*
X2553Y1601D01*
X2503Y1552D01*
X2501Y1549D01*
X2501Y1545D01*
Y1463D01*
X2496Y1462D01*
X2493Y1468D01*
X2487Y1475D01*
X2480Y1481D01*
X2470Y1485D01*
X2461Y1486D01*
X2451Y1485D01*
X2442Y1481D01*
X2434Y1475D01*
X2428Y1468D01*
X2426Y1462D01*
X2421Y1463D01*
Y1508D01*
X2549Y1636D01*
X2555D01*
X2558Y1632D01*
D02*
G37*
%LPC*%
G36*
X2243Y2274D02*
Y2259D01*
X2258D01*
X2258Y2263D01*
X2253Y2269D01*
X2247Y2273D01*
X2243Y2274D01*
D02*
G37*
G36*
X2237D02*
X2233Y2273D01*
X2227Y2269D01*
X2223Y2263D01*
X2222Y2259D01*
X2237D01*
Y2274D01*
D02*
G37*
G36*
X1869Y2237D02*
X1853D01*
Y2222D01*
X1858Y2223D01*
X1864Y2227D01*
X1868Y2233D01*
X1869Y2237D01*
D02*
G37*
G36*
X2237Y2253D02*
X2222D01*
X2223Y2249D01*
X2227Y2243D01*
X2233Y2238D01*
X2237Y2238D01*
Y2253D01*
D02*
G37*
G36*
X2258D02*
X2243D01*
Y2238D01*
X2247Y2238D01*
X2253Y2243D01*
X2258Y2249D01*
X2258Y2253D01*
D02*
G37*
G36*
X1847Y2237D02*
X1832D01*
X1833Y2233D01*
X1837Y2227D01*
X1843Y2223D01*
X1847Y2222D01*
Y2237D01*
D02*
G37*
G36*
X1853Y2258D02*
Y2243D01*
X1869D01*
X1868Y2247D01*
X1864Y2253D01*
X1858Y2258D01*
X1853Y2258D01*
D02*
G37*
G36*
X1993Y2168D02*
X1950D01*
X1946Y2168D01*
X1943Y2166D01*
X1931Y2153D01*
X1929Y2150D01*
X1929Y2150D01*
X1928Y2150D01*
X1923Y2151D01*
X1916Y2149D01*
X1910Y2145D01*
X1906Y2139D01*
X1904Y2132D01*
X1906Y2125D01*
X1910Y2119D01*
X1916Y2114D01*
X1923Y2113D01*
X1930Y2114D01*
X1937Y2119D01*
X1940Y2124D01*
X1945Y2124D01*
X1946Y2124D01*
X1951Y2120D01*
X1955Y2120D01*
X1957Y2117D01*
Y2111D01*
X1953Y2108D01*
X1949Y2102D01*
X1948Y2094D01*
X1949Y2087D01*
X1953Y2081D01*
X1959Y2077D01*
X1967Y2076D01*
X1969Y2076D01*
X1974Y2072D01*
X1975Y2068D01*
X1979Y2061D01*
X1985Y2057D01*
X1992Y2056D01*
X1999Y2057D01*
X2005Y2061D01*
X2010Y2068D01*
X2011Y2075D01*
X2010Y2082D01*
X2005Y2088D01*
X2001Y2091D01*
Y2114D01*
X2005Y2117D01*
X2006Y2117D01*
X2011Y2118D01*
X2016Y2113D01*
X2015Y2108D01*
X2016Y2101D01*
X2020Y2095D01*
X2026Y2091D01*
X2033Y2089D01*
X2041Y2091D01*
X2047Y2095D01*
X2051Y2101D01*
X2052Y2108D01*
X2051Y2115D01*
X2047Y2122D01*
X2041Y2126D01*
X2033Y2127D01*
X2029Y2126D01*
X2023Y2132D01*
Y2139D01*
X2022Y2142D01*
X2022Y2142D01*
X2020Y2145D01*
X2000Y2166D01*
X1997Y2168D01*
X1993Y2168D01*
D02*
G37*
G36*
X1847Y2258D02*
X1843Y2258D01*
X1837Y2253D01*
X1833Y2247D01*
X1832Y2243D01*
X1847D01*
Y2258D01*
D02*
G37*
%LPD*%
D26*
X1783Y1425D02*
Y1528D01*
X2082Y1854D02*
X2269D01*
X2076Y1849D02*
X2082Y1854D01*
X2058Y1849D02*
X2076D01*
X2052Y1854D02*
X2058Y1849D01*
X1998Y1854D02*
X2052D01*
X1870Y1982D02*
X1998Y1854D01*
X1465Y2070D02*
X1562D01*
X1654Y1978D01*
X2125Y2208D02*
X2127Y2206D01*
X2148Y2186D02*
X2149Y2187D01*
X2125Y2208D02*
X2134D01*
X2127Y2178D02*
Y2206D01*
Y2178D02*
X2166Y2139D01*
X2304D01*
X2148Y2186D02*
X2297D01*
X2510Y1401D02*
Y1545D01*
X2571Y1606D01*
X2160Y1935D02*
X2345Y2119D01*
X2176Y1968D02*
X2351Y2143D01*
X2129Y1968D02*
X2176D01*
X2103Y1942D02*
X2129Y1968D01*
X2345Y2119D02*
X2393D01*
X2351Y2143D02*
X2373D01*
X2393Y2119D02*
X2403Y2129D01*
Y2377D01*
X2486Y2461D01*
X1898Y1992D02*
X2170D01*
X1991Y2411D02*
X2086D01*
X1990Y2411D02*
X1991Y2411D01*
X1937Y1348D02*
X1969Y1317D01*
X2411Y1394D02*
Y1512D01*
X1866Y1581D02*
X1984Y1463D01*
X2383Y1550D02*
X2411D01*
X2331Y1602D02*
X2383Y1550D01*
X2545Y1646D02*
X2571D01*
X2411Y1512D02*
X2545Y1646D01*
X1959Y1675D02*
Y1750D01*
X1353Y1186D02*
X1633D01*
X1693Y1762D02*
X1840Y1614D01*
X1886Y1823D02*
X1959Y1750D01*
X1783Y1319D02*
X1783Y1425D01*
X1642Y1177D02*
X1764D01*
X1633Y1186D02*
X1642Y1177D01*
X1350Y1189D02*
X1353Y1186D01*
X1783Y1528D02*
X1783Y1528D01*
X1579Y1776D02*
Y1850D01*
X1760Y1484D02*
X1783D01*
X1799Y2252D02*
X1898Y2350D01*
X1799Y2230D02*
Y2252D01*
X1967Y2094D02*
Y2121D01*
X1959Y2129D02*
X1967Y2121D01*
X1959Y2129D02*
Y2138D01*
X1992Y2075D02*
Y2130D01*
X2014Y2128D02*
X2033Y2108D01*
X2014Y2128D02*
Y2139D01*
X1993Y2159D02*
X2014Y2139D01*
X1950Y2159D02*
X1993D01*
X1937Y2147D02*
X1950Y2159D01*
X1937Y2146D02*
Y2147D01*
X1924Y2132D02*
X1937Y2146D01*
X1923Y2132D02*
X1924D01*
X1870Y1982D02*
X1876Y1988D01*
Y2001D01*
X1913Y2037D01*
X1935D01*
X1384Y1565D02*
Y1567D01*
Y1565D02*
X1801D01*
X1937Y1348D02*
Y1467D01*
X2245Y1833D02*
X2317D01*
X2237Y1840D02*
X2245Y1833D01*
X2219Y1840D02*
X2237D01*
X2212Y1833D02*
X2219Y1840D01*
X1982Y1833D02*
X2212D01*
X1967Y1848D02*
X1982Y1833D01*
X1899Y1187D02*
X1954D01*
X1447Y1280D02*
Y1367D01*
X2364Y1624D02*
X2364Y1624D01*
X2322Y1624D02*
X2364D01*
X2322Y1624D02*
X2322Y1624D01*
X2179Y1624D02*
X2322D01*
X2106Y1697D02*
X2179Y1624D01*
X1592Y1743D02*
X1674D01*
X1693Y1762D01*
X1866Y1581D02*
Y1659D01*
X1840Y1614D02*
Y1664D01*
X1857Y1681D01*
X1890D01*
X1917Y1654D01*
X2067D01*
X2083Y1669D01*
X1776Y2201D02*
X1902Y2075D01*
X1923D01*
X2579Y1687D02*
X2612Y1654D01*
X2579Y1687D02*
Y1687D01*
X1854Y2083D02*
X1854Y2083D01*
X1931Y1819D02*
X2228D01*
X1921Y1829D02*
X1931Y1819D01*
X2296Y2289D02*
X2380Y2206D01*
X1870Y2289D02*
X2296D01*
X1772Y2165D02*
X1854Y2083D01*
X1771Y2165D02*
X1772D01*
X1384Y2487D02*
X1488D01*
X1384Y2448D02*
X1384Y2448D01*
X1490D01*
X1387Y2202D02*
X1775D01*
X1776Y2201D01*
X1659Y2239D02*
X1698Y2278D01*
X1925Y2468D02*
Y2842D01*
Y2468D02*
X1956Y2437D01*
X1950Y2505D02*
Y2533D01*
Y2505D02*
X1988Y2467D01*
X2653Y1480D02*
Y1887D01*
X1382Y1740D02*
X1384Y1743D01*
X1565D01*
X1566Y1744D01*
X1590D01*
X1592Y1743D01*
D27*
X2561Y1449D02*
D03*
X2461D02*
D03*
X2361D02*
D03*
X2561Y1349D02*
D03*
X2461D02*
D03*
X2361D02*
D03*
D28*
X2075Y1024D02*
D03*
X1873Y1141D02*
D03*
X2064D02*
D03*
X1862Y1021D02*
D03*
D29*
X1563Y1165D02*
D03*
X1567Y1323D02*
D03*
X1358Y1031D02*
D03*
X1866Y1321D02*
D03*
X2071D02*
D03*
X1744Y1375D02*
D03*
D30*
X1088Y1275D02*
D03*
X2662Y2849D02*
D03*
X1088D02*
D03*
D31*
X2225Y2843D02*
D03*
X2125Y2842D02*
D03*
X2025D02*
D03*
X1925D02*
D03*
X1825D02*
D03*
X1725D02*
D03*
X1625D02*
D03*
X1525D02*
D03*
D32*
X2486Y2061D02*
D03*
Y2161D02*
D03*
Y2261D02*
D03*
Y2361D02*
D03*
Y2461D02*
D03*
Y2561D02*
D03*
D33*
X2268Y1988D02*
D03*
X1594Y1661D02*
D03*
X2240Y2256D02*
D03*
X1850Y2240D02*
D03*
X2067Y1870D02*
D03*
X1969Y2362D02*
D03*
X2362D02*
D03*
X2165D02*
D03*
X2362Y2559D02*
D03*
X2165D02*
D03*
X1870D02*
D03*
X1575D02*
D03*
X1181Y1575D02*
D03*
X1465Y2070D02*
D03*
X2125Y2208D02*
D03*
X2149Y2187D02*
D03*
X2304Y2139D02*
D03*
X2653Y1887D02*
D03*
X2510Y1401D02*
D03*
X2160Y1935D02*
D03*
X2103Y1942D02*
D03*
X2373Y2143D02*
D03*
X2297Y2186D02*
D03*
X2086Y2411D02*
D03*
X1866Y1659D02*
D03*
X1984Y1463D02*
D03*
X2411Y1550D02*
D03*
X1835Y1879D02*
D03*
X1654Y1978D02*
D03*
X1959Y1675D02*
D03*
X1840Y1614D02*
D03*
X1693Y1762D02*
D03*
X2260Y1657D02*
D03*
X1954Y1187D02*
D03*
X1899D02*
D03*
X1764Y1177D02*
D03*
X1350Y1189D02*
D03*
X1783Y1319D02*
D03*
X1783Y1528D02*
D03*
X1898Y1992D02*
D03*
X1886Y1823D02*
D03*
X1579Y1850D02*
D03*
Y1776D02*
D03*
X1760Y1484D02*
D03*
X1913Y1309D02*
D03*
X1969Y1321D02*
D03*
X1990Y2411D02*
D03*
X1898Y2350D02*
D03*
X1799Y2230D02*
D03*
X1967Y2094D02*
D03*
X1959Y2138D02*
D03*
X2033Y2108D02*
D03*
X1992Y2130D02*
D03*
Y2075D02*
D03*
X1923Y2132D02*
D03*
X2170Y1992D02*
D03*
X1935Y2037D02*
D03*
X1447Y1280D02*
D03*
X1801Y1565D02*
D03*
X1384Y1567D02*
D03*
X1937Y1476D02*
D03*
X2411Y1394D02*
D03*
X2331Y1602D02*
D03*
X2571Y1646D02*
D03*
Y1606D02*
D03*
X2281Y1854D02*
D03*
X2317Y1833D02*
D03*
X1967Y1848D02*
D03*
X1447Y1367D02*
D03*
X2364Y1624D02*
D03*
X2106Y1697D02*
D03*
X2409Y1720D02*
D03*
X2366Y1776D02*
D03*
X1382Y1740D02*
D03*
X2083Y1669D02*
D03*
X1776Y2201D02*
D03*
X1923Y2075D02*
D03*
X2228Y1819D02*
D03*
X2612Y1654D02*
D03*
X2579Y1687D02*
D03*
X1854Y2083D02*
D03*
X1921Y1829D02*
D03*
X2380Y2206D02*
D03*
X1870Y2289D02*
D03*
X1771Y2165D02*
D03*
X1384Y2448D02*
D03*
X1488Y2487D02*
D03*
X1384D02*
D03*
X1490Y2448D02*
D03*
X1387Y2202D02*
D03*
X1659Y2239D02*
D03*
X1698Y2278D02*
D03*
X1521Y1020D02*
D03*
X1440Y1222D02*
D03*
X1956Y2437D02*
D03*
X1950Y2533D02*
D03*
X1988Y2467D02*
D03*
X2653Y1480D02*
D03*
M02*
