M48
;Layer_Color=9474304
;FILE_FORMAT=2:3
INCH,LZ
;TYPE=PLATED
T1F00S00C0.012
T3F00S00C0.040
T4F00S00C0.041
T5F00S00C0.043
T6F00S00C0.106
;TYPE=NON_PLATED
T7F00S00C0.039
%
T01
X01358Y01031
X0135Y01189
X0144Y01222
X01447Y0128
Y01367
X01521Y0102
X01563Y01165
X01567Y01323
X01783Y01319
X01866Y01321
X01913Y01309
X01969Y01321
X02071Y01321
X01984Y01463
X01937Y01476
X0176Y01484
X01783Y01528
X01744Y01375
X01764Y01177
X01899Y01187
X01954
X02411Y01394
X0251Y01401
X02653Y0148
X02411Y0155
X02364Y01624
X02331Y01602
X0226Y01657
X02083Y01669
X02106Y01697
X01959Y01675
X01866Y01659
X0184Y01614
X01801Y01565
X01594Y01661
X01579Y01776
Y0185
X01654Y01978
X01693Y01762
X01886Y01823
X01921Y01829
X01967Y01848
X02067Y0187
X02103Y01942
X0216Y01935
X0217Y01992
X02268Y01988
X02281Y01854
X02317Y01833
X02228Y01819
X02366Y01776
X02409Y0172
X02579Y01687
X02571Y01646
Y01606
X02612Y01654
X02653Y01887
X02373Y02143
X0238Y02206
X02297Y02186
X02304Y02139
X0224Y02256
X02149Y02187
X02125Y02208
X02033Y02108
X01992Y0213
X01959Y02138
X01923Y02132
Y02075
X01935Y02037
X01898Y01992
X01854Y02083
X01967Y02094
X01992Y02075
X0185Y0224
X01799Y0223
X01776Y02201
X01771Y02165
X01659Y02239
X01698Y02278
X0187Y02289
X01898Y0235
X01969Y02362
X0199Y02411
X01988Y02467
X01956Y02437
X0195Y02533
X0187Y02559
X02165
Y02362
X02086Y02411
X02362Y02362
Y02559
X01575
X01835Y01879
X01465Y0207
X01387Y02202
X01384Y02448
Y02487
X01488
X0149Y02448
X01382Y0174
X01384Y01567
X01181Y01575
T03
X02361Y01349
Y01449
X02461
X02561
Y01349
X02461
T04
X02486Y02061
Y02161
Y02261
Y02361
Y02461
Y02561
T05
X01625Y02842
X01725
X01825
X01925
X02025
X02125
X02225Y02843
X01525Y02842
T06
X01088Y01275
X02662Y02849
X01088
T07
X01578Y01716
X01636Y01771
X01748Y01603
M30
