%FSLAX23Y23*%
%MOIN*%
G70*
G01*
G75*
G04 Layer_Color=8388736*
%ADD10C,0.006*%
G04:AMPARAMS|DCode=11|XSize=71mil|YSize=94mil|CornerRadius=0mil|HoleSize=0mil|Usage=FLASHONLY|Rotation=45.000|XOffset=0mil|YOffset=0mil|HoleType=Round|Shape=Rectangle|*
%AMROTATEDRECTD11*
4,1,4,0.008,-0.058,-0.058,0.008,-0.008,0.058,0.058,-0.008,0.008,-0.058,0.0*
%
%ADD11ROTATEDRECTD11*%

%ADD12O,0.087X0.024*%
%ADD13R,0.039X0.028*%
G04:AMPARAMS|DCode=14|XSize=22mil|YSize=69mil|CornerRadius=0mil|HoleSize=0mil|Usage=FLASHONLY|Rotation=45.000|XOffset=0mil|YOffset=0mil|HoleType=Round|Shape=Round|*
%AMOVALD14*
21,1,0.047,0.022,0.000,0.000,135.0*
1,1,0.022,0.017,-0.017*
1,1,0.022,-0.017,0.017*
%
%ADD14OVALD14*%

G04:AMPARAMS|DCode=15|XSize=22mil|YSize=69mil|CornerRadius=0mil|HoleSize=0mil|Usage=FLASHONLY|Rotation=135.000|XOffset=0mil|YOffset=0mil|HoleType=Round|Shape=Round|*
%AMOVALD15*
21,1,0.047,0.022,0.000,0.000,225.0*
1,1,0.022,0.017,0.017*
1,1,0.022,-0.017,-0.017*
%
%ADD15OVALD15*%

%ADD16R,0.067X0.031*%
%ADD17R,0.033X0.030*%
%ADD18R,0.030X0.033*%
%ADD19R,0.024X0.035*%
%ADD20C,0.031*%
%ADD21R,0.031X0.035*%
%ADD22R,0.016X0.069*%
%ADD23R,0.035X0.031*%
G04:AMPARAMS|DCode=24|XSize=35mil|YSize=31mil|CornerRadius=0mil|HoleSize=0mil|Usage=FLASHONLY|Rotation=135.000|XOffset=0mil|YOffset=0mil|HoleType=Round|Shape=Rectangle|*
%AMROTATEDRECTD24*
4,1,4,0.024,-0.001,0.001,-0.024,-0.024,0.001,-0.001,0.024,0.024,-0.001,0.0*
%
%ADD24ROTATEDRECTD24*%

G04:AMPARAMS|DCode=25|XSize=35mil|YSize=31mil|CornerRadius=0mil|HoleSize=0mil|Usage=FLASHONLY|Rotation=225.000|XOffset=0mil|YOffset=0mil|HoleType=Round|Shape=Rectangle|*
%AMROTATEDRECTD25*
4,1,4,0.001,0.024,0.024,0.001,-0.001,-0.024,-0.024,-0.001,0.001,0.024,0.0*
%
%ADD25ROTATEDRECTD25*%

%ADD26C,0.006*%
%ADD27C,0.067*%
%ADD28C,0.061*%
%ADD29C,0.157*%
%ADD30C,0.024*%
G04:AMPARAMS|DCode=31|XSize=47mil|YSize=55mil|CornerRadius=12mil|HoleSize=0mil|Usage=FLASHONLY|Rotation=0.000|XOffset=0mil|YOffset=0mil|HoleType=Round|Shape=RoundedRectangle|*
%AMROUNDEDRECTD31*
21,1,0.047,0.031,0,0,0.0*
21,1,0.024,0.055,0,0,0.0*
1,1,0.024,0.012,-0.016*
1,1,0.024,-0.012,-0.016*
1,1,0.024,-0.012,0.016*
1,1,0.024,0.012,0.016*
%
%ADD31ROUNDEDRECTD31*%
%ADD32C,0.063*%
%ADD33C,0.025*%
%ADD34C,0.010*%
%ADD35C,0.024*%
%ADD36C,0.010*%
%ADD37C,0.008*%
%ADD38C,0.006*%
%ADD39C,0.002*%
%ADD40C,0.006*%
G04:AMPARAMS|DCode=41|XSize=79mil|YSize=102mil|CornerRadius=0mil|HoleSize=0mil|Usage=FLASHONLY|Rotation=45.000|XOffset=0mil|YOffset=0mil|HoleType=Round|Shape=Rectangle|*
%AMROTATEDRECTD41*
4,1,4,0.008,-0.064,-0.064,0.008,-0.008,0.064,0.064,-0.008,0.008,-0.064,0.0*
%
%ADD41ROTATEDRECTD41*%

%ADD42O,0.095X0.032*%
%ADD43R,0.047X0.036*%
G04:AMPARAMS|DCode=44|XSize=30mil|YSize=77mil|CornerRadius=0mil|HoleSize=0mil|Usage=FLASHONLY|Rotation=45.000|XOffset=0mil|YOffset=0mil|HoleType=Round|Shape=Round|*
%AMOVALD44*
21,1,0.047,0.030,0.000,0.000,135.0*
1,1,0.030,0.017,-0.017*
1,1,0.030,-0.017,0.017*
%
%ADD44OVALD44*%

G04:AMPARAMS|DCode=45|XSize=30mil|YSize=77mil|CornerRadius=0mil|HoleSize=0mil|Usage=FLASHONLY|Rotation=135.000|XOffset=0mil|YOffset=0mil|HoleType=Round|Shape=Round|*
%AMOVALD45*
21,1,0.047,0.030,0.000,0.000,225.0*
1,1,0.030,0.017,0.017*
1,1,0.030,-0.017,-0.017*
%
%ADD45OVALD45*%

%ADD46R,0.075X0.039*%
%ADD47R,0.041X0.038*%
%ADD48R,0.038X0.041*%
%ADD49R,0.032X0.043*%
%ADD50C,0.039*%
%ADD51R,0.039X0.043*%
%ADD52R,0.024X0.077*%
%ADD53R,0.043X0.039*%
G04:AMPARAMS|DCode=54|XSize=43mil|YSize=39mil|CornerRadius=0mil|HoleSize=0mil|Usage=FLASHONLY|Rotation=135.000|XOffset=0mil|YOffset=0mil|HoleType=Round|Shape=Rectangle|*
%AMROTATEDRECTD54*
4,1,4,0.029,-0.001,0.001,-0.029,-0.029,0.001,-0.001,0.029,0.029,-0.001,0.0*
%
%ADD54ROTATEDRECTD54*%

G04:AMPARAMS|DCode=55|XSize=43mil|YSize=39mil|CornerRadius=0mil|HoleSize=0mil|Usage=FLASHONLY|Rotation=225.000|XOffset=0mil|YOffset=0mil|HoleType=Round|Shape=Rectangle|*
%AMROTATEDRECTD55*
4,1,4,0.001,0.029,0.029,0.001,-0.001,-0.029,-0.029,-0.001,0.001,0.029,0.0*
%
%ADD55ROTATEDRECTD55*%

%ADD56C,0.075*%
%ADD57C,0.069*%
%ADD58C,0.165*%
%ADD59C,0.032*%
%ADD60C,0.008*%
G04:AMPARAMS|DCode=61|XSize=55mil|YSize=63mil|CornerRadius=16mil|HoleSize=0mil|Usage=FLASHONLY|Rotation=0.000|XOffset=0mil|YOffset=0mil|HoleType=Round|Shape=RoundedRectangle|*
%AMROUNDEDRECTD61*
21,1,0.055,0.031,0,0,0.0*
21,1,0.024,0.063,0,0,0.0*
1,1,0.032,0.012,-0.016*
1,1,0.032,-0.012,-0.016*
1,1,0.032,-0.012,0.016*
1,1,0.032,0.012,0.016*
%
%ADD61ROUNDEDRECTD61*%
%ADD62C,0.071*%
D41*
X2169Y1637D02*
D03*
X2280Y1749D02*
D03*
D42*
X2488Y1774D02*
D03*
Y1724D02*
D03*
Y1674D02*
D03*
Y1624D02*
D03*
X2677Y1774D02*
D03*
Y1724D02*
D03*
Y1674D02*
D03*
Y1624D02*
D03*
D43*
X1719Y1219D02*
D03*
Y1256D02*
D03*
Y1293D02*
D03*
X1611D02*
D03*
Y1219D02*
D03*
X1719Y1061D02*
D03*
Y1098D02*
D03*
Y1136D02*
D03*
X1611D02*
D03*
Y1061D02*
D03*
X1969Y1287D02*
D03*
Y1220D02*
D03*
D44*
X1700Y2014D02*
D03*
X1722Y2037D02*
D03*
X1744Y2059D02*
D03*
X1767Y2081D02*
D03*
X1789Y2104D02*
D03*
X1811Y2126D02*
D03*
X1833Y2148D02*
D03*
X1856Y2170D02*
D03*
X1878Y2193D02*
D03*
X1900Y2215D02*
D03*
X1923Y2237D02*
D03*
X2237Y1923D02*
D03*
X2215Y1900D02*
D03*
X2193Y1878D02*
D03*
X2170Y1856D02*
D03*
X2148Y1833D02*
D03*
X2126Y1811D02*
D03*
X2104Y1789D02*
D03*
X2081Y1767D02*
D03*
X2059Y1744D02*
D03*
X2037Y1722D02*
D03*
X2014Y1700D02*
D03*
D45*
Y2237D02*
D03*
X2037Y2215D02*
D03*
X2059Y2193D02*
D03*
X2081Y2170D02*
D03*
X2104Y2148D02*
D03*
X2126Y2126D02*
D03*
X2148Y2104D02*
D03*
X2170Y2081D02*
D03*
X2193Y2059D02*
D03*
X2215Y2037D02*
D03*
X2237Y2014D02*
D03*
X1923Y1700D02*
D03*
X1900Y1722D02*
D03*
X1878Y1744D02*
D03*
X1856Y1767D02*
D03*
X1833Y1789D02*
D03*
X1811Y1811D02*
D03*
X1789Y1833D02*
D03*
X1767Y1856D02*
D03*
X1744Y1878D02*
D03*
X1722Y1900D02*
D03*
X1700Y1923D02*
D03*
D46*
X2850Y1311D02*
D03*
Y1445D02*
D03*
Y1902D02*
D03*
Y2035D02*
D03*
Y2492D02*
D03*
Y2626D02*
D03*
X1087Y1902D02*
D03*
Y2035D02*
D03*
D47*
X2819Y1008D02*
D03*
Y1065D02*
D03*
X1261Y1151D02*
D03*
Y1094D02*
D03*
X1220Y2761D02*
D03*
Y2818D02*
D03*
X2071Y1279D02*
D03*
Y1221D02*
D03*
X1276Y2761D02*
D03*
Y2818D02*
D03*
X2024Y1279D02*
D03*
Y1221D02*
D03*
X1331Y2761D02*
D03*
Y2818D02*
D03*
X1913Y1279D02*
D03*
Y1221D02*
D03*
X1866Y1279D02*
D03*
Y1221D02*
D03*
X2314Y2900D02*
D03*
Y2843D02*
D03*
X1118Y1008D02*
D03*
Y1065D02*
D03*
D48*
X2879Y1498D02*
D03*
X2822D02*
D03*
X2879Y2091D02*
D03*
X2822D02*
D03*
X2879Y2681D02*
D03*
X2822D02*
D03*
X1997Y2315D02*
D03*
X1940D02*
D03*
X1997Y1581D02*
D03*
X1940D02*
D03*
D49*
X1321Y1219D02*
D03*
X1396D02*
D03*
X1358Y1309D02*
D03*
X1396Y1167D02*
D03*
X1321D02*
D03*
X1358Y1077D02*
D03*
D50*
X1624Y1691D02*
D03*
X1731Y1655D02*
D03*
X1695Y1691D02*
D03*
X1659Y1656D02*
D03*
Y1726D02*
D03*
X1695Y1620D02*
D03*
D51*
X1997Y1630D02*
D03*
X1940D02*
D03*
X1997Y1531D02*
D03*
X1940D02*
D03*
D52*
X1969Y1133D02*
D03*
X1943D02*
D03*
X1917D02*
D03*
X1994D02*
D03*
X2020D02*
D03*
D53*
X1220Y2872D02*
D03*
Y2929D02*
D03*
X2874Y1065D02*
D03*
Y1008D02*
D03*
X1276Y2872D02*
D03*
Y2929D02*
D03*
X1063Y1065D02*
D03*
Y1008D02*
D03*
X1331Y2872D02*
D03*
Y2929D02*
D03*
X1783Y1284D02*
D03*
Y1227D02*
D03*
X1492Y1127D02*
D03*
Y1070D02*
D03*
X1547Y1127D02*
D03*
Y1070D02*
D03*
X1783D02*
D03*
Y1127D02*
D03*
X1492Y1281D02*
D03*
Y1223D02*
D03*
X1547Y1281D02*
D03*
Y1223D02*
D03*
X2409Y1625D02*
D03*
Y1682D02*
D03*
X2319Y1993D02*
D03*
Y1936D02*
D03*
X1614Y1940D02*
D03*
Y1997D02*
D03*
D54*
X2272Y1611D02*
D03*
X2232Y1570D02*
D03*
X2307Y1645D02*
D03*
X2347Y1686D02*
D03*
X1653Y2070D02*
D03*
X1693Y2111D02*
D03*
D55*
X1728Y1792D02*
D03*
X1768Y1751D02*
D03*
D56*
X2486Y2561D02*
D03*
Y2461D02*
D03*
Y2361D02*
D03*
Y2261D02*
D03*
Y2161D02*
D03*
Y2061D02*
D03*
D57*
X1525Y2842D02*
D03*
X1625D02*
D03*
X1725D02*
D03*
X1825D02*
D03*
X1925D02*
D03*
X2025D02*
D03*
X2125D02*
D03*
X2225Y2843D02*
D03*
D58*
X1088Y2849D02*
D03*
X2662D02*
D03*
X1088Y1275D02*
D03*
D59*
X1744Y1375D02*
D03*
X2071Y1321D02*
D03*
X1866D02*
D03*
X1358Y1031D02*
D03*
X1567Y1323D02*
D03*
X1563Y1165D02*
D03*
D60*
X1748Y1603D02*
D03*
X1578Y1716D02*
D03*
X1636Y1771D02*
D03*
D61*
X1862Y1021D02*
D03*
X2064Y1141D02*
D03*
X1873D02*
D03*
X2075Y1024D02*
D03*
D62*
X2361Y1349D02*
D03*
X2461D02*
D03*
X2561D02*
D03*
X2361Y1449D02*
D03*
X2461D02*
D03*
X2561D02*
D03*
M02*
