%FSLAX23Y23*%
%MOIN*%
G70*
G01*
G75*
G04 Layer_Color=8388736*
%ADD10C,0.006*%
%ADD11R,0.031X0.035*%
%ADD12R,0.030X0.033*%
G04:AMPARAMS|DCode=13|XSize=71mil|YSize=94mil|CornerRadius=0mil|HoleSize=0mil|Usage=FLASHONLY|Rotation=225.000|XOffset=0mil|YOffset=0mil|HoleType=Round|Shape=Rectangle|*
%AMROTATEDRECTD13*
4,1,4,-0.008,0.058,0.058,-0.008,0.008,-0.058,-0.058,0.008,-0.008,0.058,0.0*
%
%ADD13ROTATEDRECTD13*%

%ADD14O,0.087X0.024*%
%ADD15R,0.039X0.028*%
G04:AMPARAMS|DCode=16|XSize=22mil|YSize=69mil|CornerRadius=0mil|HoleSize=0mil|Usage=FLASHONLY|Rotation=45.000|XOffset=0mil|YOffset=0mil|HoleType=Round|Shape=Round|*
%AMOVALD16*
21,1,0.047,0.022,0.000,0.000,135.0*
1,1,0.022,0.017,-0.017*
1,1,0.022,-0.017,0.017*
%
%ADD16OVALD16*%

G04:AMPARAMS|DCode=17|XSize=22mil|YSize=69mil|CornerRadius=0mil|HoleSize=0mil|Usage=FLASHONLY|Rotation=135.000|XOffset=0mil|YOffset=0mil|HoleType=Round|Shape=Round|*
%AMOVALD17*
21,1,0.047,0.022,0.000,0.000,225.0*
1,1,0.022,0.017,0.017*
1,1,0.022,-0.017,-0.017*
%
%ADD17OVALD17*%

%ADD18R,0.067X0.031*%
G04:AMPARAMS|DCode=19|XSize=31mil|YSize=67mil|CornerRadius=0mil|HoleSize=0mil|Usage=FLASHONLY|Rotation=315.000|XOffset=0mil|YOffset=0mil|HoleType=Round|Shape=Rectangle|*
%AMROTATEDRECTD19*
4,1,4,-0.035,-0.013,0.013,0.035,0.035,0.013,-0.013,-0.035,-0.035,-0.013,0.0*
%
%ADD19ROTATEDRECTD19*%

%ADD20R,0.033X0.030*%
G04:AMPARAMS|DCode=21|XSize=33mil|YSize=30mil|CornerRadius=0mil|HoleSize=0mil|Usage=FLASHONLY|Rotation=45.000|XOffset=0mil|YOffset=0mil|HoleType=Round|Shape=Rectangle|*
%AMROTATEDRECTD21*
4,1,4,-0.001,-0.022,-0.022,-0.001,0.001,0.022,0.022,0.001,-0.001,-0.022,0.0*
%
%ADD21ROTATEDRECTD21*%

%ADD22R,0.024X0.035*%
%ADD23C,0.031*%
%ADD24R,0.016X0.069*%
G04:AMPARAMS|DCode=25|XSize=35mil|YSize=31mil|CornerRadius=0mil|HoleSize=0mil|Usage=FLASHONLY|Rotation=225.000|XOffset=0mil|YOffset=0mil|HoleType=Round|Shape=Rectangle|*
%AMROTATEDRECTD25*
4,1,4,0.001,0.024,0.024,0.001,-0.001,-0.024,-0.024,-0.001,0.001,0.024,0.0*
%
%ADD25ROTATEDRECTD25*%

%ADD26R,0.035X0.031*%
G04:AMPARAMS|DCode=27|XSize=35mil|YSize=31mil|CornerRadius=0mil|HoleSize=0mil|Usage=FLASHONLY|Rotation=135.000|XOffset=0mil|YOffset=0mil|HoleType=Round|Shape=Rectangle|*
%AMROTATEDRECTD27*
4,1,4,0.024,-0.001,0.001,-0.024,-0.024,0.001,-0.001,0.024,0.024,-0.001,0.0*
%
%ADD27ROTATEDRECTD27*%

%ADD28C,0.006*%
%ADD29C,0.067*%
%ADD30C,0.061*%
%ADD31C,0.157*%
%ADD32C,0.024*%
G04:AMPARAMS|DCode=33|XSize=47mil|YSize=55mil|CornerRadius=12mil|HoleSize=0mil|Usage=FLASHONLY|Rotation=180.000|XOffset=0mil|YOffset=0mil|HoleType=Round|Shape=RoundedRectangle|*
%AMROUNDEDRECTD33*
21,1,0.047,0.031,0,0,180.0*
21,1,0.024,0.055,0,0,180.0*
1,1,0.024,-0.012,0.016*
1,1,0.024,0.012,0.016*
1,1,0.024,0.012,-0.016*
1,1,0.024,-0.012,-0.016*
%
%ADD33ROUNDEDRECTD33*%
%ADD34C,0.063*%
%ADD35C,0.025*%
%ADD36C,0.004*%
%ADD37C,0.010*%
%ADD38C,0.024*%
%ADD39C,0.001*%
%ADD40C,0.002*%
%ADD41C,0.010*%
%ADD42C,0.008*%
%ADD43C,0.006*%
%ADD44C,0.006*%
%ADD45R,0.039X0.043*%
%ADD46R,0.038X0.041*%
G04:AMPARAMS|DCode=47|XSize=79mil|YSize=102mil|CornerRadius=0mil|HoleSize=0mil|Usage=FLASHONLY|Rotation=225.000|XOffset=0mil|YOffset=0mil|HoleType=Round|Shape=Rectangle|*
%AMROTATEDRECTD47*
4,1,4,-0.008,0.064,0.064,-0.008,0.008,-0.064,-0.064,0.008,-0.008,0.064,0.0*
%
%ADD47ROTATEDRECTD47*%

%ADD48O,0.095X0.032*%
%ADD49R,0.047X0.036*%
G04:AMPARAMS|DCode=50|XSize=30mil|YSize=77mil|CornerRadius=0mil|HoleSize=0mil|Usage=FLASHONLY|Rotation=45.000|XOffset=0mil|YOffset=0mil|HoleType=Round|Shape=Round|*
%AMOVALD50*
21,1,0.047,0.030,0.000,0.000,135.0*
1,1,0.030,0.017,-0.017*
1,1,0.030,-0.017,0.017*
%
%ADD50OVALD50*%

G04:AMPARAMS|DCode=51|XSize=30mil|YSize=77mil|CornerRadius=0mil|HoleSize=0mil|Usage=FLASHONLY|Rotation=135.000|XOffset=0mil|YOffset=0mil|HoleType=Round|Shape=Round|*
%AMOVALD51*
21,1,0.047,0.030,0.000,0.000,225.0*
1,1,0.030,0.017,0.017*
1,1,0.030,-0.017,-0.017*
%
%ADD51OVALD51*%

%ADD52R,0.075X0.039*%
G04:AMPARAMS|DCode=53|XSize=39mil|YSize=75mil|CornerRadius=0mil|HoleSize=0mil|Usage=FLASHONLY|Rotation=315.000|XOffset=0mil|YOffset=0mil|HoleType=Round|Shape=Rectangle|*
%AMROTATEDRECTD53*
4,1,4,-0.040,-0.013,0.013,0.040,0.040,0.013,-0.013,-0.040,-0.040,-0.013,0.0*
%
%ADD53ROTATEDRECTD53*%

%ADD54R,0.041X0.038*%
G04:AMPARAMS|DCode=55|XSize=41mil|YSize=38mil|CornerRadius=0mil|HoleSize=0mil|Usage=FLASHONLY|Rotation=45.000|XOffset=0mil|YOffset=0mil|HoleType=Round|Shape=Rectangle|*
%AMROTATEDRECTD55*
4,1,4,-0.001,-0.028,-0.028,-0.001,0.001,0.028,0.028,0.001,-0.001,-0.028,0.0*
%
%ADD55ROTATEDRECTD55*%

%ADD56R,0.032X0.043*%
%ADD57C,0.039*%
%ADD58R,0.024X0.077*%
G04:AMPARAMS|DCode=59|XSize=43mil|YSize=39mil|CornerRadius=0mil|HoleSize=0mil|Usage=FLASHONLY|Rotation=225.000|XOffset=0mil|YOffset=0mil|HoleType=Round|Shape=Rectangle|*
%AMROTATEDRECTD59*
4,1,4,0.001,0.029,0.029,0.001,-0.001,-0.029,-0.029,-0.001,0.001,0.029,0.0*
%
%ADD59ROTATEDRECTD59*%

%ADD60R,0.043X0.039*%
G04:AMPARAMS|DCode=61|XSize=43mil|YSize=39mil|CornerRadius=0mil|HoleSize=0mil|Usage=FLASHONLY|Rotation=135.000|XOffset=0mil|YOffset=0mil|HoleType=Round|Shape=Rectangle|*
%AMROTATEDRECTD61*
4,1,4,0.029,-0.001,0.001,-0.029,-0.029,0.001,-0.001,0.029,0.029,-0.001,0.0*
%
%ADD61ROTATEDRECTD61*%

%ADD62C,0.075*%
%ADD63C,0.069*%
%ADD64C,0.165*%
%ADD65C,0.032*%
%ADD66C,0.008*%
G04:AMPARAMS|DCode=67|XSize=55mil|YSize=63mil|CornerRadius=16mil|HoleSize=0mil|Usage=FLASHONLY|Rotation=180.000|XOffset=0mil|YOffset=0mil|HoleType=Round|Shape=RoundedRectangle|*
%AMROUNDEDRECTD67*
21,1,0.055,0.031,0,0,180.0*
21,1,0.024,0.063,0,0,180.0*
1,1,0.032,-0.012,0.016*
1,1,0.032,0.012,0.016*
1,1,0.032,0.012,-0.016*
1,1,0.032,-0.012,-0.016*
%
%ADD67ROUNDEDRECTD67*%
%ADD68C,0.071*%
%ADD69C,0.033*%
D45*
X2822Y1038D02*
D03*
X2879D02*
D03*
X1997Y1630D02*
D03*
X1940D02*
D03*
Y1531D02*
D03*
X1997D02*
D03*
D46*
X2879Y1094D02*
D03*
X2822D02*
D03*
X2822Y1498D02*
D03*
X2879D02*
D03*
X2822Y2091D02*
D03*
X2879D02*
D03*
X2822Y2681D02*
D03*
X2879D02*
D03*
X1940Y2315D02*
D03*
X1997D02*
D03*
X1196Y1053D02*
D03*
X1253D02*
D03*
X1940Y1581D02*
D03*
X1997D02*
D03*
X1739Y1386D02*
D03*
X1682D02*
D03*
D47*
X2280Y1749D02*
D03*
X2169Y1637D02*
D03*
D48*
X2488Y1774D02*
D03*
Y1724D02*
D03*
Y1674D02*
D03*
Y1624D02*
D03*
X2677Y1774D02*
D03*
Y1724D02*
D03*
Y1674D02*
D03*
Y1624D02*
D03*
D49*
X1611Y1219D02*
D03*
Y1293D02*
D03*
X1719D02*
D03*
Y1256D02*
D03*
Y1219D02*
D03*
X1611Y1061D02*
D03*
Y1136D02*
D03*
X1719D02*
D03*
Y1098D02*
D03*
Y1061D02*
D03*
X1969Y1220D02*
D03*
Y1287D02*
D03*
D50*
X1700Y2014D02*
D03*
X1722Y2037D02*
D03*
X1744Y2059D02*
D03*
X1767Y2081D02*
D03*
X1789Y2104D02*
D03*
X1811Y2126D02*
D03*
X1833Y2148D02*
D03*
X1856Y2170D02*
D03*
X1878Y2193D02*
D03*
X1900Y2215D02*
D03*
X1923Y2237D02*
D03*
X2237Y1923D02*
D03*
X2215Y1900D02*
D03*
X2193Y1878D02*
D03*
X2170Y1856D02*
D03*
X2148Y1833D02*
D03*
X2126Y1811D02*
D03*
X2104Y1789D02*
D03*
X2081Y1767D02*
D03*
X2059Y1744D02*
D03*
X2037Y1722D02*
D03*
X2014Y1700D02*
D03*
D51*
Y2237D02*
D03*
X2037Y2215D02*
D03*
X2059Y2193D02*
D03*
X2081Y2170D02*
D03*
X2104Y2148D02*
D03*
X2126Y2126D02*
D03*
X2148Y2104D02*
D03*
X2170Y2081D02*
D03*
X2193Y2059D02*
D03*
X2215Y2037D02*
D03*
X2237Y2014D02*
D03*
X1923Y1700D02*
D03*
X1900Y1722D02*
D03*
X1878Y1744D02*
D03*
X1856Y1767D02*
D03*
X1833Y1789D02*
D03*
X1811Y1811D02*
D03*
X1789Y1833D02*
D03*
X1767Y1856D02*
D03*
X1744Y1878D02*
D03*
X1722Y1900D02*
D03*
X1700Y1923D02*
D03*
D52*
X2850Y1445D02*
D03*
Y1311D02*
D03*
Y2035D02*
D03*
Y1902D02*
D03*
Y2626D02*
D03*
Y2492D02*
D03*
D53*
X2069Y1591D02*
D03*
X2163Y1496D02*
D03*
D54*
X1252Y1105D02*
D03*
Y1162D02*
D03*
X2071Y1221D02*
D03*
Y1279D02*
D03*
X2024Y1221D02*
D03*
Y1279D02*
D03*
X1913Y1221D02*
D03*
Y1279D02*
D03*
X1866Y1221D02*
D03*
Y1279D02*
D03*
X1413Y2847D02*
D03*
Y2790D02*
D03*
D55*
X1633Y2225D02*
D03*
X1674Y2185D02*
D03*
X1673Y2264D02*
D03*
X1713Y2224D02*
D03*
X1712Y2304D02*
D03*
X1752Y2263D02*
D03*
D56*
X1358Y1309D02*
D03*
X1396Y1219D02*
D03*
X1321D02*
D03*
X1358Y1077D02*
D03*
X1321Y1167D02*
D03*
X1396D02*
D03*
D57*
X1695Y1620D02*
D03*
X1659Y1726D02*
D03*
Y1656D02*
D03*
X1695Y1691D02*
D03*
X1731Y1655D02*
D03*
X1624Y1691D02*
D03*
D58*
X2020Y1133D02*
D03*
X1994D02*
D03*
X1917D02*
D03*
X1943D02*
D03*
X1969D02*
D03*
D59*
X1555Y2304D02*
D03*
X1595Y2263D02*
D03*
X1594Y2343D02*
D03*
X1634Y2303D02*
D03*
X1633Y2382D02*
D03*
X1674Y2342D02*
D03*
X1728Y1792D02*
D03*
X1768Y1751D02*
D03*
D60*
X1142Y1110D02*
D03*
Y1053D02*
D03*
X1783Y1284D02*
D03*
Y1227D02*
D03*
X1492Y1070D02*
D03*
Y1127D02*
D03*
X1547D02*
D03*
Y1070D02*
D03*
X1783D02*
D03*
Y1127D02*
D03*
X1492Y1223D02*
D03*
Y1281D02*
D03*
X1547D02*
D03*
Y1223D02*
D03*
X2409Y1625D02*
D03*
Y1682D02*
D03*
X2319Y1993D02*
D03*
Y1936D02*
D03*
X1614Y1997D02*
D03*
Y1940D02*
D03*
D61*
X2272Y1611D02*
D03*
X2232Y1570D02*
D03*
X2307Y1645D02*
D03*
X2347Y1686D02*
D03*
X1653Y2070D02*
D03*
X1693Y2111D02*
D03*
D62*
X2486Y2561D02*
D03*
Y2461D02*
D03*
Y2361D02*
D03*
Y2261D02*
D03*
Y2161D02*
D03*
Y2061D02*
D03*
D63*
X2225Y2843D02*
D03*
X2125D02*
D03*
X2025D02*
D03*
X1925D02*
D03*
X1825D02*
D03*
X1725D02*
D03*
X1625D02*
D03*
X1525D02*
D03*
D64*
X1088Y2849D02*
D03*
X2662D02*
D03*
X1088Y1275D02*
D03*
D65*
X2071Y1321D02*
D03*
X1866D02*
D03*
X1197Y1094D02*
D03*
X1567Y1323D02*
D03*
X1563Y1165D02*
D03*
D66*
X1636Y1771D02*
D03*
X1578Y1716D02*
D03*
X1748Y1603D02*
D03*
D67*
X2075Y1024D02*
D03*
X1873Y1141D02*
D03*
X2064D02*
D03*
X1862Y1021D02*
D03*
D68*
X2561Y1449D02*
D03*
X2461D02*
D03*
X2361D02*
D03*
X2561Y1349D02*
D03*
X2461D02*
D03*
X2361D02*
D03*
D69*
X2125Y2208D02*
D03*
X2304Y2139D02*
D03*
X2653Y1887D02*
D03*
Y1556D02*
D03*
X2510Y1401D02*
D03*
X2160Y1935D02*
D03*
X2103Y1942D02*
D03*
X2373Y2143D02*
D03*
X2149Y2187D02*
D03*
X2297Y2186D02*
D03*
X2086Y2411D02*
D03*
X1866Y1659D02*
D03*
X1984Y1463D02*
D03*
X2411Y1550D02*
D03*
X1835Y1879D02*
D03*
X1923Y2075D02*
D03*
X1854Y2083D02*
D03*
X1527Y2276D02*
D03*
X1839Y2242D02*
D03*
X1654Y1978D02*
D03*
X1463D02*
D03*
X1959Y1675D02*
D03*
X1941Y2352D02*
D03*
X1740Y2197D02*
D03*
X1840Y1614D02*
D03*
X1693Y1762D02*
D03*
X1638Y1386D02*
D03*
X2260Y1657D02*
D03*
X1594Y1661D02*
D03*
X1954Y1187D02*
D03*
X1899D02*
D03*
X1764Y1177D02*
D03*
X1350Y1189D02*
D03*
X1776Y2201D02*
D03*
X1783Y1319D02*
D03*
X1783Y1528D02*
D03*
X1898Y1992D02*
D03*
X1886Y1823D02*
D03*
X1579Y1850D02*
D03*
Y1776D02*
D03*
X1760Y1484D02*
D03*
X1913Y1309D02*
D03*
X1969Y1321D02*
D03*
X2122Y1728D02*
D03*
X2850Y2411D02*
D03*
X2791D02*
D03*
X1990D02*
D03*
X1898Y2350D02*
D03*
X1799Y2230D02*
D03*
X1967Y2094D02*
D03*
X1959Y2138D02*
D03*
X2850Y1848D02*
D03*
X2033Y2108D02*
D03*
X1992Y2130D02*
D03*
Y2075D02*
D03*
X1923Y2132D02*
D03*
X2768Y1472D02*
D03*
Y1528D02*
D03*
X2170Y1992D02*
D03*
X1935Y2037D02*
D03*
X1465Y2890D02*
D03*
X1671Y2892D02*
D03*
X1447Y1339D02*
D03*
Y1280D02*
D03*
X2367Y1936D02*
D03*
X1801Y1565D02*
D03*
X1384Y1567D02*
D03*
X1446Y1223D02*
D03*
X1937Y1476D02*
D03*
X2363Y1881D02*
D03*
X2274Y2390D02*
D03*
X2274Y2435D02*
D03*
X2411Y1394D02*
D03*
X2331Y1602D02*
D03*
X2363Y1625D02*
D03*
X2571Y1646D02*
D03*
Y1606D02*
D03*
X2612Y1654D02*
D03*
X2579Y1687D02*
D03*
X2228Y1819D02*
D03*
X1921Y1829D02*
D03*
X2281Y1854D02*
D03*
X2317Y1833D02*
D03*
X1967Y1848D02*
D03*
X2409Y1722D02*
D03*
Y1774D02*
D03*
X2793Y1848D02*
D03*
M02*
